<?xml version="1.0" encoding="utf-8"?>
<!-- Generator: Adobe Illustrator 27.2.0, SVG Export Plug-In . SVG Version: 6.00 Build 0)  -->
<svg version="1.1" id="Layer_1" xmlns="http://www.w3.org/2000/svg" xmlns:xlink="http://www.w3.org/1999/xlink" x="0px" y="0px"
	 viewBox="0 0 681 334.8" style="enable-background:new 0 0 681 334.8;" xml:space="preserve">
<style type="text/css">
	.st0{fill:#BCDDBC;}
	.st1{opacity:0.5;fill:#F2F2F2;stroke:#F2F2F2;enable-background:new    ;}
	.st2{opacity:0.5;fill:#E6E6E6;stroke:#E6E6E6;enable-background:new    ;}
	.st3{opacity:0.5;fill:#ECECEC;stroke:#ECECEC;enable-background:new    ;}
	.st4{fill:none;stroke:#B0B0B0;stroke-width:0.8;stroke-linejoin:round;}
	.st5{fill:none;stroke:#000000;stroke-width:0.8;stroke-linecap:square;stroke-linejoin:round;}
	
		.st6{clip-path:url(#SVGID_00000129906244627779390080000010369063772989978533_);fill:none;stroke:#000000;stroke-width:1.5;stroke-linejoin:round;}
	
		.st7{clip-path:url(#SVGID_00000150080563341997946520000013205518372143657130_);fill:none;stroke:#0000FF;stroke-width:1.5;stroke-linejoin:round;stroke-dasharray:5.55,2.4;}
	
		.st8{clip-path:url(#SVGID_00000149374786730256481260000008187468094706258320_);fill:none;stroke:#0000FF;stroke-width:1.5;stroke-linejoin:round;stroke-dasharray:5.55,2.4;}
	
		.st9{clip-path:url(#SVGID_00000121258974924428835750000016072254880217837474_);fill:none;stroke:#0000FF;stroke-width:1.5;stroke-linejoin:round;stroke-dasharray:5.55,2.4;}
	.st10{fill:#FFFFFF;stroke:#FFFFFF;stroke-width:0.12;stroke-miterlimit:1.2;}
	
		.st11{clip-path:url(#SVGID_00000133518228857696307600000007512151274466010262_);fill:none;stroke:#9800E8;stroke-width:2;stroke-linejoin:round;}
	
		.st12{clip-path:url(#SVGID_00000021831583102299274890000008249146628610005133_);fill:none;stroke:#9800E8;stroke-width:2;stroke-linejoin:round;}
	
		.st13{clip-path:url(#SVGID_00000159429058746258764280000014380974552512593574_);fill:none;stroke:#FF0000;stroke-width:1.5;stroke-linejoin:round;stroke-dasharray:5.55,2.4;}
	
		.st14{clip-path:url(#SVGID_00000049191620629841292510000008750663556807260805_);fill:none;stroke:#FF0000;stroke-width:1.5;stroke-linejoin:round;stroke-dasharray:5.55,2.4;}
	
		.st15{clip-path:url(#SVGID_00000070804661798771980340000018155933104940688790_);fill:none;stroke:#FF0000;stroke-width:1.5;stroke-linejoin:round;stroke-dasharray:5.55,2.4;}
	.st16{fill:none;stroke:#000000;stroke-miterlimit:10;}
	.st17{fill:none;}
	.st18{font-family:'ArialMT';}
	.st19{font-size:16px;}
	.st20{fill:none;stroke:#9800E8;stroke-width:2;stroke-linejoin:round;}
	.st21{fill:#9800E8;}
	.st22{fill:none;stroke:#FF0000;stroke-width:2;stroke-linejoin:round;stroke-dasharray:5.55,2.4;}
	.st23{fill:#FF0000;}
	.st24{fill:none;stroke:#000000;stroke-width:1.5;stroke-miterlimit:10;}
	.st25{font-size:22px;}
	.st26{fill:#008000;}
	.st27{font-size:26.5123px;}
</style>
<rect x="428" y="23.3" class="st0" width="225" height="172.7"/>
<g id="figure_1">
	<g id="pane3d_1">
		<g id="patch_3">
			<path class="st1" d="M25.1,250.6L135,158.5l-1.5-132.8l-115.1,84"/>
		</g>
	</g>
	<g id="pane3d_2">
		<g id="patch_4">
			<path class="st2" d="M135,158.5l176.3,51.2l6.3-137.4L133.4,25.8"/>
		</g>
	</g>
	<g id="pane3d_3">
		<g id="patch_5">
			<path class="st3" d="M25.1,250.6l186.9,61l99.3-101.9L135,158.5"/>
		</g>
	</g>
	<g id="grid3d_1">
		<g id="Line3DCollection_1">
			<path class="st4" d="M28.7,251.8l109.7-92.3L137,26.6"/>
			<path class="st4" d="M57.3,261.1l108.1-93.7l-0.2-133.6"/>
			<path class="st4" d="M86.5,270.7L193,175.4l1-134.3"/>
			<path class="st4" d="M116.1,280.3L221,183.5l2.2-135"/>
			<path class="st4" d="M146.2,290.2l103.2-98.4L252.8,56"/>
			<path class="st4" d="M176.9,300.2l101.4-100L283,63.7"/>
			<path class="st4" d="M208,310.4l99.5-101.7l6.1-137.3"/>
		</g>
	</g>
	<g id="grid3d_2">
		<g id="Line3DCollection_2">
			<path class="st4" d="M20.8,107.9l6.7,140.7l186.6,60.8"/>
			<path class="st4" d="M40.6,93.5l5.7,139.4L231.2,292"/>
			<path class="st4" d="M59.8,79.5l4.8,138l183.1,57.4"/>
			<path class="st4" d="M78.4,65.9l3.9,136.7l181.4,55.8"/>
			<path class="st4" d="M96.6,52.7l3.1,135.5l179.8,54.3"/>
			<path class="st4" d="M114.2,39.8l2.3,134.2l178.1,52.8"/>
			<path class="st4" d="M131.3,27.3l1.6,132.9l176.5,51.4"/>
		</g>
	</g>
	<g id="grid3d_3">
		<g id="Line3DCollection_3">
			<path class="st4" d="M311.4,207.1L134.9,156L25,247.9"/>
			<path class="st4" d="M312.3,185.9l-177.6-50.5L23.9,226.2"/>
			<path class="st4" d="M313.3,164.4l-178.9-49.8L22.9,204.2"/>
			<path class="st4" d="M314.3,142.6L134.2,93.5L21.8,181.8"/>
			<path class="st4" d="M315.3,120.5L134,72.2L20.7,159.1"/>
			<path class="st4" d="M316.3,98L133.7,50.5L19.6,136.1"/>
			<path class="st4" d="M317.4,75.3L133.5,28.5l-115,84.2"/>
		</g>
	</g>
	<g id="axis3d_1">
		<g id="line2d_1">
			<path class="st5" d="M25.1,250.6l186.9,61"/>
		</g>
		<g id="xtick_1">
			<g id="line2d_2">
				<path class="st5" d="M29.6,251l-2.9,2.4"/>
			</g>
			<g id="text_1">
				<g transform="translate(68.264213 326.87527) scale(0.1 -0.1)">
					<g>
						<path id="DejaVuSans-30" d="M-519,584.8c-5.1,0-8.9-2.5-11.5-7.5s-3.8-12.5-3.8-22.5s1.3-17.5,3.8-22.5
							c2.6-5,6.4-7.5,11.5-7.5s8.9,2.5,11.5,7.5s3.8,12.5,3.8,22.5s-1.3,17.5-3.8,22.5C-510.1,582.3-513.9,584.8-519,584.8z
							 M-519,592.6c8.2,0,14.4-3.2,18.7-9.7c4.3-6.5,6.5-15.8,6.5-28.1s-2.2-21.6-6.5-28.1s-10.6-9.7-18.7-9.7
							c-8.2,0-14.4,3.2-18.7,9.7s-6.5,15.8-6.5,28.1s2.2,21.7,6.5,28.1C-533.4,589.4-527.2,592.6-519,592.6z"/>
					</g>
					<g>
						<path id="DejaVuSans-2e" d="M-476.5,530.8h10.3v-12.4h-10.3V530.8z"/>
					</g>
					<g>
						<path id="DejaVuSans-30_00000125560741684728857080000016951757222279616680_" d="M-423.6,584.8c-5.1,0-8.9-2.5-11.5-7.5
							s-3.8-12.5-3.8-22.5s1.3-17.5,3.8-22.5c2.6-5,6.4-7.5,11.5-7.5s8.9,2.5,11.5,7.5s3.8,12.5,3.8,22.5s-1.3,17.5-3.8,22.5
							C-414.7,582.3-418.5,584.8-423.6,584.8z M-423.6,592.6c8.2,0,14.4-3.2,18.7-9.7c4.3-6.5,6.5-15.8,6.5-28.1s-2.2-21.6-6.5-28.1
							s-10.6-9.7-18.7-9.7c-8.2,0-14.4,3.2-18.7,9.7c-4.3,6.5-6.5,15.8-6.5,28.1s2.2,21.7,6.5,28.1
							C-438,589.4-431.8,592.6-423.6,592.6z"/>
					</g>
				</g>
			</g>
		</g>
		<g id="xtick_2">
			<g id="line2d_3">
				<path class="st5" d="M58.3,260.3l-2.8,2.5"/>
			</g>
			<g id="text_2">
				<g transform="translate(96.941927 336.392149) scale(0.1 -0.1)">
					<g>
						<path id="DejaVuSans-30_00000025411132721671621430000013455481716089075121_" d="M-519,584.8c-5.1,0-8.9-2.5-11.5-7.5
							s-3.8-12.5-3.8-22.5s1.3-17.5,3.8-22.5c2.6-5,6.4-7.5,11.5-7.5s8.9,2.5,11.5,7.5s3.8,12.5,3.8,22.5s-1.3,17.5-3.8,22.5
							C-510.1,582.3-513.9,584.8-519,584.8z M-519,592.6c8.2,0,14.4-3.2,18.7-9.7c4.3-6.5,6.5-15.8,6.5-28.1s-2.2-21.6-6.5-28.1
							s-10.6-9.7-18.7-9.7c-8.2,0-14.4,3.2-18.7,9.7s-6.5,15.8-6.5,28.1s2.2,21.7,6.5,28.1C-533.4,589.4-527.2,592.6-519,592.6z"/>
					</g>
					<g>
						<path id="DejaVuSans-2e_00000121279040287011341360000003410879854224974773_" d="M-476.5,530.8h10.3v-12.4h-10.3V530.8z"/>
					</g>
					<g>
						<path id="DejaVuSans-35" d="M-444.6,591.3h38.7V583h-29.7v-17.9c1.4,0.5,2.9,0.9,4.3,1.1c1.4,0.2,2.9,0.4,4.3,0.4
							c8.1,0,14.6-2.2,19.3-6.7c4.8-4.5,7.1-10.5,7.1-18.1c0-7.8-2.4-13.9-7.3-18.3c-4.9-4.3-11.8-6.5-20.7-6.5
							c-3.1,0-6.2,0.3-9.4,0.8c-3.2,0.5-6.4,1.3-9.8,2.3v9.9c2.9-1.6,6-2.8,9.1-3.6s6.4-1.2,9.9-1.2c5.6,0,10.1,1.5,13.4,4.4
							c3.3,3,4.9,7,4.9,12.1s-1.6,9.1-4.9,12c-3.3,3-7.7,4.5-13.4,4.5c-2.6,0-5.3-0.3-7.9-0.9c-2.6-0.6-5.3-1.5-8-2.7v36.7H-444.6z"
							/>
					</g>
				</g>
			</g>
		</g>
		<g id="xtick_3">
			<g id="line2d_4">
				<path class="st5" d="M87.4,269.8l-2.8,2.5"/>
			</g>
			<g id="text_3">
				<g transform="translate(126.1009 346.068737) scale(0.1 -0.1)">
					<g>
						<path id="DejaVuSans-31" d="M-538.4,526.7h16.1v55.6l-17.5-3.5v9l17.4,3.5h9.9v-64.6h16.1v-8.3h-42V526.7z"/>
					</g>
					<g>
						<path id="DejaVuSans-2e_00000152979598829608482140000015123131260552361380_" d="M-476.5,530.8h10.3v-12.4h-10.3V530.8z"/>
					</g>
					<g>
						<path id="DejaVuSans-30_00000076580952403806986700000006886927156094880173_" d="M-423.6,584.8c-5.1,0-8.9-2.5-11.5-7.5
							s-3.8-12.5-3.8-22.5s1.3-17.5,3.8-22.5c2.6-5,6.4-7.5,11.5-7.5s8.9,2.5,11.5,7.5s3.8,12.5,3.8,22.5s-1.3,17.5-3.8,22.5
							C-414.7,582.3-418.5,584.8-423.6,584.8z M-423.6,592.6c8.2,0,14.4-3.2,18.7-9.7c4.3-6.5,6.5-15.8,6.5-28.1s-2.2-21.6-6.5-28.1
							s-10.6-9.7-18.7-9.7c-8.2,0-14.4,3.2-18.7,9.7c-4.3,6.5-6.5,15.8-6.5,28.1s2.2,21.7,6.5,28.1
							C-438,589.4-431.8,592.6-423.6,592.6z"/>
					</g>
				</g>
			</g>
		</g>
		<g id="xtick_4">
			<g id="line2d_5">
				<path class="st5" d="M117,279.5l-2.7,2.5"/>
			</g>
			<g id="text_4">
				<g transform="translate(155.753349 355.909087) scale(0.1 -0.1)">
					<g>
						<path id="DejaVuSans-31_00000151540023458082573850000008792175259525353367_" d="M-538.4,526.7h16.1v55.6l-17.5-3.5v9
							l17.4,3.5h9.9v-64.6h16.1v-8.3h-42V526.7z"/>
					</g>
					<g>
						<path id="DejaVuSans-2e_00000072960424565378889580000006693120770046668721_" d="M-476.5,530.8h10.3v-12.4h-10.3V530.8z"/>
					</g>
					<g>
						<path id="DejaVuSans-35_00000012437229678436658920000000377528282154288548_" d="M-444.6,591.3h38.7V583h-29.7v-17.9
							c1.4,0.5,2.9,0.9,4.3,1.1c1.4,0.2,2.9,0.4,4.3,0.4c8.1,0,14.6-2.2,19.3-6.7c4.8-4.5,7.1-10.5,7.1-18.1
							c0-7.8-2.4-13.9-7.3-18.3c-4.9-4.3-11.8-6.5-20.7-6.5c-3.1,0-6.2,0.3-9.4,0.8c-3.2,0.5-6.4,1.3-9.8,2.3v9.9
							c2.9-1.6,6-2.8,9.1-3.6s6.4-1.2,9.9-1.2c5.6,0,10.1,1.5,13.4,4.4c3.3,3,4.9,7,4.9,12.1s-1.6,9.1-4.9,12
							c-3.3,3-7.7,4.5-13.4,4.5c-2.6,0-5.3-0.3-7.9-0.9c-2.6-0.6-5.3-1.5-8-2.7v36.7H-444.6z"/>
					</g>
				</g>
			</g>
		</g>
		<g id="xtick_5">
			<g id="line2d_6">
				<path class="st5" d="M147.1,289.3l-2.7,2.6"/>
			</g>
			<g id="text_5">
				<g transform="translate(185.911907 365.917394) scale(0.1 -0.1)">
					<g>
						<path id="DejaVuSans-32" d="M-531.6,526.7h34.4v-8.3h-46.3v8.3c3.7,3.9,8.8,9.1,15.3,15.6s10.5,10.7,12.2,12.6
							c3.2,3.5,5.4,6.5,6.6,9c1.3,2.5,1.9,4.9,1.9,7.2c0,3.9-1.4,7-4.1,9.5c-2.7,2.4-6.3,3.7-10.6,3.7c-3.1,0-6.4-0.5-9.8-1.6
							c-3.4-1.1-7.1-2.7-11-4.9v10c4,1.6,7.7,2.8,11.1,3.6c3.5,0.8,6.6,1.2,9.5,1.2c7.6,0,13.6-1.9,18.1-5.7s6.7-8.8,6.7-15.1
							c0-3-0.6-5.8-1.7-8.5s-3.2-5.8-6.1-9.5c-0.8-0.9-3.4-3.7-7.8-8.2C-517.5,541.1-523.7,534.8-531.6,526.7z"/>
					</g>
					<g>
						<path id="DejaVuSans-2e_00000168089872993978074660000007389935592411526318_" d="M-476.5,530.8h10.3v-12.4h-10.3V530.8z"/>
					</g>
					<g>
						<path id="DejaVuSans-30_00000054239213535236128710000014333704110195742655_" d="M-423.6,584.8c-5.1,0-8.9-2.5-11.5-7.5
							s-3.8-12.5-3.8-22.5s1.3-17.5,3.8-22.5c2.6-5,6.4-7.5,11.5-7.5s8.9,2.5,11.5,7.5s3.8,12.5,3.8,22.5s-1.3,17.5-3.8,22.5
							C-414.7,582.3-418.5,584.8-423.6,584.8z M-423.6,592.6c8.2,0,14.4-3.2,18.7-9.7c4.3-6.5,6.5-15.8,6.5-28.1s-2.2-21.6-6.5-28.1
							s-10.6-9.7-18.7-9.7c-8.2,0-14.4,3.2-18.7,9.7c-4.3,6.5-6.5,15.8-6.5,28.1s2.2,21.7,6.5,28.1
							C-438,589.4-431.8,592.6-423.6,592.6z"/>
					</g>
				</g>
			</g>
		</g>
		<g id="xtick_6">
			<g id="line2d_7">
				<path class="st5" d="M177.7,299.3l-2.7,2.6"/>
			</g>
			<g id="text_6">
				<g transform="translate(216.589644 376.097993) scale(0.1 -0.1)">
					<g>
						<path id="DejaVuSans-32_00000029727588209983813410000006013224696367962762_" d="M-531.6,526.7h34.4v-8.3h-46.3v8.3
							c3.7,3.9,8.8,9.1,15.3,15.6s10.5,10.7,12.2,12.6c3.2,3.5,5.4,6.5,6.6,9c1.3,2.5,1.9,4.9,1.9,7.2c0,3.9-1.4,7-4.1,9.5
							c-2.7,2.4-6.3,3.7-10.6,3.7c-3.1,0-6.4-0.5-9.8-1.6c-3.4-1.1-7.1-2.7-11-4.9v10c4,1.6,7.7,2.8,11.1,3.6
							c3.5,0.8,6.6,1.2,9.5,1.2c7.6,0,13.6-1.9,18.1-5.7s6.7-8.8,6.7-15.1c0-3-0.6-5.8-1.7-8.5s-3.2-5.8-6.1-9.5
							c-0.8-0.9-3.4-3.7-7.8-8.2C-517.5,541.1-523.7,534.8-531.6,526.7z"/>
					</g>
					<g>
						<path id="DejaVuSans-2e_00000176008103520732649940000018040800489362397587_" d="M-476.5,530.8h10.3v-12.4h-10.3V530.8z"/>
					</g>
					<g>
						<path id="DejaVuSans-35_00000179609644434812191470000007650554264590817422_" d="M-444.6,591.3h38.7V583h-29.7v-17.9
							c1.4,0.5,2.9,0.9,4.3,1.1c1.4,0.2,2.9,0.4,4.3,0.4c8.1,0,14.6-2.2,19.3-6.7c4.8-4.5,7.1-10.5,7.1-18.1
							c0-7.8-2.4-13.9-7.3-18.3c-4.9-4.3-11.8-6.5-20.7-6.5c-3.1,0-6.2,0.3-9.4,0.8c-3.2,0.5-6.4,1.3-9.8,2.3v9.9
							c2.9-1.6,6-2.8,9.1-3.6s6.4-1.2,9.9-1.2c5.6,0,10.1,1.5,13.4,4.4c3.3,3,4.9,7,4.9,12.1s-1.6,9.1-4.9,12
							c-3.3,3-7.7,4.5-13.4,4.5c-2.6,0-5.3-0.3-7.9-0.9c-2.6-0.6-5.3-1.5-8-2.7v36.7H-444.6z"/>
					</g>
				</g>
			</g>
		</g>
		<g id="xtick_7">
			<g id="line2d_8">
				<path class="st5" d="M208.9,309.5l-2.6,2.7"/>
			</g>
			<g id="text_7">
				<g transform="translate(247.800082 386.455372) scale(0.1 -0.1)">
					<g>
						<path id="DejaVuSans-33" d="M-510.2,557.7c4.7-1,8.4-3.1,11-6.3c2.7-3.2,4-7.1,4-11.8c0-7.2-2.5-12.8-7.4-16.7
							s-12-5.9-21.1-5.9c-3.1,0-6.2,0.3-9.4,0.9c-3.2,0.6-6.6,1.5-10,2.7v9.5c2.7-1.6,5.7-2.8,9-3.6s6.7-1.2,10.2-1.2
							c6.2,0,10.9,1.2,14.1,3.7s4.9,6,4.9,10.6c0,4.3-1.5,7.7-4.5,10.1c-3,2.4-7.2,3.6-12.6,3.6h-8.5v8.1h8.9c4.8,0,8.6,1,11.1,2.9
							c2.6,1.9,3.9,4.7,3.9,8.4s-1.3,6.6-4,8.6c-2.6,2-6.4,3-11.4,3c-2.7,0-5.6-0.3-8.7-0.9c-3.1-0.6-6.5-1.5-10.2-2.7v8.8
							c3.8,1,7.3,1.8,10.5,2.3c3.3,0.5,6.4,0.8,9.2,0.8c7.5,0,13.4-1.7,17.8-5.1c4.4-3.4,6.5-8,6.5-13.8c0-4-1.2-7.5-3.5-10.2
							S-506,558.8-510.2,557.7z"/>
					</g>
					<g>
						<path id="DejaVuSans-2e_00000157292745075546327010000006557189021526195862_" d="M-476.5,530.8h10.3v-12.4h-10.3V530.8z"/>
					</g>
					<g>
						<path id="DejaVuSans-30_00000073715083346775735540000002476316047812148916_" d="M-423.6,584.8c-5.1,0-8.9-2.5-11.5-7.5
							s-3.8-12.5-3.8-22.5s1.3-17.5,3.8-22.5c2.6-5,6.4-7.5,11.5-7.5s8.9,2.5,11.5,7.5s3.8,12.5,3.8,22.5s-1.3,17.5-3.8,22.5
							C-414.7,582.3-418.5,584.8-423.6,584.8z M-423.6,592.6c8.2,0,14.4-3.2,18.7-9.7c4.3-6.5,6.5-15.8,6.5-28.1s-2.2-21.6-6.5-28.1
							s-10.6-9.7-18.7-9.7c-8.2,0-14.4,3.2-18.7,9.7c-4.3,6.5-6.5,15.8-6.5,28.1s2.2,21.7,6.5,28.1
							C-438,589.4-431.8,592.6-423.6,592.6z"/>
					</g>
				</g>
			</g>
		</g>
	</g>
	<g id="axis3d_2">
		<g id="line2d_9">
			<path class="st5" d="M311.2,209.8L212,311.6"/>
		</g>
		<g id="xtick_8">
			<g id="line2d_10">
				<path class="st5" d="M212.6,308.9l4.7,1.5"/>
			</g>
			<g id="text_8">
				<g transform="translate(274.19442 382.340642) scale(0.1 -0.1)">
					<g>
						<path id="DejaVuSans-30_00000178908014969290600260000003988367891883205545_" d="M-519,584.8c-5.1,0-8.9-2.5-11.5-7.5
							s-3.8-12.5-3.8-22.5s1.3-17.5,3.8-22.5c2.6-5,6.4-7.5,11.5-7.5s8.9,2.5,11.5,7.5s3.8,12.5,3.8,22.5s-1.3,17.5-3.8,22.5
							C-510.1,582.3-513.9,584.8-519,584.8z M-519,592.6c8.2,0,14.4-3.2,18.7-9.7c4.3-6.5,6.5-15.8,6.5-28.1s-2.2-21.6-6.5-28.1
							s-10.6-9.7-18.7-9.7c-8.2,0-14.4,3.2-18.7,9.7s-6.5,15.8-6.5,28.1s2.2,21.7,6.5,28.1C-533.4,589.4-527.2,592.6-519,592.6z"/>
					</g>
					<g>
						<path id="DejaVuSans-2e_00000031906667718759003530000012619161909847562938_" d="M-476.5,530.8h10.3v-12.4h-10.3V530.8z"/>
					</g>
					<g>
						<path id="DejaVuSans-30_00000127727440031264430480000015240630226171136424_" d="M-423.6,584.8c-5.1,0-8.9-2.5-11.5-7.5
							s-3.8-12.5-3.8-22.5s1.3-17.5,3.8-22.5c2.6-5,6.4-7.5,11.5-7.5s8.9,2.5,11.5,7.5s3.8,12.5,3.8,22.5s-1.3,17.5-3.8,22.5
							C-414.7,582.3-418.5,584.8-423.6,584.8z M-423.6,592.6c8.2,0,14.4-3.2,18.7-9.7c4.3-6.5,6.5-15.8,6.5-28.1s-2.2-21.6-6.5-28.1
							s-10.6-9.7-18.7-9.7c-8.2,0-14.4,3.2-18.7,9.7c-4.3,6.5-6.5,15.8-6.5,28.1s2.2,21.7,6.5,28.1
							C-438,589.4-431.8,592.6-423.6,592.6z"/>
					</g>
				</g>
			</g>
		</g>
		<g id="xtick_9">
			<g id="line2d_11">
				<path class="st5" d="M229.6,291.4l4.7,1.5"/>
			</g>
			<g id="text_9">
				<g transform="translate(291.063107 364.634282) scale(0.1 -0.1)">
					<g>
						<path id="DejaVuSans-30_00000044176277289477527670000017045373174946928059_" d="M-519,584.8c-5.1,0-8.9-2.5-11.5-7.5
							s-3.8-12.5-3.8-22.5s1.3-17.5,3.8-22.5c2.6-5,6.4-7.5,11.5-7.5s8.9,2.5,11.5,7.5s3.8,12.5,3.8,22.5s-1.3,17.5-3.8,22.5
							C-510.1,582.3-513.9,584.8-519,584.8z M-519,592.6c8.2,0,14.4-3.2,18.7-9.7c4.3-6.5,6.5-15.8,6.5-28.1s-2.2-21.6-6.5-28.1
							s-10.6-9.7-18.7-9.7c-8.2,0-14.4,3.2-18.7,9.7s-6.5,15.8-6.5,28.1s2.2,21.7,6.5,28.1C-533.4,589.4-527.2,592.6-519,592.6z"/>
					</g>
					<g>
						<path id="DejaVuSans-2e_00000112601469410078052140000005336027666978739628_" d="M-476.5,530.8h10.3v-12.4h-10.3V530.8z"/>
					</g>
					<g>
						<path id="DejaVuSans-35_00000007420063328051568820000012793402576386889124_" d="M-444.6,591.3h38.7V583h-29.7v-17.9
							c1.4,0.5,2.9,0.9,4.3,1.1c1.4,0.2,2.9,0.4,4.3,0.4c8.1,0,14.6-2.2,19.3-6.7c4.8-4.5,7.1-10.5,7.1-18.1
							c0-7.8-2.4-13.9-7.3-18.3c-4.9-4.3-11.8-6.5-20.7-6.5c-3.1,0-6.2,0.3-9.4,0.8c-3.2,0.5-6.4,1.3-9.8,2.3v9.9
							c2.9-1.6,6-2.8,9.1-3.6s6.4-1.2,9.9-1.2c5.6,0,10.1,1.5,13.4,4.4c3.3,3,4.9,7,4.9,12.1s-1.6,9.1-4.9,12
							c-3.3,3-7.7,4.5-13.4,4.5c-2.6,0-5.3-0.3-7.9-0.9c-2.6-0.6-5.3-1.5-8-2.7v36.7H-444.6z"/>
					</g>
				</g>
			</g>
		</g>
		<g id="xtick_10">
			<g id="line2d_12">
				<path class="st5" d="M246.2,274.5l4.6,1.5"/>
			</g>
			<g id="text_10">
				<g transform="translate(307.440897 347.443194) scale(0.1 -0.1)">
					<g>
						<path id="DejaVuSans-31_00000141417362728272083330000014734269585933280398_" d="M-538.4,526.7h16.1v55.6l-17.5-3.5v9
							l17.4,3.5h9.9v-64.6h16.1v-8.3h-42V526.7z"/>
					</g>
					<g>
						<path id="DejaVuSans-2e_00000010306045177407435060000000967632558053020848_" d="M-476.5,530.8h10.3v-12.4h-10.3V530.8z"/>
					</g>
					<g>
						<path id="DejaVuSans-30_00000011724606749248939100000005413861199896431248_" d="M-423.6,584.8c-5.1,0-8.9-2.5-11.5-7.5
							s-3.8-12.5-3.8-22.5s1.3-17.5,3.8-22.5c2.6-5,6.4-7.5,11.5-7.5s8.9,2.5,11.5,7.5s3.8,12.5,3.8,22.5s-1.3,17.5-3.8,22.5
							C-414.7,582.3-418.5,584.8-423.6,584.8z M-423.6,592.6c8.2,0,14.4-3.2,18.7-9.7c4.3-6.5,6.5-15.8,6.5-28.1s-2.2-21.6-6.5-28.1
							s-10.6-9.7-18.7-9.7c-8.2,0-14.4,3.2-18.7,9.7c-4.3,6.5-6.5,15.8-6.5,28.1s2.2,21.7,6.5,28.1
							C-438,589.4-431.8,592.6-423.6,592.6z"/>
					</g>
				</g>
			</g>
		</g>
		<g id="xtick_11">
			<g id="line2d_13">
				<path class="st5" d="M262.3,258l4.6,1.4"/>
			</g>
			<g id="text_11">
				<g transform="translate(323.348914 330.745209) scale(0.1 -0.1)">
					<g>
						<path id="DejaVuSans-31_00000162312793393723442500000007764756919975644325_" d="M-538.4,526.7h16.1v55.6l-17.5-3.5v9
							l17.4,3.5h9.9v-64.6h16.1v-8.3h-42V526.7z"/>
					</g>
					<g>
						<path id="DejaVuSans-2e_00000090263160467098458430000009014682176059062700_" d="M-476.5,530.8h10.3v-12.4h-10.3V530.8z"/>
					</g>
					<g>
						<path id="DejaVuSans-35_00000013895522010186160210000010293089173472655533_" d="M-444.6,591.3h38.7V583h-29.7v-17.9
							c1.4,0.5,2.9,0.9,4.3,1.1c1.4,0.2,2.9,0.4,4.3,0.4c8.1,0,14.6-2.2,19.3-6.7c4.8-4.5,7.1-10.5,7.1-18.1
							c0-7.8-2.4-13.9-7.3-18.3c-4.9-4.3-11.8-6.5-20.7-6.5c-3.1,0-6.2,0.3-9.4,0.8c-3.2,0.5-6.4,1.3-9.8,2.3v9.9
							c2.9-1.6,6-2.8,9.1-3.6s6.4-1.2,9.9-1.2c5.6,0,10.1,1.5,13.4,4.4c3.3,3,4.9,7,4.9,12.1s-1.6,9.1-4.9,12
							c-3.3,3-7.7,4.5-13.4,4.5c-2.6,0-5.3-0.3-7.9-0.9c-2.6-0.6-5.3-1.5-8-2.7v36.7H-444.6z"/>
					</g>
				</g>
			</g>
		</g>
		<g id="xtick_12">
			<g id="line2d_14">
				<path class="st5" d="M277.9,241.9l4.5,1.4"/>
			</g>
			<g id="text_12">
				<g transform="translate(338.807082 314.519411) scale(0.1 -0.1)">
					<g>
						<path id="DejaVuSans-32_00000072243970974286981820000001010309865973240240_" d="M-531.6,526.7h34.4v-8.3h-46.3v8.3
							c3.7,3.9,8.8,9.1,15.3,15.6s10.5,10.7,12.2,12.6c3.2,3.5,5.4,6.5,6.6,9c1.3,2.5,1.9,4.9,1.9,7.2c0,3.9-1.4,7-4.1,9.5
							c-2.7,2.4-6.3,3.7-10.6,3.7c-3.1,0-6.4-0.5-9.8-1.6c-3.4-1.1-7.1-2.7-11-4.9v10c4,1.6,7.7,2.8,11.1,3.6
							c3.5,0.8,6.6,1.2,9.5,1.2c7.6,0,13.6-1.9,18.1-5.7s6.7-8.8,6.7-15.1c0-3-0.6-5.8-1.7-8.5s-3.2-5.8-6.1-9.5
							c-0.8-0.9-3.4-3.7-7.8-8.2C-517.5,541.1-523.7,534.8-531.6,526.7z"/>
					</g>
					<g>
						<path id="DejaVuSans-2e_00000066490466398739352710000002499153436558206650_" d="M-476.5,530.8h10.3v-12.4h-10.3V530.8z"/>
					</g>
					<g>
						<path id="DejaVuSans-30_00000116945866699382488400000009035761011973985962_" d="M-423.6,584.8c-5.1,0-8.9-2.5-11.5-7.5
							s-3.8-12.5-3.8-22.5s1.3-17.5,3.8-22.5c2.6-5,6.4-7.5,11.5-7.5s8.9,2.5,11.5,7.5s3.8,12.5,3.8,22.5s-1.3,17.5-3.8,22.5
							C-414.7,582.3-418.5,584.8-423.6,584.8z M-423.6,592.6c8.2,0,14.4-3.2,18.7-9.7c4.3-6.5,6.5-15.8,6.5-28.1s-2.2-21.6-6.5-28.1
							s-10.6-9.7-18.7-9.7c-8.2,0-14.4,3.2-18.7,9.7c-4.3,6.5-6.5,15.8-6.5,28.1s2.2,21.7,6.5,28.1
							C-438,589.4-431.8,592.6-423.6,592.6z"/>
					</g>
				</g>
			</g>
		</g>
		<g id="xtick_13">
			<g id="line2d_15">
				<path class="st5" d="M293.1,226.4l4.5,1.3"/>
			</g>
			<g id="text_13">
				<g transform="translate(353.834218 298.74605) scale(0.1 -0.1)">
					<g>
						<path id="DejaVuSans-32_00000168103743973051092550000009564453335686919098_" d="M-531.6,526.7h34.4v-8.3h-46.3v8.3
							c3.7,3.9,8.8,9.1,15.3,15.6s10.5,10.7,12.2,12.6c3.2,3.5,5.4,6.5,6.6,9c1.3,2.5,1.9,4.9,1.9,7.2c0,3.9-1.4,7-4.1,9.5
							c-2.7,2.4-6.3,3.7-10.6,3.7c-3.1,0-6.4-0.5-9.8-1.6c-3.4-1.1-7.1-2.7-11-4.9v10c4,1.6,7.7,2.8,11.1,3.6
							c3.5,0.8,6.6,1.2,9.5,1.2c7.6,0,13.6-1.9,18.1-5.7s6.7-8.8,6.7-15.1c0-3-0.6-5.8-1.7-8.5s-3.2-5.8-6.1-9.5
							c-0.8-0.9-3.4-3.7-7.8-8.2C-517.5,541.1-523.7,534.8-531.6,526.7z"/>
					</g>
					<g>
						<path id="DejaVuSans-2e_00000171682310299571576850000009414699141369837969_" d="M-476.5,530.8h10.3v-12.4h-10.3V530.8z"/>
					</g>
					<g>
						<path id="DejaVuSans-35_00000040548296531824489750000002425749932836424867_" d="M-444.6,591.3h38.7V583h-29.7v-17.9
							c1.4,0.5,2.9,0.9,4.3,1.1c1.4,0.2,2.9,0.4,4.3,0.4c8.1,0,14.6-2.2,19.3-6.7c4.8-4.5,7.1-10.5,7.1-18.1
							c0-7.8-2.4-13.9-7.3-18.3c-4.9-4.3-11.8-6.5-20.7-6.5c-3.1,0-6.2,0.3-9.4,0.8c-3.2,0.5-6.4,1.3-9.8,2.3v9.9
							c2.9-1.6,6-2.8,9.1-3.6s6.4-1.2,9.9-1.2c5.6,0,10.1,1.5,13.4,4.4c3.3,3,4.9,7,4.9,12.1s-1.6,9.1-4.9,12
							c-3.3,3-7.7,4.5-13.4,4.5c-2.6,0-5.3-0.3-7.9-0.9c-2.6-0.6-5.3-1.5-8-2.7v36.7H-444.6z"/>
					</g>
				</g>
			</g>
		</g>
		<g id="xtick_14">
			<g id="line2d_16">
				<path class="st5" d="M307.9,211.2l4.4,1.3"/>
			</g>
			<g id="text_14">
				<g transform="translate(368.448101 283.406463) scale(0.1 -0.1)">
					<g>
						<path id="DejaVuSans-33_00000144319191348246339820000016024556526243189136_" d="M-510.2,557.7c4.7-1,8.4-3.1,11-6.3
							c2.7-3.2,4-7.1,4-11.8c0-7.2-2.5-12.8-7.4-16.7s-12-5.9-21.1-5.9c-3.1,0-6.2,0.3-9.4,0.9c-3.2,0.6-6.6,1.5-10,2.7v9.5
							c2.7-1.6,5.7-2.8,9-3.6s6.7-1.2,10.2-1.2c6.2,0,10.9,1.2,14.1,3.7s4.9,6,4.9,10.6c0,4.3-1.5,7.7-4.5,10.1
							c-3,2.4-7.2,3.6-12.6,3.6h-8.5v8.1h8.9c4.8,0,8.6,1,11.1,2.9s3.9,4.7,3.9,8.4s-1.3,6.6-4,8.6c-2.6,2-6.4,3-11.4,3
							c-2.7,0-5.6-0.3-8.7-0.9c-3.1-0.6-6.5-1.5-10.2-2.7v8.8c3.8,1,7.3,1.8,10.5,2.3c3.3,0.5,6.4,0.8,9.2,0.8
							c7.5,0,13.4-1.7,17.8-5.1c4.4-3.4,6.5-8,6.5-13.8c0-4-1.2-7.5-3.5-10.2S-506,558.8-510.2,557.7z"/>
					</g>
					<g>
						<path id="DejaVuSans-2e_00000080890862926606285570000005531658752931183764_" d="M-476.5,530.8h10.3v-12.4h-10.3V530.8z"/>
					</g>
					<g>
						<path id="DejaVuSans-30_00000150097192056705394350000014272702835226970772_" d="M-423.6,584.8c-5.1,0-8.9-2.5-11.5-7.5
							s-3.8-12.5-3.8-22.5s1.3-17.5,3.8-22.5c2.6-5,6.4-7.5,11.5-7.5s8.9,2.5,11.5,7.5s3.8,12.5,3.8,22.5s-1.3,17.5-3.8,22.5
							C-414.7,582.3-418.5,584.8-423.6,584.8z M-423.6,592.6c8.2,0,14.4-3.2,18.7-9.7c4.3-6.5,6.5-15.8,6.5-28.1s-2.2-21.6-6.5-28.1
							s-10.6-9.7-18.7-9.7c-8.2,0-14.4,3.2-18.7,9.7c-4.3,6.5-6.5,15.8-6.5,28.1s2.2,21.7,6.5,28.1
							C-438,589.4-431.8,592.6-423.6,592.6z"/>
					</g>
				</g>
			</g>
		</g>
	</g>
	<g id="axis3d_3">
		<g id="line2d_17">
			<path class="st5" d="M311.2,209.8l6.3-137.4"/>
		</g>
		<g id="xtick_15">
			<g id="line2d_18">
				<path class="st5" d="M309.9,206.7l4.4,1.3"/>
			</g>
			<g id="text_15">
				<g transform="translate(376.756888 263.982649) scale(0.1 -0.1)">
					<g>
						<path id="DejaVuSans-30_00000070804869673971209380000014061428884684180145_" d="M-519,584.8c-5.1,0-8.9-2.5-11.5-7.5
							s-3.8-12.5-3.8-22.5s1.3-17.5,3.8-22.5c2.6-5,6.4-7.5,11.5-7.5s8.9,2.5,11.5,7.5s3.8,12.5,3.8,22.5s-1.3,17.5-3.8,22.5
							C-510.1,582.3-513.9,584.8-519,584.8z M-519,592.6c8.2,0,14.4-3.2,18.7-9.7c4.3-6.5,6.5-15.8,6.5-28.1s-2.2-21.6-6.5-28.1
							s-10.6-9.7-18.7-9.7c-8.2,0-14.4,3.2-18.7,9.7s-6.5,15.8-6.5,28.1s2.2,21.7,6.5,28.1C-533.4,589.4-527.2,592.6-519,592.6z"/>
					</g>
					<g>
						<path id="DejaVuSans-2e_00000131344554143658694800000002292773296187050909_" d="M-476.5,530.8h10.3v-12.4h-10.3V530.8z"/>
					</g>
					<g>
						<path id="DejaVuSans-30_00000177475613540984882540000013670643106173234315_" d="M-423.6,584.8c-5.1,0-8.9-2.5-11.5-7.5
							s-3.8-12.5-3.8-22.5s1.3-17.5,3.8-22.5c2.6-5,6.4-7.5,11.5-7.5s8.9,2.5,11.5,7.5s3.8,12.5,3.8,22.5s-1.3,17.5-3.8,22.5
							C-414.7,582.3-418.5,584.8-423.6,584.8z M-423.6,592.6c8.2,0,14.4-3.2,18.7-9.7c4.3-6.5,6.5-15.8,6.5-28.1s-2.2-21.6-6.5-28.1
							s-10.6-9.7-18.7-9.7c-8.2,0-14.4,3.2-18.7,9.7c-4.3,6.5-6.5,15.8-6.5,28.1s2.2,21.7,6.5,28.1
							C-438,589.4-431.8,592.6-423.6,592.6z"/>
					</g>
				</g>
			</g>
		</g>
		<g id="xtick_16">
			<g id="line2d_19">
				<path class="st5" d="M310.8,185.5l4.5,1.3"/>
			</g>
			<g id="text_16">
				<g transform="translate(377.852211 242.798056) scale(0.1 -0.1)">
					<g>
						<path id="DejaVuSans-30_00000057863500405373958740000006448319165412874135_" d="M-519,584.8c-5.1,0-8.9-2.5-11.5-7.5
							s-3.8-12.5-3.8-22.5s1.3-17.5,3.8-22.5c2.6-5,6.4-7.5,11.5-7.5s8.9,2.5,11.5,7.5s3.8,12.5,3.8,22.5s-1.3,17.5-3.8,22.5
							C-510.1,582.3-513.9,584.8-519,584.8z M-519,592.6c8.2,0,14.4-3.2,18.7-9.7c4.3-6.5,6.5-15.8,6.5-28.1s-2.2-21.6-6.5-28.1
							s-10.6-9.7-18.7-9.7c-8.2,0-14.4,3.2-18.7,9.7s-6.5,15.8-6.5,28.1s2.2,21.7,6.5,28.1C-533.4,589.4-527.2,592.6-519,592.6z"/>
					</g>
					<g>
						<path id="DejaVuSans-2e_00000044889379866147950040000018311435361362353281_" d="M-476.5,530.8h10.3v-12.4h-10.3V530.8z"/>
					</g>
					<g>
						<path id="DejaVuSans-35_00000132082094155519535850000017767109274832823731_" d="M-444.6,591.3h38.7V583h-29.7v-17.9
							c1.4,0.5,2.9,0.9,4.3,1.1c1.4,0.2,2.9,0.4,4.3,0.4c8.1,0,14.6-2.2,19.3-6.7c4.8-4.5,7.1-10.5,7.1-18.1
							c0-7.8-2.4-13.9-7.3-18.3c-4.9-4.3-11.8-6.5-20.7-6.5c-3.1,0-6.2,0.3-9.4,0.8c-3.2,0.5-6.4,1.3-9.8,2.3v9.9
							c2.9-1.6,6-2.8,9.1-3.6s6.4-1.2,9.9-1.2c5.6,0,10.1,1.5,13.4,4.4c3.3,3,4.9,7,4.9,12.1s-1.6,9.1-4.9,12
							c-3.3,3-7.7,4.5-13.4,4.5c-2.6,0-5.3-0.3-7.9-0.9c-2.6-0.6-5.3-1.5-8-2.7v36.7H-444.6z"/>
					</g>
				</g>
			</g>
		</g>
		<g id="xtick_17">
			<g id="line2d_20">
				<path class="st5" d="M311.8,164l4.5,1.3"/>
			</g>
			<g id="text_17">
				<g transform="translate(378.962747 221.319217) scale(0.1 -0.1)">
					<g>
						<path id="DejaVuSans-31_00000033337357227950218350000016333055606715202436_" d="M-538.4,526.7h16.1v55.6l-17.5-3.5v9
							l17.4,3.5h9.9v-64.6h16.1v-8.3h-42V526.7z"/>
					</g>
					<g>
						<path id="DejaVuSans-2e_00000133510216933671798800000007751455339223856822_" d="M-476.5,530.8h10.3v-12.4h-10.3V530.8z"/>
					</g>
					<g>
						<path id="DejaVuSans-30_00000129898649061838630510000015938194983663260339_" d="M-423.6,584.8c-5.1,0-8.9-2.5-11.5-7.5
							s-3.8-12.5-3.8-22.5s1.3-17.5,3.8-22.5c2.6-5,6.4-7.5,11.5-7.5s8.9,2.5,11.5,7.5s3.8,12.5,3.8,22.5s-1.3,17.5-3.8,22.5
							C-414.7,582.3-418.5,584.8-423.6,584.8z M-423.6,592.6c8.2,0,14.4-3.2,18.7-9.7c4.3-6.5,6.5-15.8,6.5-28.1s-2.2-21.6-6.5-28.1
							s-10.6-9.7-18.7-9.7c-8.2,0-14.4,3.2-18.7,9.7c-4.3,6.5-6.5,15.8-6.5,28.1s2.2,21.7,6.5,28.1
							C-438,589.4-431.8,592.6-423.6,592.6z"/>
					</g>
				</g>
			</g>
		</g>
		<g id="xtick_18">
			<g id="line2d_21">
				<path class="st5" d="M312.8,142.2l4.5,1.2"/>
			</g>
			<g id="text_18">
				<g transform="translate(380.088817 199.539959) scale(0.1 -0.1)">
					<g>
						<path id="DejaVuSans-31_00000178177117398914170870000016398187450888123562_" d="M-538.4,526.7h16.1v55.6l-17.5-3.5v9
							l17.4,3.5h9.9v-64.6h16.1v-8.3h-42V526.7z"/>
					</g>
					<g>
						<path id="DejaVuSans-2e_00000150060952532104103230000017488883902853437589_" d="M-476.5,530.8h10.3v-12.4h-10.3V530.8z"/>
					</g>
					<g>
						<path id="DejaVuSans-35_00000180353228254950207790000012094165045613356477_" d="M-444.6,591.3h38.7V583h-29.7v-17.9
							c1.4,0.5,2.9,0.9,4.3,1.1c1.4,0.2,2.9,0.4,4.3,0.4c8.1,0,14.6-2.2,19.3-6.7c4.8-4.5,7.1-10.5,7.1-18.1
							c0-7.8-2.4-13.9-7.3-18.3c-4.9-4.3-11.8-6.5-20.7-6.5c-3.1,0-6.2,0.3-9.4,0.8c-3.2,0.5-6.4,1.3-9.8,2.3v9.9
							c2.9-1.6,6-2.8,9.1-3.6s6.4-1.2,9.9-1.2c5.6,0,10.1,1.5,13.4,4.4c3.3,3,4.9,7,4.9,12.1s-1.6,9.1-4.9,12
							c-3.3,3-7.7,4.5-13.4,4.5c-2.6,0-5.3-0.3-7.9-0.9c-2.6-0.6-5.3-1.5-8-2.7v36.7H-444.6z"/>
					</g>
				</g>
			</g>
		</g>
		<g id="xtick_19">
			<g id="line2d_22">
				<path class="st5" d="M313.8,120.1l4.6,1.2"/>
			</g>
			<g id="text_19">
				<g transform="translate(381.230747 177.453933) scale(0.1 -0.1)">
					<g>
						<path id="DejaVuSans-32_00000072278455500107192380000002777393445402655617_" d="M-531.6,526.7h34.4v-8.3h-46.3v8.3
							c3.7,3.9,8.8,9.1,15.3,15.6s10.5,10.7,12.2,12.6c3.2,3.5,5.4,6.5,6.6,9c1.3,2.5,1.9,4.9,1.9,7.2c0,3.9-1.4,7-4.1,9.5
							c-2.7,2.4-6.3,3.7-10.6,3.7c-3.1,0-6.4-0.5-9.8-1.6c-3.4-1.1-7.1-2.7-11-4.9v10c4,1.6,7.7,2.8,11.1,3.6
							c3.5,0.8,6.6,1.2,9.5,1.2c7.6,0,13.6-1.9,18.1-5.7s6.7-8.8,6.7-15.1c0-3-0.6-5.8-1.7-8.5s-3.2-5.8-6.1-9.5
							c-0.8-0.9-3.4-3.7-7.8-8.2C-517.5,541.1-523.7,534.8-531.6,526.7z"/>
					</g>
					<g>
						<path id="DejaVuSans-2e_00000040572915312736533670000005022246246039430828_" d="M-476.5,530.8h10.3v-12.4h-10.3V530.8z"/>
					</g>
					<g>
						<path id="DejaVuSans-30_00000065072369777073450260000003873260885657280901_" d="M-423.6,584.8c-5.1,0-8.9-2.5-11.5-7.5
							s-3.8-12.5-3.8-22.5s1.3-17.5,3.8-22.5c2.6-5,6.4-7.5,11.5-7.5s8.9,2.5,11.5,7.5s3.8,12.5,3.8,22.5s-1.3,17.5-3.8,22.5
							C-414.7,582.3-418.5,584.8-423.6,584.8z M-423.6,592.6c8.2,0,14.4-3.2,18.7-9.7c4.3-6.5,6.5-15.8,6.5-28.1s-2.2-21.6-6.5-28.1
							s-10.6-9.7-18.7-9.7c-8.2,0-14.4,3.2-18.7,9.7c-4.3,6.5-6.5,15.8-6.5,28.1s2.2,21.7,6.5,28.1
							C-438,589.4-431.8,592.6-423.6,592.6z"/>
					</g>
				</g>
			</g>
		</g>
		<g id="xtick_20">
			<g id="line2d_23">
				<path class="st5" d="M314.8,97.6l4.6,1.2"/>
			</g>
			<g id="text_20">
				<g transform="translate(382.388876 155.054614) scale(0.1 -0.1)">
					<g>
						<path id="DejaVuSans-32_00000116234041695469984320000001488940765168473257_" d="M-531.6,526.7h34.4v-8.3h-46.3v8.3
							c3.7,3.9,8.8,9.1,15.3,15.6s10.5,10.7,12.2,12.6c3.2,3.5,5.4,6.5,6.6,9c1.3,2.5,1.9,4.9,1.9,7.2c0,3.9-1.4,7-4.1,9.5
							c-2.7,2.4-6.3,3.7-10.6,3.7c-3.1,0-6.4-0.5-9.8-1.6c-3.4-1.1-7.1-2.7-11-4.9v10c4,1.6,7.7,2.8,11.1,3.6
							c3.5,0.8,6.6,1.2,9.5,1.2c7.6,0,13.6-1.9,18.1-5.7s6.7-8.8,6.7-15.1c0-3-0.6-5.8-1.7-8.5s-3.2-5.8-6.1-9.5
							c-0.8-0.9-3.4-3.7-7.8-8.2C-517.5,541.1-523.7,534.8-531.6,526.7z"/>
					</g>
					<g>
						<path id="DejaVuSans-2e_00000036957206655259529130000017815728510303267979_" d="M-476.5,530.8h10.3v-12.4h-10.3V530.8z"/>
					</g>
					<g>
						<path id="DejaVuSans-35_00000006689239874739508090000000424345659732123282_" d="M-444.6,591.3h38.7V583h-29.7v-17.9
							c1.4,0.5,2.9,0.9,4.3,1.1c1.4,0.2,2.9,0.4,4.3,0.4c8.1,0,14.6-2.2,19.3-6.7c4.8-4.5,7.1-10.5,7.1-18.1
							c0-7.8-2.4-13.9-7.3-18.3c-4.9-4.3-11.8-6.5-20.7-6.5c-3.1,0-6.2,0.3-9.4,0.8c-3.2,0.5-6.4,1.3-9.8,2.3v9.9
							c2.9-1.6,6-2.8,9.1-3.6s6.4-1.2,9.9-1.2c5.6,0,10.1,1.5,13.4,4.4c3.3,3,4.9,7,4.9,12.1s-1.6,9.1-4.9,12
							c-3.3,3-7.7,4.5-13.4,4.5c-2.6,0-5.3-0.3-7.9-0.9c-2.6-0.6-5.3-1.5-8-2.7v36.7H-444.6z"/>
					</g>
				</g>
			</g>
		</g>
		<g id="xtick_21">
			<g id="line2d_24">
				<path class="st5" d="M315.8,74.9l4.6,1.2"/>
			</g>
			<g id="text_21">
				<g transform="translate(383.56355 132.335286) scale(0.1 -0.1)">
					<g>
						<path id="DejaVuSans-33_00000160161270985447250850000016773278588697325737_" d="M-510.2,557.7c4.7-1,8.4-3.1,11-6.3
							c2.7-3.2,4-7.1,4-11.8c0-7.2-2.5-12.8-7.4-16.7s-12-5.9-21.1-5.9c-3.1,0-6.2,0.3-9.4,0.9c-3.2,0.6-6.6,1.5-10,2.7v9.5
							c2.7-1.6,5.7-2.8,9-3.6s6.7-1.2,10.2-1.2c6.2,0,10.9,1.2,14.1,3.7s4.9,6,4.9,10.6c0,4.3-1.5,7.7-4.5,10.1
							c-3,2.4-7.2,3.6-12.6,3.6h-8.5v8.1h8.9c4.8,0,8.6,1,11.1,2.9s3.9,4.7,3.9,8.4s-1.3,6.6-4,8.6c-2.6,2-6.4,3-11.4,3
							c-2.7,0-5.6-0.3-8.7-0.9c-3.1-0.6-6.5-1.5-10.2-2.7v8.8c3.8,1,7.3,1.8,10.5,2.3c3.3,0.5,6.4,0.8,9.2,0.8
							c7.5,0,13.4-1.7,17.8-5.1c4.4-3.4,6.5-8,6.5-13.8c0-4-1.2-7.5-3.5-10.2S-506,558.8-510.2,557.7z"/>
					</g>
					<g>
						<path id="DejaVuSans-2e_00000166665542502933387540000012616167225695150740_" d="M-476.5,530.8h10.3v-12.4h-10.3V530.8z"/>
					</g>
					<g>
						<path id="DejaVuSans-30_00000031186258685316685320000008871106004565403798_" d="M-423.6,584.8c-5.1,0-8.9-2.5-11.5-7.5
							s-3.8-12.5-3.8-22.5s1.3-17.5,3.8-22.5c2.6-5,6.4-7.5,11.5-7.5s8.9,2.5,11.5,7.5s3.8,12.5,3.8,22.5s-1.3,17.5-3.8,22.5
							C-414.7,582.3-418.5,584.8-423.6,584.8z M-423.6,592.6c8.2,0,14.4-3.2,18.7-9.7c4.3-6.5,6.5-15.8,6.5-28.1s-2.2-21.6-6.5-28.1
							s-10.6-9.7-18.7-9.7c-8.2,0-14.4,3.2-18.7,9.7c-4.3,6.5-6.5,15.8-6.5,28.1s2.2,21.7,6.5,28.1
							C-438,589.4-431.8,592.6-423.6,592.6z"/>
					</g>
				</g>
			</g>
		</g>
	</g>
	<g id="axes_1">
		<g id="line2d_25">
			<g>
				<g>
					<defs>
						<rect id="SVGID_1_" width="332.6" height="332.6"/>
					</defs>
					<clipPath id="SVGID_00000147201306802201196860000010044517485066919817_">
						<use xlink:href="#SVGID_1_"  style="overflow:visible;"/>
					</clipPath>
					
						<path style="clip-path:url(#SVGID_00000147201306802201196860000010044517485066919817_);fill:none;stroke:#000000;stroke-width:1.5;stroke-linejoin:round;" d="
						M158.3,71.8l39.9,123.9"/>
				</g>
			</g>
		</g>
		<g id="Line3DCollection_4">
			<g>
				<g>
					<defs>
						<rect id="SVGID_00000003076932226670977800000018103315219844278942_" width="332.6" height="332.6"/>
					</defs>
					<clipPath id="SVGID_00000095307252851696013020000000676897352341108360_">
						<use xlink:href="#SVGID_00000003076932226670977800000018103315219844278942_"  style="overflow:visible;"/>
					</clipPath>
					
						<path style="clip-path:url(#SVGID_00000095307252851696013020000000676897352341108360_);fill:none;stroke:#0000FF;stroke-width:1.5;stroke-linejoin:round;stroke-dasharray:5.55,2.4;" d="
						M158.3,71.8L30.9,247.1"/>
				</g>
			</g>
			<g>
				<g>
					<defs>
						<rect id="SVGID_00000015343149366606601630000006362656020681928066_" width="332.6" height="332.6"/>
					</defs>
					<clipPath id="SVGID_00000014596384896574687070000011827051789754820013_">
						<use xlink:href="#SVGID_00000015343149366606601630000006362656020681928066_"  style="overflow:visible;"/>
					</clipPath>
					
						<path style="clip-path:url(#SVGID_00000014596384896574687070000011827051789754820013_);fill:none;stroke:#0000FF;stroke-width:1.5;stroke-linejoin:round;stroke-dasharray:5.55,2.4;" d="
						M158.3,71.8L150.4,90"/>
				</g>
			</g>
			<g>
				<g>
					<defs>
						<rect id="SVGID_00000059271091955543335790000002410570738695958920_" width="332.6" height="332.6"/>
					</defs>
					<clipPath id="SVGID_00000178904095283527718040000007104123501772574380_">
						<use xlink:href="#SVGID_00000059271091955543335790000002410570738695958920_"  style="overflow:visible;"/>
					</clipPath>
					
						<path style="clip-path:url(#SVGID_00000178904095283527718040000007104123501772574380_);fill:none;stroke:#0000FF;stroke-width:1.5;stroke-linejoin:round;stroke-dasharray:5.55,2.4;" d="
						M158.3,71.8l-16.8,15.7"/>
				</g>
			</g>
		</g>
		<g id="text_22">
			<g transform="translate(198.635597 123.636635) scale(0.12 -0.12)">
				<g>
					<path id="DejaVuSans-76" d="M-456,486.7h9.5l17.1-45.9l17.1,45.9h9.5l-20.5-54.7h-12.2L-456,486.7z"/>
				</g>
				<g>
					<path id="DejaVuSans-31_00000008134145345474056320000007257153885348788670_" d="M-387.4,440.3h16.1v55.6l-17.5-3.5v9
						l17.4,3.5h9.9v-64.6h16.1V432h-42V440.3z"/>
				</g>
			</g>
		</g>
		<g id="text_23">
			<g transform="translate(286.492273 232.820771) scale(0.12 -0.12)">
				<g>
					<path id="DejaVuSans-76_00000170249365017922411100000013729076089402069689_" d="M-456,511.7h9.5l17.1-45.9l17.1,45.9h9.5
						l-20.5-54.7h-12.2L-456,511.7z"/>
				</g>
				<g>
					<path id="DejaVuSans-32_00000135681821244197755880000017531045042436341397_" d="M-380.6,465.3h34.4V457h-46.3v8.3
						c3.7,3.9,8.8,9.1,15.3,15.6s10.5,10.7,12.2,12.6c3.2,3.5,5.4,6.5,6.6,9c1.3,2.5,1.9,4.9,1.9,7.2c0,3.9-1.4,7-4.1,9.5
						c-2.7,2.4-6.3,3.7-10.6,3.7c-3.1,0-6.4-0.5-9.8-1.6s-7.1-2.7-11-4.9v10c4,1.6,7.7,2.8,11.1,3.6c3.5,0.8,6.6,1.2,9.5,1.2
						c7.6,0,13.6-1.9,18.1-5.7s6.7-8.8,6.7-15.1c0-3-0.6-5.8-1.7-8.5s-3.2-5.8-6.1-9.5c-0.8-0.9-3.4-3.7-7.8-8.2
						C-366.5,479.7-372.7,473.4-380.6,465.3z"/>
				</g>
			</g>
		</g>
		<g id="text_25">
			<g transform="translate(162.801562 45.84) scale(0.12 -0.12)">
				<g>
					<path id="DejaVuSans-44" class="st10" d="M470.6,127.8V71.1h11.9c10.1,0,17.4,2.3,22.1,6.8c4.7,4.6,7,11.8,7,21.6
						s-2.3,16.9-7,21.5c-4.7,4.5-12,6.8-22.1,6.8H470.6z M460.7,135.9H481c14.1,0,24.5-2.9,31.1-8.8c6.6-5.9,9.9-15.1,9.9-27.6
						c0-12.6-3.3-21.8-10-27.7c-6.6-5.9-17-8.8-31-8.8h-20.3V135.9z"/>
				</g>
				<g>
					<path id="DejaVuSans-6f_00000026865118637552114070000017745079632632921735_" class="st10" d="M558.5,111.4
						c-4.8,0-8.6-1.9-11.4-5.6c-2.8-3.8-4.2-8.9-4.2-15.5c0-6.5,1.4-11.7,4.2-15.5s6.6-5.6,11.5-5.6c4.8,0,8.6,1.9,11.4,5.7
						c2.8,3.8,4.2,8.9,4.2,15.4s-1.4,11.6-4.2,15.4C567.1,109.5,563.3,111.4,558.5,111.4z M558.5,119c7.8,0,13.9-2.5,18.4-7.6
						c4.5-5.1,6.7-12.1,6.7-21.1c0-8.9-2.2-16-6.7-21.1s-10.6-7.6-18.4-7.6c-7.8,0-14,2.5-18.4,7.6s-6.7,12.1-6.7,21.1
						s2.2,16,6.7,21.1C544.5,116.4,550.7,119,558.5,119z"/>
				</g>
				<g>
					<path id="DejaVuSans-74" class="st10" d="M607.4,133.2v-15.5h18.5v-7h-18.5V81c0-4.5,0.6-7.3,1.8-8.6c1.2-1.3,3.7-1.9,7.5-1.9
						h9.2V63h-9.2c-6.9,0-11.7,1.3-14.4,3.9c-2.6,2.6-4,7.3-4,14.1v29.7h-6.6v7h6.6v15.5H607.4z"/>
				</g>
				<g>
					<path id="DejaVuSans-20" class="st10" d="M628.3,63"/>
				</g>
				<g>
					<path id="DejaVuSans-50" class="st10" d="M679.8,127.8v-27.4h12.4c4.6,0,8.1,1.2,10.6,3.6s3.8,5.8,3.8,10.2
						c0,4.4-1.3,7.7-3.8,10.1s-6,3.6-10.6,3.6L679.8,127.8L679.8,127.8z M669.9,135.9h22.3c8.2,0,14.4-1.8,18.5-5.5
						c4.2-3.7,6.3-9.1,6.3-16.2c0-7.2-2.1-12.6-6.3-16.3c-4.2-3.7-10.4-5.5-18.5-5.5h-12.4V63h-9.9
						C669.9,63,669.9,135.9,669.9,135.9z"/>
				</g>
				<g>
					<path id="DejaVuSans-72_00000113328639243969357560000015576573967235961227_" class="st10" d="M759.7,109.3
						c-1,0.6-2.1,1-3.3,1.3s-2.5,0.4-3.9,0.4c-5.1,0-9-1.7-11.7-5s-4.1-8-4.1-14.2V63h-9v54.7h9v-8.5c1.9,3.3,4.4,5.8,7.4,7.4
						s6.7,2.4,11,2.4c0.6,0,1.3,0,2-0.1c0.8-0.1,1.6-0.2,2.5-0.4L759.7,109.3z"/>
				</g>
				<g>
					<path id="DejaVuSans-6f_00000035516412169518536810000013654112792598306443_" class="st10" d="M788.1,111.4
						c-4.8,0-8.6-1.9-11.4-5.6c-2.8-3.8-4.2-8.9-4.2-15.5c0-6.5,1.4-11.7,4.2-15.5s6.6-5.6,11.5-5.6c4.8,0,8.6,1.9,11.4,5.7
						c2.8,3.8,4.2,8.9,4.2,15.4s-1.4,11.6-4.2,15.4C796.7,109.5,792.9,111.4,788.1,111.4z M788.1,119c7.8,0,13.9-2.5,18.4-7.6
						c4.5-5.1,6.7-12.1,6.7-21.1c0-8.9-2.2-16-6.7-21.1s-10.6-7.6-18.4-7.6c-7.8,0-14,2.5-18.4,7.6S763,81.3,763,90.3
						s2.2,16,6.7,21.1C774.1,116.4,780.3,119,788.1,119z"/>
				</g>
				<g>
					<path id="DejaVuSans-64" class="st10" d="M864.1,109.4V139h9V63h-9v8.2c-1.9-3.2-4.3-5.7-7.2-7.2c-2.9-1.6-6.3-2.4-10.4-2.4
						c-6.6,0-12,2.6-16.1,7.9c-4.1,5.3-6.2,12.2-6.2,20.8s2.1,15.5,6.2,20.8c4.2,5.3,9.5,7.9,16.1,7.9c4,0,7.5-0.8,10.4-2.4
						C859.8,115,862.2,112.6,864.1,109.4z M833.5,90.3c0-6.6,1.4-11.8,4.1-15.5c2.7-3.8,6.5-5.6,11.2-5.6s8.5,1.9,11.2,5.6
						c2.7,3.8,4.1,8.9,4.1,15.5s-1.4,11.8-4.1,15.5c-2.7,3.8-6.5,5.6-11.2,5.6s-8.5-1.9-11.2-5.6C834.8,102.1,833.5,96.9,833.5,90.3
						z"/>
				</g>
				<g>
					<path id="DejaVuSans-75" class="st10" d="M890.7,84.6v33.1h9V84.9c0-5.2,1-9.1,3-11.7s5.1-3.9,9.1-3.9c4.8,0,8.7,1.5,11.5,4.6
						s4.2,7.3,4.2,12.7v31h9V63h-9v8.4c-2.2-3.3-4.7-5.8-7.6-7.4c-2.9-1.6-6.2-2.4-10-2.4c-6.3,0-11.1,2-14.3,5.9
						C892.3,71.3,890.7,77,890.7,84.6z M913.3,119L913.3,119z"/>
				</g>
				<g>
					<path id="DejaVuSans-63" class="st10" d="M994.3,115.6v-8.4c-2.5,1.4-5.1,2.5-7.6,3.2c-2.6,0.7-5.1,1-7.7,1
						c-5.8,0-10.4-1.8-13.6-5.5c-3.2-3.7-4.8-8.9-4.8-15.5s1.6-11.9,4.8-15.6s7.8-5.5,13.6-5.5c2.6,0,5.2,0.3,7.7,1
						c2.6,0.7,5.1,1.8,7.6,3.2v-8.3c-2.5-1.2-5.1-2-7.8-2.6s-5.5-0.9-8.6-0.9c-8.2,0-14.8,2.6-19.6,7.8c-4.8,5.2-7.3,12.2-7.3,21
						c0,8.9,2.4,15.9,7.3,21c4.9,5.1,11.6,7.7,20.2,7.7c2.8,0,5.5-0.3,8.1-0.9C989.3,117.6,991.8,116.7,994.3,115.6z"/>
				</g>
				<g>
					<path id="DejaVuSans-74_00000044897767273263193880000002952996422453240969_" class="st10" d="M1018.8,133.2v-15.5h18.5v-7
						h-18.5V81c0-4.5,0.6-7.3,1.8-8.6c1.2-1.3,3.7-1.9,7.5-1.9h9.2V63h-9.2c-6.9,0-11.7,1.3-14.4,3.9c-2.6,2.6-4,7.3-4,14.1v29.7
						h-6.6v7h6.6v15.5H1018.8z"/>
				</g>
				<g>
					<path id="DejaVuSans-3a" class="st10" d="M1051.4,75.4h10.3V63h-10.3V75.4z M1051.4,114.7h10.3v-12.4h-10.3V114.7z"/>
				</g>
				<g>
					<path id="DejaVuSans-20_00000067935246052245212450000001543544401508384392_" class="st10" d="M1073.4,63"/>
				</g>
				<g>
					<path id="DejaVuSans-2d" class="st10" d="M1110.1,94.4h26.3v-8h-26.3V94.4z"/>
				</g>
				<g>
					<path id="DejaVuSans-31_00000000907836784335555510000000981761746908382399_" class="st10" d="M1153.7,71.3h16.1v55.6
						l-17.5-3.5v9l17.4,3.5h9.9V71.3h16.1V63h-42V71.3z"/>
				</g>
				<g>
					<path id="DejaVuSans-31_00000088821880806399282850000002860313415703659934_" class="st10" d="M1217.3,71.3h16.1v55.6
						l-17.5-3.5v9l17.4,3.5h9.9V71.3h16.1V63h-42V71.3z"/>
				</g>
				<g>
					<path id="DejaVuSans-2e_00000158025883055595680240000002356928032802282401_" class="st10" d="M1279.2,75.4h10.3V63h-10.3
						V75.4z"/>
				</g>
				<g>
					<path id="DejaVuSans-30_00000174600229704905197960000011029719244268313492_" class="st10" d="M1332.1,129.4
						c-5.1,0-8.9-2.5-11.5-7.5s-3.8-12.5-3.8-22.5s1.3-17.5,3.8-22.5c2.6-5,6.4-7.5,11.5-7.5s8.9,2.5,11.5,7.5s3.8,12.5,3.8,22.5
						s-1.3,17.5-3.8,22.5C1341,126.9,1337.2,129.4,1332.1,129.4z M1332.1,137.2c8.2,0,14.4-3.2,18.7-9.7c4.3-6.5,6.5-15.8,6.5-28.1
						s-2.2-21.6-6.5-28.1s-10.6-9.7-18.7-9.7c-8.2,0-14.4,3.2-18.7,9.7c-4.3,6.5-6.5,15.8-6.5,28.1s2.2,21.7,6.5,28.1
						C1317.7,134,1323.9,137.2,1332.1,137.2z"/>
				</g>
				<g>
					<path id="DejaVuSans-30_00000088132925698672992600000016191529956135668890_" class="st10" d="M1395.7,129.4
						c-5.1,0-8.9-2.5-11.5-7.5s-3.8-12.5-3.8-22.5s1.3-17.5,3.8-22.5c2.6-5,6.4-7.5,11.5-7.5s8.9,2.5,11.5,7.5s3.8,12.5,3.8,22.5
						s-1.3,17.5-3.8,22.5C1404.7,126.9,1400.8,129.4,1395.7,129.4z M1395.7,137.2c8.2,0,14.4-3.2,18.7-9.7
						c4.3-6.5,6.5-15.8,6.5-28.1s-2.2-21.6-6.5-28.1s-10.6-9.7-18.7-9.7c-8.2,0-14.4,3.2-18.7,9.7c-4.3,6.5-6.5,15.8-6.5,28.1
						s2.2,21.7,6.5,28.1C1381.3,134,1387.6,137.2,1395.7,137.2z"/>
				</g>
			</g>
		</g>
		<g id="Line3DCollection_5">
			<g>
				<g>
					<defs>
						<rect id="SVGID_00000010286728281731700240000008097125828308967311_" width="332.6" height="332.6"/>
					</defs>
					<clipPath id="SVGID_00000162326185873356806310000018415379246117546626_">
						<use xlink:href="#SVGID_00000010286728281731700240000008097125828308967311_"  style="overflow:visible;"/>
					</clipPath>
					
						<path style="clip-path:url(#SVGID_00000162326185873356806310000018415379246117546626_);fill:none;stroke:#9800E8;stroke-width:2;stroke-linejoin:round;" d="
						M198.2,195.7l-13.9,8.4"/>
				</g>
			</g>
			<g>
				<g>
					<defs>
						<rect id="SVGID_00000051342064908220116840000016717582320226824365_" width="332.6" height="332.6"/>
					</defs>
					<clipPath id="SVGID_00000022539623513565460410000015039989089953839799_">
						<use xlink:href="#SVGID_00000051342064908220116840000016717582320226824365_"  style="overflow:visible;"/>
					</clipPath>
					
						<path style="clip-path:url(#SVGID_00000022539623513565460410000015039989089953839799_);fill:none;stroke:#9800E8;stroke-width:2;stroke-linejoin:round;" d="
						M198.2,195.7l-19.6,1.9"/>
				</g>
			</g>
		</g>
		<g id="Line3DCollection_6">
			<g>
				<g>
					<defs>
						<rect id="SVGID_00000066508307698762506360000008847428890902271393_" width="332.6" height="332.6"/>
					</defs>
					<clipPath id="SVGID_00000095317846916539785460000003163672644194414513_">
						<use xlink:href="#SVGID_00000066508307698762506360000008847428890902271393_"  style="overflow:visible;"/>
					</clipPath>
					
						<path style="clip-path:url(#SVGID_00000095317846916539785460000003163672644194414513_);fill:none;stroke:#FF0000;stroke-width:1.5;stroke-linejoin:round;stroke-dasharray:5.55,2.4;" d="
						M246.1,181L30.9,247.1"/>
				</g>
			</g>
			<g>
				<g>
					<defs>
						<rect id="SVGID_00000116957491866668504460000002621273940361389746_" width="332.6" height="332.6"/>
					</defs>
					<clipPath id="SVGID_00000021095456071272425420000017450000242172686213_">
						<use xlink:href="#SVGID_00000116957491866668504460000002621273940361389746_"  style="overflow:visible;"/>
					</clipPath>
					
						<path style="clip-path:url(#SVGID_00000021095456071272425420000017450000242172686213_);fill:none;stroke:#FF0000;stroke-width:1.5;stroke-linejoin:round;stroke-dasharray:5.55,2.4;" d="
						M246.1,181L228,191.8"/>
				</g>
			</g>
			<g>
				<g>
					<defs>
						<rect id="SVGID_00000183946246368326241900000008861550865115443873_" width="332.6" height="332.6"/>
					</defs>
					<clipPath id="SVGID_00000005237425384824761980000001619768061375063738_">
						<use xlink:href="#SVGID_00000183946246368326241900000008861550865115443873_"  style="overflow:visible;"/>
					</clipPath>
					
						<path style="clip-path:url(#SVGID_00000005237425384824761980000001619768061375063738_);fill:none;stroke:#FF0000;stroke-width:1.5;stroke-linejoin:round;stroke-dasharray:5.55,2.4;" d="
						M246.1,181l-25.3,2.5"/>
				</g>
			</g>
		</g>
	</g>
</g>
<line class="st16" x1="427" y1="19.8" x2="427" y2="314.5"/>
<g>
	<path d="M404,141.6h16v1.1h-16V141.6z"/>
	<path d="M404,137.8h16v1.1h-16V137.8z"/>
	<path d="M408.3,134.7l4.4-1.5c0.7-0.3,1.3-0.5,2-0.6l0,0c-0.6-0.2-1.3-0.4-2-0.7l-4.4-1.5v-1.5l7.7,3v1.3l-7.7,2.9V134.7z"/>
	<path d="M406.9,124.9L406.9,124.9l1,1.8l-1.1,0.3l-1.2-2.3v-1.2H416v1.4C416,124.9,406.9,124.9,406.9,124.9z"/>
	<path d="M404,118.1h16v1.1h-16V118.1z"/>
	<path d="M404,114.2h16v1.1h-16V114.2z"/>
	<path d="M415.7,106.2c0.2,0.4,0.4,1.2,0.4,2.2c0,2.3-1.6,3.9-4,3.9s-4.1-1.6-4.1-4.2c0-0.8,0.2-1.6,0.4-2l1.1,0.3
		c-0.2,0.3-0.4,0.9-0.4,1.6c0,1.8,1.3,2.7,2.9,2.7c1.8,0,2.9-1.2,2.9-2.7c0-0.8-0.2-1.3-0.4-1.7L415.7,106.2z"/>
	<path d="M412.1,97.6c2.9,0,4.1,2,4.1,3.9c0,2.1-1.5,3.7-4,3.7c-2.6,0-4.1-1.7-4.1-3.8C408.1,99.1,409.7,97.6,412.1,97.6z
		 M412.2,103.8c1.7,0,3-1,3-2.4c0-1.3-1.3-2.4-3-2.4c-1.3,0-3,0.7-3,2.3C409.2,103,410.7,103.8,412.2,103.8z"/>
	<path d="M414.6,96c0.3-0.4,0.6-1.2,0.6-1.9c0-1-0.5-1.5-1.2-1.5s-1,0.4-1.4,1.4c-0.5,1.4-1.3,2-2.2,2c-1.2,0-2.3-1-2.3-2.7
		c0-0.8,0.2-1.5,0.5-1.9l1,0.4c-0.2,0.3-0.4,0.9-0.4,1.6c0,0.8,0.5,1.3,1.1,1.3s0.9-0.5,1.3-1.5c0.5-1.3,1.2-2,2.3-2
		c1.4,0,2.3,1.1,2.3,2.9c0,0.8-0.2,1.6-0.5,2.2L414.6,96z"/>
	<path d="M410.2,90.1c-3.3,0-5.8-1.3-5.8-3.7c0-2.5,2.3-3.6,5.8-3.6c3.6,0,6,1.2,6,3.6C416.2,88.7,414.2,90.1,410.2,90.1z
		 M409.6,84.1c-2.3,0-4.1,0.7-4.1,2.3c0,1.4,1.9,2.3,4.1,2.3V84.1z M410.7,88.7c2.8,0,4.5-1,4.5-2.3c0-1.5-1.9-2.2-4.5-2.2V88.7z"/>
</g>
<rect x="388.7" y="15.2" class="st17" width="35.1" height="21"/>
<text transform="matrix(1 0 0 1 388.7428 26.5903)" class="st18 st19">||v1||</text>
<rect x="385.4" y="301.4" class="st17" width="38.5" height="21"/>
<text transform="matrix(1 0 0 1 385.3512 312.7224)" class="st18 st19">-||v1||</text>
<rect x="545.9" y="206.5" class="st17" width="42.8" height="22.3"/>
<text transform="matrix(1 0 0 1 545.9297 217.8312)" class="st18 st19">||v2||</text>
<g>
	<g>
		<line class="st20" x1="427" y1="32.7" x2="426.9" y2="195.7"/>
		<g>
			<polygon class="st21" points="419.6,38.3 427,35.2 434.4,38.3 427,20.8 			"/>
		</g>
	</g>
</g>
<g>
	<g>
		<line class="st22" x1="640.1" y1="195.6" x2="426.9" y2="196.5"/>
		<g>
			<polygon class="st23" points="634.4,188.2 637.6,195.6 634.5,203 652,195.5 			"/>
		</g>
	</g>
</g>
<path class="st24" d="M76.5,186.7c22.5,7.5,30.3,20.9,23.7,40.1"/>
<rect x="77.7" y="201.5" class="st17" width="17.6" height="21.9"/>
<text transform="matrix(1 0 0 1 77.6718 217.1662)" class="st18 st25">θ</text>
<g>
	<path d="M114.1,227.6l4.5,15.3l-1,0.3l-4.5-15.3L114.1,227.6z"/>
	<path d="M117.7,226.5l4.5,15.3l-1,0.3l-4.5-15.3L117.7,226.5z"/>
	<path d="M121.9,229.7l2.7,3.7c0.4,0.6,0.8,1.2,1.2,1.7l0,0c0-0.7,0-1.3,0.1-2.1l0.2-4.6l1.4-0.4l-0.7,8.3l-1.3,0.4l-5-6.6
		L121.9,229.7z"/>
	<path d="M130.9,225.6L130.9,225.6l-1.5,1.5l-0.6-1l1.8-1.8l1.2-0.3l3,10l-1.3,0.4L130.9,225.6z"/>
	<path d="M136.7,220.9l4.5,15.3l-1,0.3l-4.5-15.3L136.7,220.9z"/>
	<path d="M140.3,219.8l4.5,15.3l-1,0.3l-4.5-15.3L140.3,219.8z"/>
	<path d="M151.4,228.7c-0.3,0.3-1,0.8-2,1.1c-2.2,0.7-4.1-0.4-4.8-2.7s0.4-4.4,2.8-5.1c0.8-0.2,1.6-0.2,2-0.2v1.1
		c-0.4-0.1-0.9-0.1-1.7,0.1c-1.7,0.5-2.3,2-1.8,3.6c0.5,1.7,1.9,2.5,3.4,2c0.8-0.2,1.2-0.6,1.5-0.9L151.4,228.7z"/>
	<path d="M158.6,222.8c0.8,2.7-0.7,4.5-2.5,5c-2,0.6-4-0.4-4.7-2.8c-0.7-2.5,0.5-4.4,2.5-5C156,219.4,157.9,220.5,158.6,222.8z
		 M152.7,224.6c0.5,1.6,1.8,2.6,3.1,2.2c1.3-0.4,1.9-1.9,1.4-3.6c-0.4-1.3-1.5-2.7-3.1-2.2C152.5,221.5,152.3,223.2,152.7,224.6z"/>
	<path d="M160.8,224.8c0.5,0.1,1.3,0.2,1.9,0c1-0.3,1.3-0.9,1.1-1.5s-0.7-0.9-1.8-1c-1.5-0.1-2.3-0.6-2.6-1.5
		c-0.4-1.2,0.3-2.5,1.9-2.9c0.8-0.2,1.5-0.2,2-0.1v1.1c-0.3-0.1-1-0.2-1.6,0c-0.8,0.2-1.1,0.8-0.9,1.4c0.2,0.6,0.7,0.8,1.8,0.8
		c1.4,0.1,2.3,0.6,2.6,1.7c0.4,1.3-0.4,2.5-2.1,3c-0.8,0.2-1.6,0.3-2.2,0.1L160.8,224.8z"/>
	<path d="M165.3,218.9c-0.9-3.1-0.4-5.9,2-6.6c2.4-0.7,4.1,1.2,5.1,4.5c1,3.5,0.6,6-1.8,6.7C168.3,224.2,166.4,222.7,165.3,218.9z
		 M170.8,216.6c-0.7-2.2-1.9-3.7-3.4-3.3c-1.4,0.4-1.6,2.5-1,4.6L170.8,216.6z M166.7,218.9c0.8,2.7,2.2,4,3.5,3.6
		c1.4-0.4,1.6-2.4,0.9-4.9L166.7,218.9z"/>
</g>
<path class="st20" d="M198.2,195.7L30.9,247.1"/>
<rect x="513" y="92" class="st17" width="44.3" height="27"/>
<text transform="matrix(1 0 0 1 513.0264 111.4912)" class="st26 st18 st27">11.0</text>
<line class="st17" x1="427" y1="12.8" x2="416.3" y2="12.8"/>
</svg>
