<?xml version="1.0" encoding="utf-8"?>
<!-- Generator: Adobe Illustrator 27.2.0, SVG Export Plug-In . SVG Version: 6.00 Build 0)  -->
<svg version="1.1" id="Layer_1" xmlns="http://www.w3.org/2000/svg" xmlns:xlink="http://www.w3.org/1999/xlink" x="0px" y="0px"
	 viewBox="0 0 343.7 334.8" style="enable-background:new 0 0 343.7 334.8;" xml:space="preserve">
<style type="text/css">
	.st0{fill:#FFFFFF;}
	.st1{opacity:0.5;fill:#F2F2F2;stroke:#F2F2F2;enable-background:new    ;}
	.st2{opacity:0.5;fill:#E6E6E6;stroke:#E6E6E6;enable-background:new    ;}
	.st3{opacity:0.5;fill:#ECECEC;stroke:#ECECEC;enable-background:new    ;}
	.st4{fill:none;stroke:#B0B0B0;stroke-width:0.8;stroke-linejoin:round;}
	.st5{fill:none;stroke:#000000;stroke-width:0.8;stroke-linecap:square;stroke-linejoin:round;}
	
		.st6{clip-path:url(#SVGID_00000049182096393160879790000017456739814097850523_);fill:none;stroke:#008000;stroke-width:3;stroke-linecap:square;stroke-linejoin:round;}
	
		.st7{clip-path:url(#SVGID_00000077290095092031190710000010615445309482823046_);fill:none;stroke:#0000FF;stroke-width:1.5;stroke-linejoin:round;stroke-dasharray:5.55,2.4;}
	
		.st8{clip-path:url(#SVGID_00000004531400024933929020000003656598904172874139_);fill:none;stroke:#0000FF;stroke-width:1.5;stroke-linejoin:round;stroke-dasharray:5.55,2.4;}
	
		.st9{clip-path:url(#SVGID_00000174572161169045981380000013749763829080763307_);fill:none;stroke:#0000FF;stroke-width:1.5;stroke-linejoin:round;stroke-dasharray:5.55,2.4;}
	.st10{fill:#008000;}
	
		.st11{clip-path:url(#SVGID_00000113319815170129153360000005682729816242080642_);fill:none;stroke:#FF0000;stroke-width:1.5;stroke-linejoin:round;stroke-dasharray:5.55,2.4;}
	
		.st12{clip-path:url(#SVGID_00000101096791212643476930000011509897966038079373_);fill:none;stroke:#FF0000;stroke-width:1.5;stroke-linejoin:round;stroke-dasharray:5.55,2.4;}
	
		.st13{clip-path:url(#SVGID_00000143584009236069570280000013529427443478427279_);fill:none;stroke:#FF0000;stroke-width:1.5;stroke-linejoin:round;stroke-dasharray:5.55,2.4;}
</style>
<g id="figure_1">
	<g id="patch_2">
		<path class="st0" d="M0,332.6h332.6V0H0V332.6z"/>
	</g>
	<g id="pane3d_1">
		<g id="patch_3">
			<path class="st1" d="M25.1,250.6L135,158.5l-1.5-132.8l-115.1,84"/>
		</g>
	</g>
	<g id="pane3d_2">
		<g id="patch_4">
			<path class="st2" d="M135,158.5l176.3,51.2l6.3-137.4L133.4,25.8"/>
		</g>
	</g>
	<g id="pane3d_3">
		<g id="patch_5">
			<path class="st3" d="M25.1,250.6l186.9,61l99.3-101.9L135,158.5"/>
		</g>
	</g>
	<g id="grid3d_1">
		<g id="Line3DCollection_1">
			<path class="st4" d="M28.7,251.8l109.7-92.3l-1.4-132.9"/>
			<path class="st4" d="M57.3,261.1l108.1-93.7l-0.2-133.6"/>
			<path class="st4" d="M86.5,270.7L193,175.4l1-134.3"/>
			<path class="st4" d="M116.1,280.3L221,183.5l2.2-135"/>
			<path class="st4" d="M146.2,290.2l103.2-98.4L252.8,56"/>
			<path class="st4" d="M176.9,300.2l101.4-100L283,63.7"/>
			<path class="st4" d="M208,310.4l99.5-101.7l6.1-137.3"/>
		</g>
	</g>
	<g id="grid3d_2">
		<g id="Line3DCollection_2">
			<path class="st4" d="M20.8,107.9l6.7,140.7l186.6,60.8"/>
			<path class="st4" d="M40.6,93.5l5.7,139.4l184.9,59.1"/>
			<path class="st4" d="M59.8,79.5l4.8,138l183.1,57.4"/>
			<path class="st4" d="M78.4,65.9l3.9,136.7l181.4,55.8"/>
			<path class="st4" d="M96.6,52.7l3.1,135.5l179.8,54.3"/>
			<path class="st4" d="M114.2,39.8l2.3,134.2l178.1,52.8"/>
			<path class="st4" d="M131.3,27.3l1.6,132.9l176.5,51.4"/>
		</g>
	</g>
	<g id="grid3d_3">
		<g id="Line3DCollection_3">
			<path class="st4" d="M311.4,207.1L134.9,156L25,247.9"/>
			<path class="st4" d="M312.3,185.9l-177.6-50.5L23.9,226.2"/>
			<path class="st4" d="M313.3,164.4l-178.9-49.8L22.9,204.2"/>
			<path class="st4" d="M314.3,142.6L134.2,93.5L21.8,181.8"/>
			<path class="st4" d="M315.3,120.5L134,72.2L20.7,159.1"/>
			<path class="st4" d="M316.3,98L133.7,50.5L19.6,136.1"/>
			<path class="st4" d="M317.4,75.3L133.5,28.5l-115,84.2"/>
		</g>
	</g>
	<g id="axis3d_1">
		<g id="line2d_1">
			<path class="st5" d="M25.1,250.6l186.9,61"/>
		</g>
		<g id="xtick_1">
			<g id="line2d_2">
				<path class="st5" d="M29.6,251l-2.9,2.4"/>
			</g>
			<g id="text_1">
				<g transform="translate(68.264213 326.87527) scale(0.1 -0.1)">
					<g>
						<path id="DejaVuSans-30" d="M-519,584.8c-5.1,0-8.9-2.5-11.5-7.5c-2.6-5-3.8-12.5-3.8-22.5c0-10,1.3-17.5,3.8-22.5
							c2.6-5,6.4-7.5,11.5-7.5c5.1,0,8.9,2.5,11.5,7.5c2.6,5,3.8,12.5,3.8,22.5c0,10-1.3,17.5-3.8,22.5
							C-510.1,582.3-513.9,584.8-519,584.8z M-519,592.6c8.2,0,14.4-3.2,18.7-9.7c4.3-6.5,6.5-15.8,6.5-28.1
							c0-12.3-2.2-21.6-6.5-28.1c-4.3-6.5-10.6-9.7-18.7-9.7c-8.2,0-14.4,3.2-18.7,9.7c-4.3,6.5-6.5,15.8-6.5,28.1
							c0,12.3,2.2,21.7,6.5,28.1C-533.4,589.4-527.2,592.6-519,592.6z"/>
					</g>
					<g>
						<path id="DejaVuSans-2e" d="M-476.5,530.8h10.3v-12.4h-10.3V530.8z"/>
					</g>
					<g>
						<path id="DejaVuSans-30_00000102545329889874578280000009827466093137916811_" d="M-423.6,584.8c-5.1,0-8.9-2.5-11.5-7.5
							c-2.6-5-3.8-12.5-3.8-22.5c0-10,1.3-17.5,3.8-22.5c2.6-5,6.4-7.5,11.5-7.5c5.1,0,8.9,2.5,11.5,7.5c2.6,5,3.8,12.5,3.8,22.5
							c0,10-1.3,17.5-3.8,22.5C-414.7,582.3-418.5,584.8-423.6,584.8z M-423.6,592.6c8.2,0,14.4-3.2,18.7-9.7
							c4.3-6.5,6.5-15.8,6.5-28.1c0-12.3-2.2-21.6-6.5-28.1c-4.3-6.5-10.6-9.7-18.7-9.7c-8.2,0-14.4,3.2-18.7,9.7
							c-4.3,6.5-6.5,15.8-6.5,28.1c0,12.3,2.2,21.7,6.5,28.1C-438,589.4-431.8,592.6-423.6,592.6z"/>
					</g>
				</g>
			</g>
		</g>
		<g id="xtick_2">
			<g id="line2d_3">
				<path class="st5" d="M58.3,260.3l-2.8,2.5"/>
			</g>
			<g id="text_2">
				<g transform="translate(96.941927 336.392149) scale(0.1 -0.1)">
					<g>
						<path id="DejaVuSans-30_00000124129243051867302710000009802343425303380667_" d="M-519,584.8c-5.1,0-8.9-2.5-11.5-7.5
							c-2.6-5-3.8-12.5-3.8-22.5c0-10,1.3-17.5,3.8-22.5c2.6-5,6.4-7.5,11.5-7.5c5.1,0,8.9,2.5,11.5,7.5c2.6,5,3.8,12.5,3.8,22.5
							c0,10-1.3,17.5-3.8,22.5C-510.1,582.3-513.9,584.8-519,584.8z M-519,592.6c8.2,0,14.4-3.2,18.7-9.7c4.3-6.5,6.5-15.8,6.5-28.1
							c0-12.3-2.2-21.6-6.5-28.1c-4.3-6.5-10.6-9.7-18.7-9.7c-8.2,0-14.4,3.2-18.7,9.7c-4.3,6.5-6.5,15.8-6.5,28.1
							c0,12.3,2.2,21.7,6.5,28.1C-533.4,589.4-527.2,592.6-519,592.6z"/>
					</g>
					<g>
						<path id="DejaVuSans-2e_00000033368929801223234710000010226227352090212016_" d="M-476.5,530.8h10.3v-12.4h-10.3V530.8z"/>
					</g>
					<g>
						<path id="DejaVuSans-35" d="M-444.6,591.3h38.7V583h-29.7v-17.9c1.4,0.5,2.9,0.9,4.3,1.1c1.4,0.2,2.9,0.4,4.3,0.4
							c8.1,0,14.6-2.2,19.3-6.7c4.8-4.5,7.1-10.5,7.1-18.1c0-7.8-2.4-13.9-7.3-18.3c-4.9-4.3-11.8-6.5-20.7-6.5
							c-3.1,0-6.2,0.3-9.4,0.8c-3.2,0.5-6.4,1.3-9.8,2.3v9.9c2.9-1.6,6-2.8,9.1-3.6s6.4-1.2,9.9-1.2c5.6,0,10.1,1.5,13.4,4.4
							c3.3,3,4.9,7,4.9,12.1c0,5.1-1.6,9.1-4.9,12c-3.3,3-7.7,4.5-13.4,4.5c-2.6,0-5.3-0.3-7.9-0.9c-2.6-0.6-5.3-1.5-8-2.7V591.3z"
							/>
					</g>
				</g>
			</g>
		</g>
		<g id="xtick_3">
			<g id="line2d_4">
				<path class="st5" d="M87.4,269.8l-2.8,2.5"/>
			</g>
			<g id="text_3">
				<g transform="translate(126.1009 346.068737) scale(0.1 -0.1)">
					<g>
						<path id="DejaVuSans-31" d="M-538.4,526.7h16.1v55.6l-17.5-3.5v9l17.4,3.5h9.9v-64.6h16.1v-8.3h-42V526.7z"/>
					</g>
					<g>
						<path id="DejaVuSans-2e_00000169527220187902362460000017392325440562964392_" d="M-476.5,530.8h10.3v-12.4h-10.3V530.8z"/>
					</g>
					<g>
						<path id="DejaVuSans-30_00000116957940851749972130000007060029849095025306_" d="M-423.6,584.8c-5.1,0-8.9-2.5-11.5-7.5
							c-2.6-5-3.8-12.5-3.8-22.5c0-10,1.3-17.5,3.8-22.5c2.6-5,6.4-7.5,11.5-7.5c5.1,0,8.9,2.5,11.5,7.5c2.6,5,3.8,12.5,3.8,22.5
							c0,10-1.3,17.5-3.8,22.5C-414.7,582.3-418.5,584.8-423.6,584.8z M-423.6,592.6c8.2,0,14.4-3.2,18.7-9.7
							c4.3-6.5,6.5-15.8,6.5-28.1c0-12.3-2.2-21.6-6.5-28.1c-4.3-6.5-10.6-9.7-18.7-9.7c-8.2,0-14.4,3.2-18.7,9.7
							c-4.3,6.5-6.5,15.8-6.5,28.1c0,12.3,2.2,21.7,6.5,28.1C-438,589.4-431.8,592.6-423.6,592.6z"/>
					</g>
				</g>
			</g>
		</g>
		<g id="xtick_4">
			<g id="line2d_5">
				<path class="st5" d="M117,279.5l-2.7,2.5"/>
			</g>
			<g id="text_4">
				<g transform="translate(155.753349 355.909087) scale(0.1 -0.1)">
					<g>
						<path id="DejaVuSans-31_00000159449675497173667630000014313031834972013497_" d="M-538.4,526.7h16.1v55.6l-17.5-3.5v9
							l17.4,3.5h9.9v-64.6h16.1v-8.3h-42V526.7z"/>
					</g>
					<g>
						<path id="DejaVuSans-2e_00000182513166260100542200000000152267706932006800_" d="M-476.5,530.8h10.3v-12.4h-10.3V530.8z"/>
					</g>
					<g>
						<path id="DejaVuSans-35_00000103987494239796412940000007326245670386013844_" d="M-444.6,591.3h38.7V583h-29.7v-17.9
							c1.4,0.5,2.9,0.9,4.3,1.1c1.4,0.2,2.9,0.4,4.3,0.4c8.1,0,14.6-2.2,19.3-6.7c4.8-4.5,7.1-10.5,7.1-18.1
							c0-7.8-2.4-13.9-7.3-18.3c-4.9-4.3-11.8-6.5-20.7-6.5c-3.1,0-6.2,0.3-9.4,0.8c-3.2,0.5-6.4,1.3-9.8,2.3v9.9
							c2.9-1.6,6-2.8,9.1-3.6s6.4-1.2,9.9-1.2c5.6,0,10.1,1.5,13.4,4.4c3.3,3,4.9,7,4.9,12.1c0,5.1-1.6,9.1-4.9,12
							c-3.3,3-7.7,4.5-13.4,4.5c-2.6,0-5.3-0.3-7.9-0.9c-2.6-0.6-5.3-1.5-8-2.7V591.3z"/>
					</g>
				</g>
			</g>
		</g>
		<g id="xtick_5">
			<g id="line2d_6">
				<path class="st5" d="M147.1,289.3l-2.7,2.6"/>
			</g>
			<g id="text_5">
				<g transform="translate(185.911907 365.917394) scale(0.1 -0.1)">
					<g>
						<path id="DejaVuSans-32" d="M-531.6,526.7h34.4v-8.3h-46.3v8.3c3.7,3.9,8.8,9.1,15.3,15.6c6.5,6.5,10.5,10.7,12.2,12.6
							c3.2,3.5,5.4,6.5,6.6,9c1.3,2.5,1.9,4.9,1.9,7.2c0,3.9-1.4,7-4.1,9.5c-2.7,2.4-6.3,3.7-10.6,3.7c-3.1,0-6.4-0.5-9.8-1.6
							c-3.4-1.1-7.1-2.7-11-4.9v10c4,1.6,7.7,2.8,11.1,3.6c3.5,0.8,6.6,1.2,9.5,1.2c7.6,0,13.6-1.9,18.1-5.7
							c4.5-3.8,6.7-8.8,6.7-15.1c0-3-0.6-5.8-1.7-8.5c-1.1-2.7-3.2-5.8-6.1-9.5c-0.8-0.9-3.4-3.7-7.8-8.2
							C-517.5,541.1-523.7,534.8-531.6,526.7z"/>
					</g>
					<g>
						<path id="DejaVuSans-2e_00000060751053796219927870000011129970600267074982_" d="M-476.5,530.8h10.3v-12.4h-10.3V530.8z"/>
					</g>
					<g>
						<path id="DejaVuSans-30_00000028296021127207448240000016860002149893270184_" d="M-423.6,584.8c-5.1,0-8.9-2.5-11.5-7.5
							c-2.6-5-3.8-12.5-3.8-22.5c0-10,1.3-17.5,3.8-22.5c2.6-5,6.4-7.5,11.5-7.5c5.1,0,8.9,2.5,11.5,7.5c2.6,5,3.8,12.5,3.8,22.5
							c0,10-1.3,17.5-3.8,22.5C-414.7,582.3-418.5,584.8-423.6,584.8z M-423.6,592.6c8.2,0,14.4-3.2,18.7-9.7
							c4.3-6.5,6.5-15.8,6.5-28.1c0-12.3-2.2-21.6-6.5-28.1c-4.3-6.5-10.6-9.7-18.7-9.7c-8.2,0-14.4,3.2-18.7,9.7
							c-4.3,6.5-6.5,15.8-6.5,28.1c0,12.3,2.2,21.7,6.5,28.1C-438,589.4-431.8,592.6-423.6,592.6z"/>
					</g>
				</g>
			</g>
		</g>
		<g id="xtick_6">
			<g id="line2d_7">
				<path class="st5" d="M177.7,299.3l-2.7,2.6"/>
			</g>
			<g id="text_6">
				<g transform="translate(216.589644 376.097993) scale(0.1 -0.1)">
					<g>
						<path id="DejaVuSans-32_00000106145087800174685480000004170534719851653543_" d="M-531.6,526.7h34.4v-8.3h-46.3v8.3
							c3.7,3.9,8.8,9.1,15.3,15.6c6.5,6.5,10.5,10.7,12.2,12.6c3.2,3.5,5.4,6.5,6.6,9c1.3,2.5,1.9,4.9,1.9,7.2c0,3.9-1.4,7-4.1,9.5
							c-2.7,2.4-6.3,3.7-10.6,3.7c-3.1,0-6.4-0.5-9.8-1.6c-3.4-1.1-7.1-2.7-11-4.9v10c4,1.6,7.7,2.8,11.1,3.6
							c3.5,0.8,6.6,1.2,9.5,1.2c7.6,0,13.6-1.9,18.1-5.7c4.5-3.8,6.7-8.8,6.7-15.1c0-3-0.6-5.8-1.7-8.5c-1.1-2.7-3.2-5.8-6.1-9.5
							c-0.8-0.9-3.4-3.7-7.8-8.2C-517.5,541.1-523.7,534.8-531.6,526.7z"/>
					</g>
					<g>
						<path id="DejaVuSans-2e_00000142891046045755642010000001304191841384617897_" d="M-476.5,530.8h10.3v-12.4h-10.3V530.8z"/>
					</g>
					<g>
						<path id="DejaVuSans-35_00000113326825675922547130000000556966987574818711_" d="M-444.6,591.3h38.7V583h-29.7v-17.9
							c1.4,0.5,2.9,0.9,4.3,1.1c1.4,0.2,2.9,0.4,4.3,0.4c8.1,0,14.6-2.2,19.3-6.7c4.8-4.5,7.1-10.5,7.1-18.1
							c0-7.8-2.4-13.9-7.3-18.3c-4.9-4.3-11.8-6.5-20.7-6.5c-3.1,0-6.2,0.3-9.4,0.8c-3.2,0.5-6.4,1.3-9.8,2.3v9.9
							c2.9-1.6,6-2.8,9.1-3.6s6.4-1.2,9.9-1.2c5.6,0,10.1,1.5,13.4,4.4c3.3,3,4.9,7,4.9,12.1c0,5.1-1.6,9.1-4.9,12
							c-3.3,3-7.7,4.5-13.4,4.5c-2.6,0-5.3-0.3-7.9-0.9c-2.6-0.6-5.3-1.5-8-2.7V591.3z"/>
					</g>
				</g>
			</g>
		</g>
		<g id="xtick_7">
			<g id="line2d_8">
				<path class="st5" d="M208.9,309.5l-2.6,2.7"/>
			</g>
			<g id="text_7">
				<g transform="translate(247.800082 386.455372) scale(0.1 -0.1)">
					<g>
						<path id="DejaVuSans-33" d="M-510.2,557.7c4.7-1,8.4-3.1,11-6.3c2.7-3.2,4-7.1,4-11.8c0-7.2-2.5-12.8-7.4-16.7
							c-4.9-3.9-12-5.9-21.1-5.9c-3.1,0-6.2,0.3-9.4,0.9c-3.2,0.6-6.6,1.5-10,2.7v9.5c2.7-1.6,5.7-2.8,9-3.6
							c3.3-0.8,6.7-1.2,10.2-1.2c6.2,0,10.9,1.2,14.1,3.7s4.9,6,4.9,10.6c0,4.3-1.5,7.7-4.5,10.1c-3,2.4-7.2,3.6-12.6,3.6h-8.5v8.1
							h8.9c4.8,0,8.6,1,11.1,2.9c2.6,1.9,3.9,4.7,3.9,8.4c0,3.7-1.3,6.6-4,8.6c-2.6,2-6.4,3-11.4,3c-2.7,0-5.6-0.3-8.7-0.9
							c-3.1-0.6-6.5-1.5-10.2-2.7v8.8c3.8,1,7.3,1.8,10.5,2.3c3.3,0.5,6.4,0.8,9.2,0.8c7.5,0,13.4-1.7,17.8-5.1
							c4.4-3.4,6.5-8,6.5-13.8c0-4-1.2-7.5-3.5-10.2S-506,558.8-510.2,557.7z"/>
					</g>
					<g>
						<path id="DejaVuSans-2e_00000044166029234369451940000014416718247254788760_" d="M-476.5,530.8h10.3v-12.4h-10.3V530.8z"/>
					</g>
					<g>
						<path id="DejaVuSans-30_00000134210106172961190420000009286596170356683960_" d="M-423.6,584.8c-5.1,0-8.9-2.5-11.5-7.5
							c-2.6-5-3.8-12.5-3.8-22.5c0-10,1.3-17.5,3.8-22.5c2.6-5,6.4-7.5,11.5-7.5c5.1,0,8.9,2.5,11.5,7.5c2.6,5,3.8,12.5,3.8,22.5
							c0,10-1.3,17.5-3.8,22.5C-414.7,582.3-418.5,584.8-423.6,584.8z M-423.6,592.6c8.2,0,14.4-3.2,18.7-9.7
							c4.3-6.5,6.5-15.8,6.5-28.1c0-12.3-2.2-21.6-6.5-28.1c-4.3-6.5-10.6-9.7-18.7-9.7c-8.2,0-14.4,3.2-18.7,9.7
							c-4.3,6.5-6.5,15.8-6.5,28.1c0,12.3,2.2,21.7,6.5,28.1C-438,589.4-431.8,592.6-423.6,592.6z"/>
					</g>
				</g>
			</g>
		</g>
	</g>
	<g id="axis3d_2">
		<g id="line2d_9">
			<path class="st5" d="M311.2,209.8L212,311.6"/>
		</g>
		<g id="xtick_8">
			<g id="line2d_10">
				<path class="st5" d="M212.6,308.9l4.7,1.5"/>
			</g>
			<g id="text_8">
				<g transform="translate(274.19442 382.340642) scale(0.1 -0.1)">
					<g>
						<path id="DejaVuSans-30_00000068664637564281375070000011342178110842302357_" d="M-519,584.8c-5.1,0-8.9-2.5-11.5-7.5
							c-2.6-5-3.8-12.5-3.8-22.5c0-10,1.3-17.5,3.8-22.5c2.6-5,6.4-7.5,11.5-7.5c5.1,0,8.9,2.5,11.5,7.5c2.6,5,3.8,12.5,3.8,22.5
							c0,10-1.3,17.5-3.8,22.5C-510.1,582.3-513.9,584.8-519,584.8z M-519,592.6c8.2,0,14.4-3.2,18.7-9.7c4.3-6.5,6.5-15.8,6.5-28.1
							c0-12.3-2.2-21.6-6.5-28.1c-4.3-6.5-10.6-9.7-18.7-9.7c-8.2,0-14.4,3.2-18.7,9.7c-4.3,6.5-6.5,15.8-6.5,28.1
							c0,12.3,2.2,21.7,6.5,28.1C-533.4,589.4-527.2,592.6-519,592.6z"/>
					</g>
					<g>
						<path id="DejaVuSans-2e_00000093178497457499353480000016237808794405400253_" d="M-476.5,530.8h10.3v-12.4h-10.3V530.8z"/>
					</g>
					<g>
						<path id="DejaVuSans-30_00000047032130185299875740000017953217343206570390_" d="M-423.6,584.8c-5.1,0-8.9-2.5-11.5-7.5
							c-2.6-5-3.8-12.5-3.8-22.5c0-10,1.3-17.5,3.8-22.5c2.6-5,6.4-7.5,11.5-7.5c5.1,0,8.9,2.5,11.5,7.5c2.6,5,3.8,12.5,3.8,22.5
							c0,10-1.3,17.5-3.8,22.5C-414.7,582.3-418.5,584.8-423.6,584.8z M-423.6,592.6c8.2,0,14.4-3.2,18.7-9.7
							c4.3-6.5,6.5-15.8,6.5-28.1c0-12.3-2.2-21.6-6.5-28.1c-4.3-6.5-10.6-9.7-18.7-9.7c-8.2,0-14.4,3.2-18.7,9.7
							c-4.3,6.5-6.5,15.8-6.5,28.1c0,12.3,2.2,21.7,6.5,28.1C-438,589.4-431.8,592.6-423.6,592.6z"/>
					</g>
				</g>
			</g>
		</g>
		<g id="xtick_9">
			<g id="line2d_11">
				<path class="st5" d="M229.6,291.4l4.7,1.5"/>
			</g>
			<g id="text_9">
				<g transform="translate(291.063107 364.634282) scale(0.1 -0.1)">
					<g>
						<path id="DejaVuSans-30_00000086689571815906848150000001564947040207142816_" d="M-519,584.8c-5.1,0-8.9-2.5-11.5-7.5
							c-2.6-5-3.8-12.5-3.8-22.5c0-10,1.3-17.5,3.8-22.5c2.6-5,6.4-7.5,11.5-7.5c5.1,0,8.9,2.5,11.5,7.5c2.6,5,3.8,12.5,3.8,22.5
							c0,10-1.3,17.5-3.8,22.5C-510.1,582.3-513.9,584.8-519,584.8z M-519,592.6c8.2,0,14.4-3.2,18.7-9.7c4.3-6.5,6.5-15.8,6.5-28.1
							c0-12.3-2.2-21.6-6.5-28.1c-4.3-6.5-10.6-9.7-18.7-9.7c-8.2,0-14.4,3.2-18.7,9.7c-4.3,6.5-6.5,15.8-6.5,28.1
							c0,12.3,2.2,21.7,6.5,28.1C-533.4,589.4-527.2,592.6-519,592.6z"/>
					</g>
					<g>
						<path id="DejaVuSans-2e_00000125584784267260544960000012897346424833462969_" d="M-476.5,530.8h10.3v-12.4h-10.3V530.8z"/>
					</g>
					<g>
						<path id="DejaVuSans-35_00000121988682917353029250000018003013118208302241_" d="M-444.6,591.3h38.7V583h-29.7v-17.9
							c1.4,0.5,2.9,0.9,4.3,1.1c1.4,0.2,2.9,0.4,4.3,0.4c8.1,0,14.6-2.2,19.3-6.7c4.8-4.5,7.1-10.5,7.1-18.1
							c0-7.8-2.4-13.9-7.3-18.3c-4.9-4.3-11.8-6.5-20.7-6.5c-3.1,0-6.2,0.3-9.4,0.8c-3.2,0.5-6.4,1.3-9.8,2.3v9.9
							c2.9-1.6,6-2.8,9.1-3.6s6.4-1.2,9.9-1.2c5.6,0,10.1,1.5,13.4,4.4c3.3,3,4.9,7,4.9,12.1c0,5.1-1.6,9.1-4.9,12
							c-3.3,3-7.7,4.5-13.4,4.5c-2.6,0-5.3-0.3-7.9-0.9c-2.6-0.6-5.3-1.5-8-2.7V591.3z"/>
					</g>
				</g>
			</g>
		</g>
		<g id="xtick_10">
			<g id="line2d_12">
				<path class="st5" d="M246.2,274.5l4.6,1.5"/>
			</g>
			<g id="text_10">
				<g transform="translate(307.440897 347.443194) scale(0.1 -0.1)">
					<g>
						<path id="DejaVuSans-31_00000155836776941785805620000000547172829321506470_" d="M-538.4,526.7h16.1v55.6l-17.5-3.5v9
							l17.4,3.5h9.9v-64.6h16.1v-8.3h-42V526.7z"/>
					</g>
					<g>
						<path id="DejaVuSans-2e_00000165208564520009244900000014946705889772305075_" d="M-476.5,530.8h10.3v-12.4h-10.3V530.8z"/>
					</g>
					<g>
						<path id="DejaVuSans-30_00000123413132307676953430000011753190447428691897_" d="M-423.6,584.8c-5.1,0-8.9-2.5-11.5-7.5
							c-2.6-5-3.8-12.5-3.8-22.5c0-10,1.3-17.5,3.8-22.5c2.6-5,6.4-7.5,11.5-7.5c5.1,0,8.9,2.5,11.5,7.5c2.6,5,3.8,12.5,3.8,22.5
							c0,10-1.3,17.5-3.8,22.5C-414.7,582.3-418.5,584.8-423.6,584.8z M-423.6,592.6c8.2,0,14.4-3.2,18.7-9.7
							c4.3-6.5,6.5-15.8,6.5-28.1c0-12.3-2.2-21.6-6.5-28.1c-4.3-6.5-10.6-9.7-18.7-9.7c-8.2,0-14.4,3.2-18.7,9.7
							c-4.3,6.5-6.5,15.8-6.5,28.1c0,12.3,2.2,21.7,6.5,28.1C-438,589.4-431.8,592.6-423.6,592.6z"/>
					</g>
				</g>
			</g>
		</g>
		<g id="xtick_11">
			<g id="line2d_13">
				<path class="st5" d="M262.3,258l4.6,1.4"/>
			</g>
			<g id="text_11">
				<g transform="translate(323.348914 330.745209) scale(0.1 -0.1)">
					<g>
						<path id="DejaVuSans-31_00000123415000910455066320000007920104490925166231_" d="M-538.4,526.7h16.1v55.6l-17.5-3.5v9
							l17.4,3.5h9.9v-64.6h16.1v-8.3h-42V526.7z"/>
					</g>
					<g>
						<path id="DejaVuSans-2e_00000124846832685477906310000014306143466177817734_" d="M-476.5,530.8h10.3v-12.4h-10.3V530.8z"/>
					</g>
					<g>
						<path id="DejaVuSans-35_00000123437467181240405290000006724613036466213559_" d="M-444.6,591.3h38.7V583h-29.7v-17.9
							c1.4,0.5,2.9,0.9,4.3,1.1c1.4,0.2,2.9,0.4,4.3,0.4c8.1,0,14.6-2.2,19.3-6.7c4.8-4.5,7.1-10.5,7.1-18.1
							c0-7.8-2.4-13.9-7.3-18.3c-4.9-4.3-11.8-6.5-20.7-6.5c-3.1,0-6.2,0.3-9.4,0.8c-3.2,0.5-6.4,1.3-9.8,2.3v9.9
							c2.9-1.6,6-2.8,9.1-3.6s6.4-1.2,9.9-1.2c5.6,0,10.1,1.5,13.4,4.4c3.3,3,4.9,7,4.9,12.1c0,5.1-1.6,9.1-4.9,12
							c-3.3,3-7.7,4.5-13.4,4.5c-2.6,0-5.3-0.3-7.9-0.9c-2.6-0.6-5.3-1.5-8-2.7V591.3z"/>
					</g>
				</g>
			</g>
		</g>
		<g id="xtick_12">
			<g id="line2d_14">
				<path class="st5" d="M277.9,241.9l4.5,1.4"/>
			</g>
			<g id="text_12">
				<g transform="translate(338.807082 314.519411) scale(0.1 -0.1)">
					<g>
						<path id="DejaVuSans-32_00000167365071574163008010000011077370498702194333_" d="M-531.6,526.7h34.4v-8.3h-46.3v8.3
							c3.7,3.9,8.8,9.1,15.3,15.6c6.5,6.5,10.5,10.7,12.2,12.6c3.2,3.5,5.4,6.5,6.6,9c1.3,2.5,1.9,4.9,1.9,7.2c0,3.9-1.4,7-4.1,9.5
							c-2.7,2.4-6.3,3.7-10.6,3.7c-3.1,0-6.4-0.5-9.8-1.6c-3.4-1.1-7.1-2.7-11-4.9v10c4,1.6,7.7,2.8,11.1,3.6
							c3.5,0.8,6.6,1.2,9.5,1.2c7.6,0,13.6-1.9,18.1-5.7c4.5-3.8,6.7-8.8,6.7-15.1c0-3-0.6-5.8-1.7-8.5c-1.1-2.7-3.2-5.8-6.1-9.5
							c-0.8-0.9-3.4-3.7-7.8-8.2C-517.5,541.1-523.7,534.8-531.6,526.7z"/>
					</g>
					<g>
						<path id="DejaVuSans-2e_00000156552301330506271510000010410561057632058275_" d="M-476.5,530.8h10.3v-12.4h-10.3V530.8z"/>
					</g>
					<g>
						<path id="DejaVuSans-30_00000060003400066962343910000001703266390528176024_" d="M-423.6,584.8c-5.1,0-8.9-2.5-11.5-7.5
							c-2.6-5-3.8-12.5-3.8-22.5c0-10,1.3-17.5,3.8-22.5c2.6-5,6.4-7.5,11.5-7.5c5.1,0,8.9,2.5,11.5,7.5c2.6,5,3.8,12.5,3.8,22.5
							c0,10-1.3,17.5-3.8,22.5C-414.7,582.3-418.5,584.8-423.6,584.8z M-423.6,592.6c8.2,0,14.4-3.2,18.7-9.7
							c4.3-6.5,6.5-15.8,6.5-28.1c0-12.3-2.2-21.6-6.5-28.1c-4.3-6.5-10.6-9.7-18.7-9.7c-8.2,0-14.4,3.2-18.7,9.7
							c-4.3,6.5-6.5,15.8-6.5,28.1c0,12.3,2.2,21.7,6.5,28.1C-438,589.4-431.8,592.6-423.6,592.6z"/>
					</g>
				</g>
			</g>
		</g>
		<g id="xtick_13">
			<g id="line2d_15">
				<path class="st5" d="M293.1,226.4l4.5,1.3"/>
			</g>
			<g id="text_13">
				<g transform="translate(353.834218 298.74605) scale(0.1 -0.1)">
					<g>
						<path id="DejaVuSans-32_00000101822180057688050050000000429850750892444319_" d="M-531.6,526.7h34.4v-8.3h-46.3v8.3
							c3.7,3.9,8.8,9.1,15.3,15.6c6.5,6.5,10.5,10.7,12.2,12.6c3.2,3.5,5.4,6.5,6.6,9c1.3,2.5,1.9,4.9,1.9,7.2c0,3.9-1.4,7-4.1,9.5
							c-2.7,2.4-6.3,3.7-10.6,3.7c-3.1,0-6.4-0.5-9.8-1.6c-3.4-1.1-7.1-2.7-11-4.9v10c4,1.6,7.7,2.8,11.1,3.6
							c3.5,0.8,6.6,1.2,9.5,1.2c7.6,0,13.6-1.9,18.1-5.7c4.5-3.8,6.7-8.8,6.7-15.1c0-3-0.6-5.8-1.7-8.5c-1.1-2.7-3.2-5.8-6.1-9.5
							c-0.8-0.9-3.4-3.7-7.8-8.2C-517.5,541.1-523.7,534.8-531.6,526.7z"/>
					</g>
					<g>
						<path id="DejaVuSans-2e_00000178164248913559397460000018191451611406961802_" d="M-476.5,530.8h10.3v-12.4h-10.3V530.8z"/>
					</g>
					<g>
						<path id="DejaVuSans-35_00000071551696223113695860000012965144165285247398_" d="M-444.6,591.3h38.7V583h-29.7v-17.9
							c1.4,0.5,2.9,0.9,4.3,1.1c1.4,0.2,2.9,0.4,4.3,0.4c8.1,0,14.6-2.2,19.3-6.7c4.8-4.5,7.1-10.5,7.1-18.1
							c0-7.8-2.4-13.9-7.3-18.3c-4.9-4.3-11.8-6.5-20.7-6.5c-3.1,0-6.2,0.3-9.4,0.8c-3.2,0.5-6.4,1.3-9.8,2.3v9.9
							c2.9-1.6,6-2.8,9.1-3.6s6.4-1.2,9.9-1.2c5.6,0,10.1,1.5,13.4,4.4c3.3,3,4.9,7,4.9,12.1c0,5.1-1.6,9.1-4.9,12
							c-3.3,3-7.7,4.5-13.4,4.5c-2.6,0-5.3-0.3-7.9-0.9c-2.6-0.6-5.3-1.5-8-2.7V591.3z"/>
					</g>
				</g>
			</g>
		</g>
		<g id="xtick_14">
			<g id="line2d_16">
				<path class="st5" d="M307.9,211.2l4.4,1.3"/>
			</g>
			<g id="text_14">
				<g transform="translate(368.448101 283.406463) scale(0.1 -0.1)">
					<g>
						<path id="DejaVuSans-33_00000013900642193072544610000006684498369422925998_" d="M-510.2,557.7c4.7-1,8.4-3.1,11-6.3
							c2.7-3.2,4-7.1,4-11.8c0-7.2-2.5-12.8-7.4-16.7c-4.9-3.9-12-5.9-21.1-5.9c-3.1,0-6.2,0.3-9.4,0.9c-3.2,0.6-6.6,1.5-10,2.7v9.5
							c2.7-1.6,5.7-2.8,9-3.6c3.3-0.8,6.7-1.2,10.2-1.2c6.2,0,10.9,1.2,14.1,3.7s4.9,6,4.9,10.6c0,4.3-1.5,7.7-4.5,10.1
							c-3,2.4-7.2,3.6-12.6,3.6h-8.5v8.1h8.9c4.8,0,8.6,1,11.1,2.9s3.9,4.7,3.9,8.4c0,3.7-1.3,6.6-4,8.6c-2.6,2-6.4,3-11.4,3
							c-2.7,0-5.6-0.3-8.7-0.9c-3.1-0.6-6.5-1.5-10.2-2.7v8.8c3.8,1,7.3,1.8,10.5,2.3c3.3,0.5,6.4,0.8,9.2,0.8
							c7.5,0,13.4-1.7,17.8-5.1c4.4-3.4,6.5-8,6.5-13.8c0-4-1.2-7.5-3.5-10.2S-506,558.8-510.2,557.7z"/>
					</g>
					<g>
						<path id="DejaVuSans-2e_00000127014824597140166950000005989001916714797474_" d="M-476.5,530.8h10.3v-12.4h-10.3V530.8z"/>
					</g>
					<g>
						<path id="DejaVuSans-30_00000044889832713613933780000013792973616004033939_" d="M-423.6,584.8c-5.1,0-8.9-2.5-11.5-7.5
							c-2.6-5-3.8-12.5-3.8-22.5c0-10,1.3-17.5,3.8-22.5c2.6-5,6.4-7.5,11.5-7.5c5.1,0,8.9,2.5,11.5,7.5c2.6,5,3.8,12.5,3.8,22.5
							c0,10-1.3,17.5-3.8,22.5C-414.7,582.3-418.5,584.8-423.6,584.8z M-423.6,592.6c8.2,0,14.4-3.2,18.7-9.7
							c4.3-6.5,6.5-15.8,6.5-28.1c0-12.3-2.2-21.6-6.5-28.1c-4.3-6.5-10.6-9.7-18.7-9.7c-8.2,0-14.4,3.2-18.7,9.7
							c-4.3,6.5-6.5,15.8-6.5,28.1c0,12.3,2.2,21.7,6.5,28.1C-438,589.4-431.8,592.6-423.6,592.6z"/>
					</g>
				</g>
			</g>
		</g>
	</g>
	<g id="axis3d_3">
		<g id="line2d_17">
			<path class="st5" d="M311.2,209.8l6.3-137.4"/>
		</g>
		<g id="xtick_15">
			<g id="line2d_18">
				<path class="st5" d="M309.9,206.7l4.4,1.3"/>
			</g>
			<g id="text_15">
				<g transform="translate(376.756888 263.982649) scale(0.1 -0.1)">
					<g>
						<path id="DejaVuSans-30_00000124846507337289880020000016857791252002633661_" d="M-519,584.8c-5.1,0-8.9-2.5-11.5-7.5
							c-2.6-5-3.8-12.5-3.8-22.5c0-10,1.3-17.5,3.8-22.5c2.6-5,6.4-7.5,11.5-7.5c5.1,0,8.9,2.5,11.5,7.5c2.6,5,3.8,12.5,3.8,22.5
							c0,10-1.3,17.5-3.8,22.5C-510.1,582.3-513.9,584.8-519,584.8z M-519,592.6c8.2,0,14.4-3.2,18.7-9.7c4.3-6.5,6.5-15.8,6.5-28.1
							c0-12.3-2.2-21.6-6.5-28.1c-4.3-6.5-10.6-9.7-18.7-9.7c-8.2,0-14.4,3.2-18.7,9.7c-4.3,6.5-6.5,15.8-6.5,28.1
							c0,12.3,2.2,21.7,6.5,28.1C-533.4,589.4-527.2,592.6-519,592.6z"/>
					</g>
					<g>
						<path id="DejaVuSans-2e_00000114048079212527093320000003661378048929420166_" d="M-476.5,530.8h10.3v-12.4h-10.3V530.8z"/>
					</g>
					<g>
						<path id="DejaVuSans-30_00000183937604773200601940000012567792579242671286_" d="M-423.6,584.8c-5.1,0-8.9-2.5-11.5-7.5
							c-2.6-5-3.8-12.5-3.8-22.5c0-10,1.3-17.5,3.8-22.5c2.6-5,6.4-7.5,11.5-7.5c5.1,0,8.9,2.5,11.5,7.5c2.6,5,3.8,12.5,3.8,22.5
							c0,10-1.3,17.5-3.8,22.5C-414.7,582.3-418.5,584.8-423.6,584.8z M-423.6,592.6c8.2,0,14.4-3.2,18.7-9.7
							c4.3-6.5,6.5-15.8,6.5-28.1c0-12.3-2.2-21.6-6.5-28.1c-4.3-6.5-10.6-9.7-18.7-9.7c-8.2,0-14.4,3.2-18.7,9.7
							c-4.3,6.5-6.5,15.8-6.5,28.1c0,12.3,2.2,21.7,6.5,28.1C-438,589.4-431.8,592.6-423.6,592.6z"/>
					</g>
				</g>
			</g>
		</g>
		<g id="xtick_16">
			<g id="line2d_19">
				<path class="st5" d="M310.8,185.5l4.5,1.3"/>
			</g>
			<g id="text_16">
				<g transform="translate(377.852211 242.798056) scale(0.1 -0.1)">
					<g>
						<path id="DejaVuSans-30_00000082363088766144261150000009086185963464847807_" d="M-519,584.8c-5.1,0-8.9-2.5-11.5-7.5
							c-2.6-5-3.8-12.5-3.8-22.5c0-10,1.3-17.5,3.8-22.5c2.6-5,6.4-7.5,11.5-7.5c5.1,0,8.9,2.5,11.5,7.5c2.6,5,3.8,12.5,3.8,22.5
							c0,10-1.3,17.5-3.8,22.5C-510.1,582.3-513.9,584.8-519,584.8z M-519,592.6c8.2,0,14.4-3.2,18.7-9.7c4.3-6.5,6.5-15.8,6.5-28.1
							c0-12.3-2.2-21.6-6.5-28.1c-4.3-6.5-10.6-9.7-18.7-9.7c-8.2,0-14.4,3.2-18.7,9.7c-4.3,6.5-6.5,15.8-6.5,28.1
							c0,12.3,2.2,21.7,6.5,28.1C-533.4,589.4-527.2,592.6-519,592.6z"/>
					</g>
					<g>
						<path id="DejaVuSans-2e_00000108287271097216514420000018244110451780264367_" d="M-476.5,530.8h10.3v-12.4h-10.3V530.8z"/>
					</g>
					<g>
						<path id="DejaVuSans-35_00000025429564107660847830000000841019946717617321_" d="M-444.6,591.3h38.7V583h-29.7v-17.9
							c1.4,0.5,2.9,0.9,4.3,1.1c1.4,0.2,2.9,0.4,4.3,0.4c8.1,0,14.6-2.2,19.3-6.7c4.8-4.5,7.1-10.5,7.1-18.1
							c0-7.8-2.4-13.9-7.3-18.3c-4.9-4.3-11.8-6.5-20.7-6.5c-3.1,0-6.2,0.3-9.4,0.8c-3.2,0.5-6.4,1.3-9.8,2.3v9.9
							c2.9-1.6,6-2.8,9.1-3.6s6.4-1.2,9.9-1.2c5.6,0,10.1,1.5,13.4,4.4c3.3,3,4.9,7,4.9,12.1c0,5.1-1.6,9.1-4.9,12
							c-3.3,3-7.7,4.5-13.4,4.5c-2.6,0-5.3-0.3-7.9-0.9c-2.6-0.6-5.3-1.5-8-2.7V591.3z"/>
					</g>
				</g>
			</g>
		</g>
		<g id="xtick_17">
			<g id="line2d_20">
				<path class="st5" d="M311.8,164l4.5,1.3"/>
			</g>
			<g id="text_17">
				<g transform="translate(378.962747 221.319217) scale(0.1 -0.1)">
					<g>
						<path id="DejaVuSans-31_00000161617354340795356650000005087719654194887852_" d="M-538.4,526.7h16.1v55.6l-17.5-3.5v9
							l17.4,3.5h9.9v-64.6h16.1v-8.3h-42V526.7z"/>
					</g>
					<g>
						<path id="DejaVuSans-2e_00000114061886009955643560000004165142352224284292_" d="M-476.5,530.8h10.3v-12.4h-10.3V530.8z"/>
					</g>
					<g>
						<path id="DejaVuSans-30_00000121964015310638739820000003098994398648048560_" d="M-423.6,584.8c-5.1,0-8.9-2.5-11.5-7.5
							c-2.6-5-3.8-12.5-3.8-22.5c0-10,1.3-17.5,3.8-22.5c2.6-5,6.4-7.5,11.5-7.5c5.1,0,8.9,2.5,11.5,7.5c2.6,5,3.8,12.5,3.8,22.5
							c0,10-1.3,17.5-3.8,22.5C-414.7,582.3-418.5,584.8-423.6,584.8z M-423.6,592.6c8.2,0,14.4-3.2,18.7-9.7
							c4.3-6.5,6.5-15.8,6.5-28.1c0-12.3-2.2-21.6-6.5-28.1c-4.3-6.5-10.6-9.7-18.7-9.7c-8.2,0-14.4,3.2-18.7,9.7
							c-4.3,6.5-6.5,15.8-6.5,28.1c0,12.3,2.2,21.7,6.5,28.1C-438,589.4-431.8,592.6-423.6,592.6z"/>
					</g>
				</g>
			</g>
		</g>
		<g id="xtick_18">
			<g id="line2d_21">
				<path class="st5" d="M312.8,142.2l4.5,1.2"/>
			</g>
			<g id="text_18">
				<g transform="translate(380.088817 199.539959) scale(0.1 -0.1)">
					<g>
						<path id="DejaVuSans-31_00000085956061060134979240000000366343872724318355_" d="M-538.4,526.7h16.1v55.6l-17.5-3.5v9
							l17.4,3.5h9.9v-64.6h16.1v-8.3h-42V526.7z"/>
					</g>
					<g>
						<path id="DejaVuSans-2e_00000109021449548246230680000016419324312530392236_" d="M-476.5,530.8h10.3v-12.4h-10.3V530.8z"/>
					</g>
					<g>
						<path id="DejaVuSans-35_00000042719403801405609140000003688966919685013668_" d="M-444.6,591.3h38.7V583h-29.7v-17.9
							c1.4,0.5,2.9,0.9,4.3,1.1c1.4,0.2,2.9,0.4,4.3,0.4c8.1,0,14.6-2.2,19.3-6.7c4.8-4.5,7.1-10.5,7.1-18.1
							c0-7.8-2.4-13.9-7.3-18.3c-4.9-4.3-11.8-6.5-20.7-6.5c-3.1,0-6.2,0.3-9.4,0.8c-3.2,0.5-6.4,1.3-9.8,2.3v9.9
							c2.9-1.6,6-2.8,9.1-3.6s6.4-1.2,9.9-1.2c5.6,0,10.1,1.5,13.4,4.4c3.3,3,4.9,7,4.9,12.1c0,5.1-1.6,9.1-4.9,12
							c-3.3,3-7.7,4.5-13.4,4.5c-2.6,0-5.3-0.3-7.9-0.9c-2.6-0.6-5.3-1.5-8-2.7V591.3z"/>
					</g>
				</g>
			</g>
		</g>
		<g id="xtick_19">
			<g id="line2d_22">
				<path class="st5" d="M313.8,120.1l4.6,1.2"/>
			</g>
			<g id="text_19">
				<g transform="translate(381.230747 177.453933) scale(0.1 -0.1)">
					<g>
						<path id="DejaVuSans-32_00000106125980504982192140000018393282680191511475_" d="M-531.6,526.7h34.4v-8.3h-46.3v8.3
							c3.7,3.9,8.8,9.1,15.3,15.6c6.5,6.5,10.5,10.7,12.2,12.6c3.2,3.5,5.4,6.5,6.6,9c1.3,2.5,1.9,4.9,1.9,7.2c0,3.9-1.4,7-4.1,9.5
							c-2.7,2.4-6.3,3.7-10.6,3.7c-3.1,0-6.4-0.5-9.8-1.6c-3.4-1.1-7.1-2.7-11-4.9v10c4,1.6,7.7,2.8,11.1,3.6
							c3.5,0.8,6.6,1.2,9.5,1.2c7.6,0,13.6-1.9,18.1-5.7c4.5-3.8,6.7-8.8,6.7-15.1c0-3-0.6-5.8-1.7-8.5c-1.1-2.7-3.2-5.8-6.1-9.5
							c-0.8-0.9-3.4-3.7-7.8-8.2C-517.5,541.1-523.7,534.8-531.6,526.7z"/>
					</g>
					<g>
						<path id="DejaVuSans-2e_00000006677814894867200910000004816535412310178728_" d="M-476.5,530.8h10.3v-12.4h-10.3V530.8z"/>
					</g>
					<g>
						<path id="DejaVuSans-30_00000152987060864170138730000014075496218320636306_" d="M-423.6,584.8c-5.1,0-8.9-2.5-11.5-7.5
							c-2.6-5-3.8-12.5-3.8-22.5c0-10,1.3-17.5,3.8-22.5c2.6-5,6.4-7.5,11.5-7.5c5.1,0,8.9,2.5,11.5,7.5c2.6,5,3.8,12.5,3.8,22.5
							c0,10-1.3,17.5-3.8,22.5C-414.7,582.3-418.5,584.8-423.6,584.8z M-423.6,592.6c8.2,0,14.4-3.2,18.7-9.7
							c4.3-6.5,6.5-15.8,6.5-28.1c0-12.3-2.2-21.6-6.5-28.1c-4.3-6.5-10.6-9.7-18.7-9.7c-8.2,0-14.4,3.2-18.7,9.7
							c-4.3,6.5-6.5,15.8-6.5,28.1c0,12.3,2.2,21.7,6.5,28.1C-438,589.4-431.8,592.6-423.6,592.6z"/>
					</g>
				</g>
			</g>
		</g>
		<g id="xtick_20">
			<g id="line2d_23">
				<path class="st5" d="M314.8,97.6l4.6,1.2"/>
			</g>
			<g id="text_20">
				<g transform="translate(382.388876 155.054614) scale(0.1 -0.1)">
					<g>
						<path id="DejaVuSans-32_00000055679993289776993300000002307893056165488294_" d="M-531.6,526.7h34.4v-8.3h-46.3v8.3
							c3.7,3.9,8.8,9.1,15.3,15.6c6.5,6.5,10.5,10.7,12.2,12.6c3.2,3.5,5.4,6.5,6.6,9c1.3,2.5,1.9,4.9,1.9,7.2c0,3.9-1.4,7-4.1,9.5
							c-2.7,2.4-6.3,3.7-10.6,3.7c-3.1,0-6.4-0.5-9.8-1.6c-3.4-1.1-7.1-2.7-11-4.9v10c4,1.6,7.7,2.8,11.1,3.6
							c3.5,0.8,6.6,1.2,9.5,1.2c7.6,0,13.6-1.9,18.1-5.7c4.5-3.8,6.7-8.8,6.7-15.1c0-3-0.6-5.8-1.7-8.5c-1.1-2.7-3.2-5.8-6.1-9.5
							c-0.8-0.9-3.4-3.7-7.8-8.2C-517.5,541.1-523.7,534.8-531.6,526.7z"/>
					</g>
					<g>
						<path id="DejaVuSans-2e_00000176010867219638455700000010398655487998359462_" d="M-476.5,530.8h10.3v-12.4h-10.3V530.8z"/>
					</g>
					<g>
						<path id="DejaVuSans-35_00000086678927189336733560000002214994237681623446_" d="M-444.6,591.3h38.7V583h-29.7v-17.9
							c1.4,0.5,2.9,0.9,4.3,1.1c1.4,0.2,2.9,0.4,4.3,0.4c8.1,0,14.6-2.2,19.3-6.7c4.8-4.5,7.1-10.5,7.1-18.1
							c0-7.8-2.4-13.9-7.3-18.3c-4.9-4.3-11.8-6.5-20.7-6.5c-3.1,0-6.2,0.3-9.4,0.8c-3.2,0.5-6.4,1.3-9.8,2.3v9.9
							c2.9-1.6,6-2.8,9.1-3.6s6.4-1.2,9.9-1.2c5.6,0,10.1,1.5,13.4,4.4c3.3,3,4.9,7,4.9,12.1c0,5.1-1.6,9.1-4.9,12
							c-3.3,3-7.7,4.5-13.4,4.5c-2.6,0-5.3-0.3-7.9-0.9c-2.6-0.6-5.3-1.5-8-2.7V591.3z"/>
					</g>
				</g>
			</g>
		</g>
		<g id="xtick_21">
			<g id="line2d_24">
				<path class="st5" d="M315.8,74.9l4.6,1.2"/>
			</g>
			<g id="text_21">
				<g transform="translate(383.56355 132.335286) scale(0.1 -0.1)">
					<g>
						<path id="DejaVuSans-33_00000023993967061973231430000011494588015502278074_" d="M-510.2,557.7c4.7-1,8.4-3.1,11-6.3
							c2.7-3.2,4-7.1,4-11.8c0-7.2-2.5-12.8-7.4-16.7c-4.9-3.9-12-5.9-21.1-5.9c-3.1,0-6.2,0.3-9.4,0.9c-3.2,0.6-6.6,1.5-10,2.7v9.5
							c2.7-1.6,5.7-2.8,9-3.6c3.3-0.8,6.7-1.2,10.2-1.2c6.2,0,10.9,1.2,14.1,3.7s4.9,6,4.9,10.6c0,4.3-1.5,7.7-4.5,10.1
							c-3,2.4-7.2,3.6-12.6,3.6h-8.5v8.1h8.9c4.8,0,8.6,1,11.1,2.9s3.9,4.7,3.9,8.4c0,3.7-1.3,6.6-4,8.6c-2.6,2-6.4,3-11.4,3
							c-2.7,0-5.6-0.3-8.7-0.9c-3.1-0.6-6.5-1.5-10.2-2.7v8.8c3.8,1,7.3,1.8,10.5,2.3c3.3,0.5,6.4,0.8,9.2,0.8
							c7.5,0,13.4-1.7,17.8-5.1c4.4-3.4,6.5-8,6.5-13.8c0-4-1.2-7.5-3.5-10.2S-506,558.8-510.2,557.7z"/>
					</g>
					<g>
						<path id="DejaVuSans-2e_00000096743806270762005960000008710848225048884608_" d="M-476.5,530.8h10.3v-12.4h-10.3V530.8z"/>
					</g>
					<g>
						<path id="DejaVuSans-30_00000034779896255816713400000009853091857255543972_" d="M-423.6,584.8c-5.1,0-8.9-2.5-11.5-7.5
							c-2.6-5-3.8-12.5-3.8-22.5c0-10,1.3-17.5,3.8-22.5c2.6-5,6.4-7.5,11.5-7.5c5.1,0,8.9,2.5,11.5,7.5c2.6,5,3.8,12.5,3.8,22.5
							c0,10-1.3,17.5-3.8,22.5C-414.7,582.3-418.5,584.8-423.6,584.8z M-423.6,592.6c8.2,0,14.4-3.2,18.7-9.7
							c4.3-6.5,6.5-15.8,6.5-28.1c0-12.3-2.2-21.6-6.5-28.1c-4.3-6.5-10.6-9.7-18.7-9.7c-8.2,0-14.4,3.2-18.7,9.7
							c-4.3,6.5-6.5,15.8-6.5,28.1c0,12.3,2.2,21.7,6.5,28.1C-438,589.4-431.8,592.6-423.6,592.6z"/>
					</g>
				</g>
			</g>
		</g>
	</g>
	<g id="axes_1">
		<g id="line2d_25">
			<g>
				<defs>
					<rect id="SVGID_1_" x="0" width="332.6" height="332.6"/>
				</defs>
				<clipPath id="SVGID_00000171688017535261706680000005794979790527721136_">
					<use xlink:href="#SVGID_1_"  style="overflow:visible;"/>
				</clipPath>
				
					<path style="clip-path:url(#SVGID_00000171688017535261706680000005794979790527721136_);fill:none;stroke:#008000;stroke-width:3;stroke-linecap:square;stroke-linejoin:round;" d="
					M158.3,71.8L246.1,181"/>
			</g>
		</g>
		<g id="Line3DCollection_4">
			<g>
				<defs>
					<rect id="SVGID_00000066482752762333801110000002832158841757552536_" x="0" width="332.6" height="332.6"/>
				</defs>
				<clipPath id="SVGID_00000134217519146124309620000000940491457231944323_">
					<use xlink:href="#SVGID_00000066482752762333801110000002832158841757552536_"  style="overflow:visible;"/>
				</clipPath>
				
					<path style="clip-path:url(#SVGID_00000134217519146124309620000000940491457231944323_);fill:none;stroke:#0000FF;stroke-width:1.5;stroke-linejoin:round;stroke-dasharray:5.55,2.4;" d="
					M158.3,71.8L30.9,247.1"/>
			</g>
			<g>
				<defs>
					<rect id="SVGID_00000047756660392603229970000000892965372202196112_" x="0" width="332.6" height="332.6"/>
				</defs>
				<clipPath id="SVGID_00000107581848805897844690000008252752790404239755_">
					<use xlink:href="#SVGID_00000047756660392603229970000000892965372202196112_"  style="overflow:visible;"/>
				</clipPath>
				
					<path style="clip-path:url(#SVGID_00000107581848805897844690000008252752790404239755_);fill:none;stroke:#0000FF;stroke-width:1.5;stroke-linejoin:round;stroke-dasharray:5.55,2.4;" d="
					M158.3,71.8L150.4,90"/>
			</g>
			<g>
				<defs>
					<rect id="SVGID_00000058554596469791269060000013083359562861125538_" x="0" width="332.6" height="332.6"/>
				</defs>
				<clipPath id="SVGID_00000039114109719042407660000003331666204324644504_">
					<use xlink:href="#SVGID_00000058554596469791269060000013083359562861125538_"  style="overflow:visible;"/>
				</clipPath>
				
					<path style="clip-path:url(#SVGID_00000039114109719042407660000003331666204324644504_);fill:none;stroke:#0000FF;stroke-width:1.5;stroke-linejoin:round;stroke-dasharray:5.55,2.4;" d="
					M158.3,71.8l-16.8,15.7"/>
			</g>
		</g>
		<g id="text_22">
			<g transform="translate(198.635597 123.636635) scale(0.12 -0.12)">
				<g>
					<path id="DejaVuSans-76" d="M-456,486.7h9.5l17.1-45.9l17.1,45.9h9.5l-20.5-54.7h-12.2L-456,486.7z"/>
				</g>
				<g>
					<path id="DejaVuSans-31_00000154425971402965654830000018041262354645234878_" d="M-387.4,440.3h16.1v55.6l-17.5-3.5v9
						l17.4,3.5h9.9v-64.6h16.1V432h-42V440.3z"/>
				</g>
			</g>
		</g>
		<g id="text_23">
			<g transform="translate(286.492273 232.820771) scale(0.12 -0.12)">
				<g>
					<path id="DejaVuSans-76_00000054970663830127791920000011029047268181708696_" d="M-456,486.7h9.5l17.1-45.9l17.1,45.9h9.5
						l-20.5-54.7h-12.2L-456,486.7z"/>
				</g>
				<g>
					<path id="DejaVuSans-32_00000020397528016031334130000003060653672526429347_" d="M-380.6,440.3h34.4V432h-46.3v8.3
						c3.7,3.9,8.8,9.1,15.3,15.6c6.5,6.5,10.5,10.7,12.2,12.6c3.2,3.5,5.4,6.5,6.6,9c1.3,2.5,1.9,4.9,1.9,7.2c0,3.9-1.4,7-4.1,9.5
						c-2.7,2.4-6.3,3.7-10.6,3.7c-3.1,0-6.4-0.5-9.8-1.6c-3.4-1.1-7.1-2.7-11-4.9v10c4,1.6,7.7,2.8,11.1,3.6
						c3.5,0.8,6.6,1.2,9.5,1.2c7.6,0,13.6-1.9,18.1-5.7c4.5-3.8,6.7-8.8,6.7-15.1c0-3-0.6-5.8-1.7-8.5c-1.1-2.7-3.2-5.8-6.1-9.5
						c-0.8-0.9-3.4-3.7-7.8-8.2C-366.5,454.7-372.7,448.4-380.6,440.3z"/>
				</g>
			</g>
		</g>
		<g id="text_24">
			<g transform="translate(146.76375 45.84) scale(0.12 -0.12)">
				<g>
					<path id="DejaVuSans-32_00000107564822734002859380000003820676981671015553_" class="st10" d="M515.9-631h34.4v-8.3h-46.3v8.3
						c3.7,3.9,8.8,9.1,15.3,15.6c6.5,6.5,10.5,10.7,12.2,12.6c3.2,3.5,5.4,6.5,6.6,9c1.3,2.5,1.9,4.9,1.9,7.2c0,3.9-1.4,7-4.1,9.5
						c-2.7,2.4-6.3,3.7-10.6,3.7c-3.1,0-6.4-0.5-9.8-1.6c-3.4-1.1-7.1-2.7-11-4.9v10c4,1.6,7.7,2.8,11.1,3.6
						c3.5,0.8,6.6,1.2,9.5,1.2c7.6,0,13.6-1.9,18.1-5.7c4.5-3.8,6.7-8.8,6.7-15.1c0-3-0.6-5.8-1.7-8.5c-1.1-2.7-3.2-5.8-6.1-9.5
						c-0.8-0.9-3.4-3.7-7.8-8.2C530-616.6,523.9-622.9,515.9-631z"/>
				</g>
				<g>
					<path id="DejaVuSans-2e_00000091717642684514973870000001120888043314313392_" class="st10" d="M571-626.9h10.3v-12.4H571
						V-626.9z"/>
				</g>
				<g>
					<path id="DejaVuSans-34" class="st10" d="M629.9-575L605-613.9h24.9V-575z M627.3-566.4h12.4v-47.5h10.4v-8.2h-10.4v-17.2h-9.8
						v17.2H597v9.5L627.3-566.4z"/>
				</g>
				<g>
					<path id="DejaVuSans-35_00000137819284350344252620000005280862424616539821_" class="st10" d="M666.6-566.4h38.7v-8.3h-29.7
						v-17.9c1.4,0.5,2.9,0.9,4.3,1.1c1.4,0.2,2.9,0.4,4.3,0.4c8.1,0,14.6-2.2,19.3-6.7c4.8-4.5,7.1-10.5,7.1-18.1
						c0-7.8-2.4-13.9-7.3-18.3c-4.9-4.3-11.8-6.5-20.7-6.5c-3.1,0-6.2,0.3-9.4,0.8c-3.2,0.5-6.4,1.3-9.8,2.3v9.9
						c2.9-1.6,6-2.8,9.1-3.6s6.4-1.2,9.9-1.2c5.6,0,10.1,1.5,13.4,4.4c3.3,3,4.9,7,4.9,12.1c0,5.1-1.6,9.1-4.9,12
						c-3.3,3-7.7,4.5-13.4,4.5c-2.6,0-5.3-0.3-7.9-0.9c-2.6-0.6-5.3-1.5-8-2.7V-566.4z"/>
				</g>
			</g>
		</g>
		<g id="Line3DCollection_5">
			<g>
				<defs>
					<rect id="SVGID_00000145762972758209088920000001142584280216960419_" x="0" y="0" width="332.6" height="332.6"/>
				</defs>
				<clipPath id="SVGID_00000181074245890630785700000017129550252832004493_">
					<use xlink:href="#SVGID_00000145762972758209088920000001142584280216960419_"  style="overflow:visible;"/>
				</clipPath>
				
					<path style="clip-path:url(#SVGID_00000181074245890630785700000017129550252832004493_);fill:none;stroke:#FF0000;stroke-width:1.5;stroke-linejoin:round;stroke-dasharray:5.55,2.4;" d="
					M246.1,181L30.9,247.1"/>
			</g>
			<g>
				<defs>
					<rect id="SVGID_00000065061935729947965750000005548887724488510905_" x="0" y="0" width="332.6" height="332.6"/>
				</defs>
				<clipPath id="SVGID_00000041268278223302995860000001834442153967514554_">
					<use xlink:href="#SVGID_00000065061935729947965750000005548887724488510905_"  style="overflow:visible;"/>
				</clipPath>
				
					<path style="clip-path:url(#SVGID_00000041268278223302995860000001834442153967514554_);fill:none;stroke:#FF0000;stroke-width:1.5;stroke-linejoin:round;stroke-dasharray:5.55,2.4;" d="
					M246.1,181L228,191.8"/>
			</g>
			<g>
				<defs>
					<rect id="SVGID_00000111192778797709475390000004472736423693704092_" x="0" y="0" width="332.6" height="332.6"/>
				</defs>
				<clipPath id="SVGID_00000031898793559460708070000013366466413113921697_">
					<use xlink:href="#SVGID_00000111192778797709475390000004472736423693704092_"  style="overflow:visible;"/>
				</clipPath>
				
					<path style="clip-path:url(#SVGID_00000031898793559460708070000013366466413113921697_);fill:none;stroke:#FF0000;stroke-width:1.5;stroke-linejoin:round;stroke-dasharray:5.55,2.4;" d="
					M246.1,181l-25.3,2.5"/>
			</g>
		</g>
	</g>
</g>
</svg>
