<?xml version="1.0" encoding="utf-8"?>
<!-- Generator: Adobe Illustrator 27.2.0, SVG Export Plug-In . SVG Version: 6.00 Build 0)  -->
<svg version="1.1" id="Layer_1" xmlns="http://www.w3.org/2000/svg" xmlns:xlink="http://www.w3.org/1999/xlink" x="0px" y="0px"
	 viewBox="0 0 357.7 334.8" style="enable-background:new 0 0 357.7 334.8;" xml:space="preserve">
<style type="text/css">
	.st0{fill:#FFFFFF;}
	.st1{opacity:0.5;fill:#F2F2F2;stroke:#F2F2F2;enable-background:new    ;}
	.st2{opacity:0.5;fill:#E6E6E6;stroke:#E6E6E6;enable-background:new    ;}
	.st3{opacity:0.5;fill:#ECECEC;stroke:#ECECEC;enable-background:new    ;}
	.st4{fill:none;stroke:#B0B0B0;stroke-width:0.8;stroke-linejoin:round;}
	.st5{fill:none;stroke:#000000;stroke-width:0.8;stroke-linecap:square;stroke-linejoin:round;}
	
		.st6{clip-path:url(#SVGID_00000002351399919082541730000000488890705110485645_);fill:none;stroke:#0000FF;stroke-width:1.5;stroke-linejoin:round;stroke-dasharray:5.55,2.4;}
	
		.st7{clip-path:url(#SVGID_00000129895004889091686790000005220254510138184590_);fill:none;stroke:#0000FF;stroke-width:1.5;stroke-linejoin:round;stroke-dasharray:5.55,2.4;}
	
		.st8{clip-path:url(#SVGID_00000098905494128069852360000006023563942624032428_);fill:none;stroke:#0000FF;stroke-width:1.5;stroke-linejoin:round;stroke-dasharray:5.55,2.4;}
	.st9{fill:#008000;}
	
		.st10{clip-path:url(#SVGID_00000011017633703302324950000003866772884659580298_);fill:none;stroke:#FF0000;stroke-width:1.5;stroke-linejoin:round;stroke-dasharray:5.55,2.4;}
	
		.st11{clip-path:url(#SVGID_00000106122385141722757720000000926885049348144538_);fill:none;stroke:#FF0000;stroke-width:1.5;stroke-linejoin:round;stroke-dasharray:5.55,2.4;}
	
		.st12{clip-path:url(#SVGID_00000118395707519460008520000004121966055403726209_);fill:none;stroke:#FF0000;stroke-width:1.5;stroke-linejoin:round;stroke-dasharray:5.55,2.4;}
	.st13{fill:none;stroke:#008000;stroke-width:2;stroke-miterlimit:10;}
	.st14{font-family:'ArialMT';}
	.st15{font-size:22px;}
</style>
<g id="figure_1">
	<g id="patch_2">
		<path class="st0" d="M0,332.6h332.6V0H0V332.6z"/>
	</g>
	<g id="pane3d_1">
		<g id="patch_3">
			<path class="st1" d="M25.1,250.6L135,158.5l-1.5-132.8l-115.1,84"/>
		</g>
	</g>
	<g id="pane3d_2">
		<g id="patch_4">
			<path class="st2" d="M135,158.5l176.3,51.2l6.3-137.4L133.4,25.8"/>
		</g>
	</g>
	<g id="pane3d_3">
		<g id="patch_5">
			<path class="st3" d="M25.1,250.6l186.9,61l99.3-101.9L135,158.5"/>
		</g>
	</g>
	<g id="grid3d_1">
		<g id="Line3DCollection_1">
			<path class="st4" d="M28.7,251.8l109.7-92.3l-1.4-132.9"/>
			<path class="st4" d="M57.3,261.1l108.1-93.7l-0.2-133.6"/>
			<path class="st4" d="M86.5,270.7L193,175.4l1-134.3"/>
			<path class="st4" d="M116.1,280.3L221,183.5l2.2-135"/>
			<path class="st4" d="M146.2,290.2l103.2-98.4L252.8,56"/>
			<path class="st4" d="M176.9,300.2l101.4-100L283,63.7"/>
			<path class="st4" d="M208,310.4l99.5-101.7l6.1-137.3"/>
		</g>
	</g>
	<g id="grid3d_2">
		<g id="Line3DCollection_2">
			<path class="st4" d="M20.8,107.9l6.7,140.7l186.6,60.8"/>
			<path class="st4" d="M40.6,93.5l5.7,139.4l184.9,59.1"/>
			<path class="st4" d="M59.8,79.5l4.8,138l183.1,57.4"/>
			<path class="st4" d="M78.4,65.9l3.9,136.7l181.4,55.8"/>
			<path class="st4" d="M96.6,52.7l3.1,135.5l179.8,54.3"/>
			<path class="st4" d="M114.2,39.8l2.3,134.2l178.1,52.8"/>
			<path class="st4" d="M131.3,27.3l1.6,132.9l176.5,51.4"/>
		</g>
	</g>
	<g id="grid3d_3">
		<g id="Line3DCollection_3">
			<path class="st4" d="M311.4,207.1L134.9,156L25,247.9"/>
			<path class="st4" d="M312.3,185.9l-177.6-50.5L23.9,226.2"/>
			<path class="st4" d="M313.3,164.4l-178.9-49.8L22.9,204.2"/>
			<path class="st4" d="M314.3,142.6L134.2,93.5L21.8,181.8"/>
			<path class="st4" d="M315.3,120.5L134,72.2L20.7,159.1"/>
			<path class="st4" d="M316.3,98L133.7,50.5L19.6,136.1"/>
			<path class="st4" d="M317.4,75.3L133.5,28.5l-115,84.2"/>
		</g>
	</g>
	<g id="axis3d_1">
		<g id="line2d_1">
			<path class="st5" d="M25.1,250.6l186.9,61"/>
		</g>
		<g id="xtick_1">
			<g id="line2d_2">
				<path class="st5" d="M29.6,251l-2.9,2.4"/>
			</g>
			<g id="text_1">
				<g transform="translate(68.264213 326.87527) scale(0.1 -0.1)">
					<g>
						<path id="DejaVuSans-30" d="M-519,584.8c-5.1,0-8.9-2.5-11.5-7.5c-2.6-5-3.8-12.5-3.8-22.5c0-10,1.3-17.5,3.8-22.5
							c2.6-5,6.4-7.5,11.5-7.5c5.1,0,8.9,2.5,11.5,7.5c2.6,5,3.8,12.5,3.8,22.5c0,10-1.3,17.5-3.8,22.5
							C-510.1,582.3-513.9,584.8-519,584.8z M-519,592.6c8.2,0,14.4-3.2,18.7-9.7c4.3-6.5,6.5-15.8,6.5-28.1
							c0-12.3-2.2-21.6-6.5-28.1c-4.3-6.5-10.6-9.7-18.7-9.7c-8.2,0-14.4,3.2-18.7,9.7c-4.3,6.5-6.5,15.8-6.5,28.1
							c0,12.3,2.2,21.7,6.5,28.1C-533.4,589.4-527.2,592.6-519,592.6z"/>
					</g>
					<g>
						<path id="DejaVuSans-2e" d="M-476.5,530.8h10.3v-12.4h-10.3V530.8z"/>
					</g>
					<g>
						<path id="DejaVuSans-30_00000013153944708661360950000000646621909449426825_" d="M-423.6,584.8c-5.1,0-8.9-2.5-11.5-7.5
							c-2.6-5-3.8-12.5-3.8-22.5c0-10,1.3-17.5,3.8-22.5c2.6-5,6.4-7.5,11.5-7.5c5.1,0,8.9,2.5,11.5,7.5c2.6,5,3.8,12.5,3.8,22.5
							c0,10-1.3,17.5-3.8,22.5C-414.7,582.3-418.5,584.8-423.6,584.8z M-423.6,592.6c8.2,0,14.4-3.2,18.7-9.7
							c4.3-6.5,6.5-15.8,6.5-28.1c0-12.3-2.2-21.6-6.5-28.1c-4.3-6.5-10.6-9.7-18.7-9.7c-8.2,0-14.4,3.2-18.7,9.7
							c-4.3,6.5-6.5,15.8-6.5,28.1c0,12.3,2.2,21.7,6.5,28.1C-438,589.4-431.8,592.6-423.6,592.6z"/>
					</g>
				</g>
			</g>
		</g>
		<g id="xtick_2">
			<g id="line2d_3">
				<path class="st5" d="M58.3,260.3l-2.8,2.5"/>
			</g>
			<g id="text_2">
				<g transform="translate(96.941927 336.392149) scale(0.1 -0.1)">
					<g>
						<path id="DejaVuSans-30_00000064340401813166843210000005608881278917951364_" d="M-519,584.8c-5.1,0-8.9-2.5-11.5-7.5
							c-2.6-5-3.8-12.5-3.8-22.5c0-10,1.3-17.5,3.8-22.5c2.6-5,6.4-7.5,11.5-7.5c5.1,0,8.9,2.5,11.5,7.5c2.6,5,3.8,12.5,3.8,22.5
							c0,10-1.3,17.5-3.8,22.5C-510.1,582.3-513.9,584.8-519,584.8z M-519,592.6c8.2,0,14.4-3.2,18.7-9.7c4.3-6.5,6.5-15.8,6.5-28.1
							c0-12.3-2.2-21.6-6.5-28.1c-4.3-6.5-10.6-9.7-18.7-9.7c-8.2,0-14.4,3.2-18.7,9.7c-4.3,6.5-6.5,15.8-6.5,28.1
							c0,12.3,2.2,21.7,6.5,28.1C-533.4,589.4-527.2,592.6-519,592.6z"/>
					</g>
					<g>
						<path id="DejaVuSans-2e_00000181782849321402636320000017063725144931718299_" d="M-476.5,530.8h10.3v-12.4h-10.3V530.8z"/>
					</g>
					<g>
						<path id="DejaVuSans-35" d="M-444.6,591.3h38.7V583h-29.7v-17.9c1.4,0.5,2.9,0.9,4.3,1.1c1.4,0.2,2.9,0.4,4.3,0.4
							c8.1,0,14.6-2.2,19.3-6.7c4.8-4.5,7.1-10.5,7.1-18.1c0-7.8-2.4-13.9-7.3-18.3c-4.9-4.3-11.8-6.5-20.7-6.5
							c-3.1,0-6.2,0.3-9.4,0.8c-3.2,0.5-6.4,1.3-9.8,2.3v9.9c2.9-1.6,6-2.8,9.1-3.6s6.4-1.2,9.9-1.2c5.6,0,10.1,1.5,13.4,4.4
							c3.3,3,4.9,7,4.9,12.1c0,5.1-1.6,9.1-4.9,12c-3.3,3-7.7,4.5-13.4,4.5c-2.6,0-5.3-0.3-7.9-0.9c-2.6-0.6-5.3-1.5-8-2.7V591.3z"
							/>
					</g>
				</g>
			</g>
		</g>
		<g id="xtick_3">
			<g id="line2d_4">
				<path class="st5" d="M87.4,269.8l-2.8,2.5"/>
			</g>
			<g id="text_3">
				<g transform="translate(126.1009 346.068737) scale(0.1 -0.1)">
					<g>
						<path id="DejaVuSans-31" d="M-538.4,526.7h16.1v55.6l-17.5-3.5v9l17.4,3.5h9.9v-64.6h16.1v-8.3h-42V526.7z"/>
					</g>
					<g>
						<path id="DejaVuSans-2e_00000016776197094036698470000006878877545593040263_" d="M-476.5,530.8h10.3v-12.4h-10.3V530.8z"/>
					</g>
					<g>
						<path id="DejaVuSans-30_00000084521513260483982220000017463580492563381404_" d="M-423.6,584.8c-5.1,0-8.9-2.5-11.5-7.5
							c-2.6-5-3.8-12.5-3.8-22.5c0-10,1.3-17.5,3.8-22.5c2.6-5,6.4-7.5,11.5-7.5c5.1,0,8.9,2.5,11.5,7.5c2.6,5,3.8,12.5,3.8,22.5
							c0,10-1.3,17.5-3.8,22.5C-414.7,582.3-418.5,584.8-423.6,584.8z M-423.6,592.6c8.2,0,14.4-3.2,18.7-9.7
							c4.3-6.5,6.5-15.8,6.5-28.1c0-12.3-2.2-21.6-6.5-28.1c-4.3-6.5-10.6-9.7-18.7-9.7c-8.2,0-14.4,3.2-18.7,9.7
							c-4.3,6.5-6.5,15.8-6.5,28.1c0,12.3,2.2,21.7,6.5,28.1C-438,589.4-431.8,592.6-423.6,592.6z"/>
					</g>
				</g>
			</g>
		</g>
		<g id="xtick_4">
			<g id="line2d_5">
				<path class="st5" d="M117,279.5l-2.7,2.5"/>
			</g>
			<g id="text_4">
				<g transform="translate(155.753349 355.909087) scale(0.1 -0.1)">
					<g>
						<path id="DejaVuSans-31_00000124878553022906302720000014581093899445655487_" d="M-538.4,526.7h16.1v55.6l-17.5-3.5v9
							l17.4,3.5h9.9v-64.6h16.1v-8.3h-42V526.7z"/>
					</g>
					<g>
						<path id="DejaVuSans-2e_00000049216753329281000900000010387809348594454167_" d="M-476.5,530.8h10.3v-12.4h-10.3V530.8z"/>
					</g>
					<g>
						<path id="DejaVuSans-35_00000050655535765047948950000006284088471400530082_" d="M-444.6,591.3h38.7V583h-29.7v-17.9
							c1.4,0.5,2.9,0.9,4.3,1.1c1.4,0.2,2.9,0.4,4.3,0.4c8.1,0,14.6-2.2,19.3-6.7c4.8-4.5,7.1-10.5,7.1-18.1
							c0-7.8-2.4-13.9-7.3-18.3c-4.9-4.3-11.8-6.5-20.7-6.5c-3.1,0-6.2,0.3-9.4,0.8c-3.2,0.5-6.4,1.3-9.8,2.3v9.9
							c2.9-1.6,6-2.8,9.1-3.6s6.4-1.2,9.9-1.2c5.6,0,10.1,1.5,13.4,4.4c3.3,3,4.9,7,4.9,12.1c0,5.1-1.6,9.1-4.9,12
							c-3.3,3-7.7,4.5-13.4,4.5c-2.6,0-5.3-0.3-7.9-0.9c-2.6-0.6-5.3-1.5-8-2.7V591.3z"/>
					</g>
				</g>
			</g>
		</g>
		<g id="xtick_5">
			<g id="line2d_6">
				<path class="st5" d="M147.1,289.3l-2.7,2.6"/>
			</g>
			<g id="text_5">
				<g transform="translate(185.911907 365.917394) scale(0.1 -0.1)">
					<g>
						<path id="DejaVuSans-32" d="M-531.6,526.7h34.4v-8.3h-46.3v8.3c3.7,3.9,8.8,9.1,15.3,15.6c6.5,6.5,10.5,10.7,12.2,12.6
							c3.2,3.5,5.4,6.5,6.6,9c1.3,2.5,1.9,4.9,1.9,7.2c0,3.9-1.4,7-4.1,9.5c-2.7,2.4-6.3,3.7-10.6,3.7c-3.1,0-6.4-0.5-9.8-1.6
							c-3.4-1.1-7.1-2.7-11-4.9v10c4,1.6,7.7,2.8,11.1,3.6c3.5,0.8,6.6,1.2,9.5,1.2c7.6,0,13.6-1.9,18.1-5.7
							c4.5-3.8,6.7-8.8,6.7-15.1c0-3-0.6-5.8-1.7-8.5c-1.1-2.7-3.2-5.8-6.1-9.5c-0.8-0.9-3.4-3.7-7.8-8.2
							C-517.5,541.1-523.7,534.8-531.6,526.7z"/>
					</g>
					<g>
						<path id="DejaVuSans-2e_00000019644381250275592700000012055068090265855618_" d="M-476.5,530.8h10.3v-12.4h-10.3V530.8z"/>
					</g>
					<g>
						<path id="DejaVuSans-30_00000083064630725458435950000000458027781858829226_" d="M-423.6,584.8c-5.1,0-8.9-2.5-11.5-7.5
							c-2.6-5-3.8-12.5-3.8-22.5c0-10,1.3-17.5,3.8-22.5c2.6-5,6.4-7.5,11.5-7.5c5.1,0,8.9,2.5,11.5,7.5c2.6,5,3.8,12.5,3.8,22.5
							c0,10-1.3,17.5-3.8,22.5C-414.7,582.3-418.5,584.8-423.6,584.8z M-423.6,592.6c8.2,0,14.4-3.2,18.7-9.7
							c4.3-6.5,6.5-15.8,6.5-28.1c0-12.3-2.2-21.6-6.5-28.1c-4.3-6.5-10.6-9.7-18.7-9.7c-8.2,0-14.4,3.2-18.7,9.7
							c-4.3,6.5-6.5,15.8-6.5,28.1c0,12.3,2.2,21.7,6.5,28.1C-438,589.4-431.8,592.6-423.6,592.6z"/>
					</g>
				</g>
			</g>
		</g>
		<g id="xtick_6">
			<g id="line2d_7">
				<path class="st5" d="M177.7,299.3l-2.7,2.6"/>
			</g>
			<g id="text_6">
				<g transform="translate(216.589644 376.097993) scale(0.1 -0.1)">
					<g>
						<path id="DejaVuSans-32_00000158708255184630273240000016620016119277904513_" d="M-531.6,526.7h34.4v-8.3h-46.3v8.3
							c3.7,3.9,8.8,9.1,15.3,15.6c6.5,6.5,10.5,10.7,12.2,12.6c3.2,3.5,5.4,6.5,6.6,9c1.3,2.5,1.9,4.9,1.9,7.2c0,3.9-1.4,7-4.1,9.5
							c-2.7,2.4-6.3,3.7-10.6,3.7c-3.1,0-6.4-0.5-9.8-1.6c-3.4-1.1-7.1-2.7-11-4.9v10c4,1.6,7.7,2.8,11.1,3.6
							c3.5,0.8,6.6,1.2,9.5,1.2c7.6,0,13.6-1.9,18.1-5.7c4.5-3.8,6.7-8.8,6.7-15.1c0-3-0.6-5.8-1.7-8.5c-1.1-2.7-3.2-5.8-6.1-9.5
							c-0.8-0.9-3.4-3.7-7.8-8.2C-517.5,541.1-523.7,534.8-531.6,526.7z"/>
					</g>
					<g>
						<path id="DejaVuSans-2e_00000158022924646851464160000001713198252282341272_" d="M-476.5,530.8h10.3v-12.4h-10.3V530.8z"/>
					</g>
					<g>
						<path id="DejaVuSans-35_00000158002955000951283660000011445899726197069717_" d="M-444.6,591.3h38.7V583h-29.7v-17.9
							c1.4,0.5,2.9,0.9,4.3,1.1c1.4,0.2,2.9,0.4,4.3,0.4c8.1,0,14.6-2.2,19.3-6.7c4.8-4.5,7.1-10.5,7.1-18.1
							c0-7.8-2.4-13.9-7.3-18.3c-4.9-4.3-11.8-6.5-20.7-6.5c-3.1,0-6.2,0.3-9.4,0.8c-3.2,0.5-6.4,1.3-9.8,2.3v9.9
							c2.9-1.6,6-2.8,9.1-3.6s6.4-1.2,9.9-1.2c5.6,0,10.1,1.5,13.4,4.4c3.3,3,4.9,7,4.9,12.1c0,5.1-1.6,9.1-4.9,12
							c-3.3,3-7.7,4.5-13.4,4.5c-2.6,0-5.3-0.3-7.9-0.9c-2.6-0.6-5.3-1.5-8-2.7V591.3z"/>
					</g>
				</g>
			</g>
		</g>
		<g id="xtick_7">
			<g id="line2d_8">
				<path class="st5" d="M208.9,309.5l-2.6,2.7"/>
			</g>
			<g id="text_7">
				<g transform="translate(247.800082 386.455372) scale(0.1 -0.1)">
					<g>
						<path id="DejaVuSans-33" d="M-510.2,557.7c4.7-1,8.4-3.1,11-6.3c2.7-3.2,4-7.1,4-11.8c0-7.2-2.5-12.8-7.4-16.7
							c-4.9-3.9-12-5.9-21.1-5.9c-3.1,0-6.2,0.3-9.4,0.9c-3.2,0.6-6.6,1.5-10,2.7v9.5c2.7-1.6,5.7-2.8,9-3.6
							c3.3-0.8,6.7-1.2,10.2-1.2c6.2,0,10.9,1.2,14.1,3.7s4.9,6,4.9,10.6c0,4.3-1.5,7.7-4.5,10.1c-3,2.4-7.2,3.6-12.6,3.6h-8.5v8.1
							h8.9c4.8,0,8.6,1,11.1,2.9c2.6,1.9,3.9,4.7,3.9,8.4c0,3.7-1.3,6.6-4,8.6c-2.6,2-6.4,3-11.4,3c-2.7,0-5.6-0.3-8.7-0.9
							c-3.1-0.6-6.5-1.5-10.2-2.7v8.8c3.8,1,7.3,1.8,10.5,2.3c3.3,0.5,6.4,0.8,9.2,0.8c7.5,0,13.4-1.7,17.8-5.1
							c4.4-3.4,6.5-8,6.5-13.8c0-4-1.2-7.5-3.5-10.2S-506,558.8-510.2,557.7z"/>
					</g>
					<g>
						<path id="DejaVuSans-2e_00000164479356018935555190000001044817270239062918_" d="M-476.5,530.8h10.3v-12.4h-10.3V530.8z"/>
					</g>
					<g>
						<path id="DejaVuSans-30_00000029006051317201104750000010213450260134655652_" d="M-423.6,584.8c-5.1,0-8.9-2.5-11.5-7.5
							c-2.6-5-3.8-12.5-3.8-22.5c0-10,1.3-17.5,3.8-22.5c2.6-5,6.4-7.5,11.5-7.5c5.1,0,8.9,2.5,11.5,7.5c2.6,5,3.8,12.5,3.8,22.5
							c0,10-1.3,17.5-3.8,22.5C-414.7,582.3-418.5,584.8-423.6,584.8z M-423.6,592.6c8.2,0,14.4-3.2,18.7-9.7
							c4.3-6.5,6.5-15.8,6.5-28.1c0-12.3-2.2-21.6-6.5-28.1c-4.3-6.5-10.6-9.7-18.7-9.7c-8.2,0-14.4,3.2-18.7,9.7
							c-4.3,6.5-6.5,15.8-6.5,28.1c0,12.3,2.2,21.7,6.5,28.1C-438,589.4-431.8,592.6-423.6,592.6z"/>
					</g>
				</g>
			</g>
		</g>
		<g id="text_8">
			<g transform="translate(151.470413 370.143148) scale(0.1 -0.1)">
				<g>
					<path id="DejaVuSans-58" d="M-544.5,591.3h10.6l18.1-27.1l18.2,27.1h10.6l-23.4-35l25-37.9H-496l-20.5,31l-20.7-31h-10.6
						l26,38.9L-544.5,591.3z"/>
				</g>
			</g>
		</g>
	</g>
	<g id="axis3d_2">
		<g id="line2d_9">
			<path class="st5" d="M311.2,209.8L212,311.6"/>
		</g>
		<g id="xtick_8">
			<g id="line2d_10">
				<path class="st5" d="M212.6,308.9l4.7,1.5"/>
			</g>
			<g id="text_9">
				<g transform="translate(274.19442 382.340642) scale(0.1 -0.1)">
					<g>
						<path id="DejaVuSans-30_00000146468185322916882900000012292250199848525454_" d="M-519,584.8c-5.1,0-8.9-2.5-11.5-7.5
							c-2.6-5-3.8-12.5-3.8-22.5c0-10,1.3-17.5,3.8-22.5c2.6-5,6.4-7.5,11.5-7.5c5.1,0,8.9,2.5,11.5,7.5c2.6,5,3.8,12.5,3.8,22.5
							c0,10-1.3,17.5-3.8,22.5C-510.1,582.3-513.9,584.8-519,584.8z M-519,592.6c8.2,0,14.4-3.2,18.7-9.7c4.3-6.5,6.5-15.8,6.5-28.1
							c0-12.3-2.2-21.6-6.5-28.1c-4.3-6.5-10.6-9.7-18.7-9.7c-8.2,0-14.4,3.2-18.7,9.7c-4.3,6.5-6.5,15.8-6.5,28.1
							c0,12.3,2.2,21.7,6.5,28.1C-533.4,589.4-527.2,592.6-519,592.6z"/>
					</g>
					<g>
						<path id="DejaVuSans-2e_00000053546178161626836910000003846492646020185235_" d="M-476.5,530.8h10.3v-12.4h-10.3V530.8z"/>
					</g>
					<g>
						<path id="DejaVuSans-30_00000139252499607053601720000009552463521199897011_" d="M-423.6,584.8c-5.1,0-8.9-2.5-11.5-7.5
							c-2.6-5-3.8-12.5-3.8-22.5c0-10,1.3-17.5,3.8-22.5c2.6-5,6.4-7.5,11.5-7.5c5.1,0,8.9,2.5,11.5,7.5c2.6,5,3.8,12.5,3.8,22.5
							c0,10-1.3,17.5-3.8,22.5C-414.7,582.3-418.5,584.8-423.6,584.8z M-423.6,592.6c8.2,0,14.4-3.2,18.7-9.7
							c4.3-6.5,6.5-15.8,6.5-28.1c0-12.3-2.2-21.6-6.5-28.1c-4.3-6.5-10.6-9.7-18.7-9.7c-8.2,0-14.4,3.2-18.7,9.7
							c-4.3,6.5-6.5,15.8-6.5,28.1c0,12.3,2.2,21.7,6.5,28.1C-438,589.4-431.8,592.6-423.6,592.6z"/>
					</g>
				</g>
			</g>
		</g>
		<g id="xtick_9">
			<g id="line2d_11">
				<path class="st5" d="M229.6,291.4l4.7,1.5"/>
			</g>
			<g id="text_10">
				<g transform="translate(291.063107 364.634282) scale(0.1 -0.1)">
					<g>
						<path id="DejaVuSans-30_00000148651426595674420580000006878209593835444374_" d="M-519,584.8c-5.1,0-8.9-2.5-11.5-7.5
							c-2.6-5-3.8-12.5-3.8-22.5c0-10,1.3-17.5,3.8-22.5c2.6-5,6.4-7.5,11.5-7.5c5.1,0,8.9,2.5,11.5,7.5c2.6,5,3.8,12.5,3.8,22.5
							c0,10-1.3,17.5-3.8,22.5C-510.1,582.3-513.9,584.8-519,584.8z M-519,592.6c8.2,0,14.4-3.2,18.7-9.7c4.3-6.5,6.5-15.8,6.5-28.1
							c0-12.3-2.2-21.6-6.5-28.1c-4.3-6.5-10.6-9.7-18.7-9.7c-8.2,0-14.4,3.2-18.7,9.7c-4.3,6.5-6.5,15.8-6.5,28.1
							c0,12.3,2.2,21.7,6.5,28.1C-533.4,589.4-527.2,592.6-519,592.6z"/>
					</g>
					<g>
						<path id="DejaVuSans-2e_00000181066673825530552440000001877236492821555848_" d="M-476.5,530.8h10.3v-12.4h-10.3V530.8z"/>
					</g>
					<g>
						<path id="DejaVuSans-35_00000144333436161696037290000017230948786274089358_" d="M-444.6,591.3h38.7V583h-29.7v-17.9
							c1.4,0.5,2.9,0.9,4.3,1.1c1.4,0.2,2.9,0.4,4.3,0.4c8.1,0,14.6-2.2,19.3-6.7c4.8-4.5,7.1-10.5,7.1-18.1
							c0-7.8-2.4-13.9-7.3-18.3c-4.9-4.3-11.8-6.5-20.7-6.5c-3.1,0-6.2,0.3-9.4,0.8c-3.2,0.5-6.4,1.3-9.8,2.3v9.9
							c2.9-1.6,6-2.8,9.1-3.6s6.4-1.2,9.9-1.2c5.6,0,10.1,1.5,13.4,4.4c3.3,3,4.9,7,4.9,12.1c0,5.1-1.6,9.1-4.9,12
							c-3.3,3-7.7,4.5-13.4,4.5c-2.6,0-5.3-0.3-7.9-0.9c-2.6-0.6-5.3-1.5-8-2.7V591.3z"/>
					</g>
				</g>
			</g>
		</g>
		<g id="xtick_10">
			<g id="line2d_12">
				<path class="st5" d="M246.2,274.5l4.6,1.5"/>
			</g>
			<g id="text_11">
				<g transform="translate(307.440897 347.443194) scale(0.1 -0.1)">
					<g>
						<path id="DejaVuSans-31_00000143575070674546135410000011383068681972126638_" d="M-538.4,526.7h16.1v55.6l-17.5-3.5v9
							l17.4,3.5h9.9v-64.6h16.1v-8.3h-42V526.7z"/>
					</g>
					<g>
						<path id="DejaVuSans-2e_00000040558810620541624070000000894711639323253438_" d="M-476.5,530.8h10.3v-12.4h-10.3V530.8z"/>
					</g>
					<g>
						<path id="DejaVuSans-30_00000017482152400825605010000001774742951885346746_" d="M-423.6,584.8c-5.1,0-8.9-2.5-11.5-7.5
							c-2.6-5-3.8-12.5-3.8-22.5c0-10,1.3-17.5,3.8-22.5c2.6-5,6.4-7.5,11.5-7.5c5.1,0,8.9,2.5,11.5,7.5c2.6,5,3.8,12.5,3.8,22.5
							c0,10-1.3,17.5-3.8,22.5C-414.7,582.3-418.5,584.8-423.6,584.8z M-423.6,592.6c8.2,0,14.4-3.2,18.7-9.7
							c4.3-6.5,6.5-15.8,6.5-28.1c0-12.3-2.2-21.6-6.5-28.1c-4.3-6.5-10.6-9.7-18.7-9.7c-8.2,0-14.4,3.2-18.7,9.7
							c-4.3,6.5-6.5,15.8-6.5,28.1c0,12.3,2.2,21.7,6.5,28.1C-438,589.4-431.8,592.6-423.6,592.6z"/>
					</g>
				</g>
			</g>
		</g>
		<g id="xtick_11">
			<g id="line2d_13">
				<path class="st5" d="M262.3,258l4.6,1.4"/>
			</g>
			<g id="text_12">
				<g transform="translate(323.348914 330.745209) scale(0.1 -0.1)">
					<g>
						<path id="DejaVuSans-31_00000021081914149930586700000013733780597143710887_" d="M-538.4,526.7h16.1v55.6l-17.5-3.5v9
							l17.4,3.5h9.9v-64.6h16.1v-8.3h-42V526.7z"/>
					</g>
					<g>
						<path id="DejaVuSans-2e_00000170957837393271244640000017734449490489901474_" d="M-476.5,530.8h10.3v-12.4h-10.3V530.8z"/>
					</g>
					<g>
						<path id="DejaVuSans-35_00000046297911645438187370000005936798095141425842_" d="M-444.6,591.3h38.7V583h-29.7v-17.9
							c1.4,0.5,2.9,0.9,4.3,1.1c1.4,0.2,2.9,0.4,4.3,0.4c8.1,0,14.6-2.2,19.3-6.7c4.8-4.5,7.1-10.5,7.1-18.1
							c0-7.8-2.4-13.9-7.3-18.3c-4.9-4.3-11.8-6.5-20.7-6.5c-3.1,0-6.2,0.3-9.4,0.8c-3.2,0.5-6.4,1.3-9.8,2.3v9.9
							c2.9-1.6,6-2.8,9.1-3.6s6.4-1.2,9.9-1.2c5.6,0,10.1,1.5,13.4,4.4c3.3,3,4.9,7,4.9,12.1c0,5.1-1.6,9.1-4.9,12
							c-3.3,3-7.7,4.5-13.4,4.5c-2.6,0-5.3-0.3-7.9-0.9c-2.6-0.6-5.3-1.5-8-2.7V591.3z"/>
					</g>
				</g>
			</g>
		</g>
		<g id="xtick_12">
			<g id="line2d_14">
				<path class="st5" d="M277.9,241.9l4.5,1.4"/>
			</g>
			<g id="text_13">
				<g transform="translate(338.807082 314.519411) scale(0.1 -0.1)">
					<g>
						<path id="DejaVuSans-32_00000032611273624794774840000009026587008124088210_" d="M-531.6,526.7h34.4v-8.3h-46.3v8.3
							c3.7,3.9,8.8,9.1,15.3,15.6c6.5,6.5,10.5,10.7,12.2,12.6c3.2,3.5,5.4,6.5,6.6,9c1.3,2.5,1.9,4.9,1.9,7.2c0,3.9-1.4,7-4.1,9.5
							c-2.7,2.4-6.3,3.7-10.6,3.7c-3.1,0-6.4-0.5-9.8-1.6c-3.4-1.1-7.1-2.7-11-4.9v10c4,1.6,7.7,2.8,11.1,3.6
							c3.5,0.8,6.6,1.2,9.5,1.2c7.6,0,13.6-1.9,18.1-5.7c4.5-3.8,6.7-8.8,6.7-15.1c0-3-0.6-5.8-1.7-8.5c-1.1-2.7-3.2-5.8-6.1-9.5
							c-0.8-0.9-3.4-3.7-7.8-8.2C-517.5,541.1-523.7,534.8-531.6,526.7z"/>
					</g>
					<g>
						<path id="DejaVuSans-2e_00000145781247151977362790000015598842686871451270_" d="M-476.5,530.8h10.3v-12.4h-10.3V530.8z"/>
					</g>
					<g>
						<path id="DejaVuSans-30_00000018225350927978888870000012149906650411862407_" d="M-423.6,584.8c-5.1,0-8.9-2.5-11.5-7.5
							c-2.6-5-3.8-12.5-3.8-22.5c0-10,1.3-17.5,3.8-22.5c2.6-5,6.4-7.5,11.5-7.5c5.1,0,8.9,2.5,11.5,7.5c2.6,5,3.8,12.5,3.8,22.5
							c0,10-1.3,17.5-3.8,22.5C-414.7,582.3-418.5,584.8-423.6,584.8z M-423.6,592.6c8.2,0,14.4-3.2,18.7-9.7
							c4.3-6.5,6.5-15.8,6.5-28.1c0-12.3-2.2-21.6-6.5-28.1c-4.3-6.5-10.6-9.7-18.7-9.7c-8.2,0-14.4,3.2-18.7,9.7
							c-4.3,6.5-6.5,15.8-6.5,28.1c0,12.3,2.2,21.7,6.5,28.1C-438,589.4-431.8,592.6-423.6,592.6z"/>
					</g>
				</g>
			</g>
		</g>
		<g id="xtick_13">
			<g id="line2d_15">
				<path class="st5" d="M293.1,226.4l4.5,1.3"/>
			</g>
			<g id="text_14">
				<g transform="translate(353.834218 298.74605) scale(0.1 -0.1)">
					<g>
						<path id="DejaVuSans-32_00000051381872725584461260000012402368372866376078_" d="M-531.6,526.7h34.4v-8.3h-46.3v8.3
							c3.7,3.9,8.8,9.1,15.3,15.6c6.5,6.5,10.5,10.7,12.2,12.6c3.2,3.5,5.4,6.5,6.6,9c1.3,2.5,1.9,4.9,1.9,7.2c0,3.9-1.4,7-4.1,9.5
							c-2.7,2.4-6.3,3.7-10.6,3.7c-3.1,0-6.4-0.5-9.8-1.6c-3.4-1.1-7.1-2.7-11-4.9v10c4,1.6,7.7,2.8,11.1,3.6
							c3.5,0.8,6.6,1.2,9.5,1.2c7.6,0,13.6-1.9,18.1-5.7c4.5-3.8,6.7-8.8,6.7-15.1c0-3-0.6-5.8-1.7-8.5c-1.1-2.7-3.2-5.8-6.1-9.5
							c-0.8-0.9-3.4-3.7-7.8-8.2C-517.5,541.1-523.7,534.8-531.6,526.7z"/>
					</g>
					<g>
						<path id="DejaVuSans-2e_00000164479483169208837820000000583370891752950683_" d="M-476.5,530.8h10.3v-12.4h-10.3V530.8z"/>
					</g>
					<g>
						<path id="DejaVuSans-35_00000062905741520018001680000001621795804816754068_" d="M-444.6,591.3h38.7V583h-29.7v-17.9
							c1.4,0.5,2.9,0.9,4.3,1.1c1.4,0.2,2.9,0.4,4.3,0.4c8.1,0,14.6-2.2,19.3-6.7c4.8-4.5,7.1-10.5,7.1-18.1
							c0-7.8-2.4-13.9-7.3-18.3c-4.9-4.3-11.8-6.5-20.7-6.5c-3.1,0-6.2,0.3-9.4,0.8c-3.2,0.5-6.4,1.3-9.8,2.3v9.9
							c2.9-1.6,6-2.8,9.1-3.6s6.4-1.2,9.9-1.2c5.6,0,10.1,1.5,13.4,4.4c3.3,3,4.9,7,4.9,12.1c0,5.1-1.6,9.1-4.9,12
							c-3.3,3-7.7,4.5-13.4,4.5c-2.6,0-5.3-0.3-7.9-0.9c-2.6-0.6-5.3-1.5-8-2.7V591.3z"/>
					</g>
				</g>
			</g>
		</g>
		<g id="xtick_14">
			<g id="line2d_16">
				<path class="st5" d="M307.9,211.2l4.4,1.3"/>
			</g>
			<g id="text_15">
				<g transform="translate(368.448101 283.406463) scale(0.1 -0.1)">
					<g>
						<path id="DejaVuSans-33_00000078739005926983285840000002341737291077360574_" d="M-510.2,557.7c4.7-1,8.4-3.1,11-6.3
							c2.7-3.2,4-7.1,4-11.8c0-7.2-2.5-12.8-7.4-16.7c-4.9-3.9-12-5.9-21.1-5.9c-3.1,0-6.2,0.3-9.4,0.9c-3.2,0.6-6.6,1.5-10,2.7v9.5
							c2.7-1.6,5.7-2.8,9-3.6c3.3-0.8,6.7-1.2,10.2-1.2c6.2,0,10.9,1.2,14.1,3.7s4.9,6,4.9,10.6c0,4.3-1.5,7.7-4.5,10.1
							c-3,2.4-7.2,3.6-12.6,3.6h-8.5v8.1h8.9c4.8,0,8.6,1,11.1,2.9s3.9,4.7,3.9,8.4c0,3.7-1.3,6.6-4,8.6c-2.6,2-6.4,3-11.4,3
							c-2.7,0-5.6-0.3-8.7-0.9c-3.1-0.6-6.5-1.5-10.2-2.7v8.8c3.8,1,7.3,1.8,10.5,2.3c3.3,0.5,6.4,0.8,9.2,0.8
							c7.5,0,13.4-1.7,17.8-5.1c4.4-3.4,6.5-8,6.5-13.8c0-4-1.2-7.5-3.5-10.2S-506,558.8-510.2,557.7z"/>
					</g>
					<g>
						<path id="DejaVuSans-2e_00000018950901266822367240000000022504576318882222_" d="M-476.5,530.8h10.3v-12.4h-10.3V530.8z"/>
					</g>
					<g>
						<path id="DejaVuSans-30_00000078031605947042361690000017414520643477106846_" d="M-423.6,584.8c-5.1,0-8.9-2.5-11.5-7.5
							c-2.6-5-3.8-12.5-3.8-22.5c0-10,1.3-17.5,3.8-22.5c2.6-5,6.4-7.5,11.5-7.5c5.1,0,8.9,2.5,11.5,7.5c2.6,5,3.8,12.5,3.8,22.5
							c0,10-1.3,17.5-3.8,22.5C-414.7,582.3-418.5,584.8-423.6,584.8z M-423.6,592.6c8.2,0,14.4-3.2,18.7-9.7
							c4.3-6.5,6.5-15.8,6.5-28.1c0-12.3-2.2-21.6-6.5-28.1c-4.3-6.5-10.6-9.7-18.7-9.7c-8.2,0-14.4,3.2-18.7,9.7
							c-4.3,6.5-6.5,15.8-6.5,28.1c0,12.3,2.2,21.7,6.5,28.1C-438,589.4-431.8,592.6-423.6,592.6z"/>
					</g>
				</g>
			</g>
		</g>
		<g id="text_16">
			<g transform="translate(342.813013 341.035949) scale(0.1 -0.1)">
				<g>
					<path id="DejaVuSans-59" d="M-551,591.3h10.6l20.2-30l20.1,30h10.6l-25.8-38.2v-34.7h-9.9v34.7L-551,591.3z"/>
				</g>
			</g>
		</g>
	</g>
	<g id="axis3d_3">
		<g id="line2d_17">
			<path class="st5" d="M311.2,209.8l6.3-137.4"/>
		</g>
		<g id="xtick_15">
			<g id="line2d_18">
				<path class="st5" d="M309.9,206.7l4.4,1.3"/>
			</g>
			<g id="text_17">
				<g transform="translate(376.756888 263.982649) scale(0.1 -0.1)">
					<g>
						<path id="DejaVuSans-30_00000129912337853438804830000007937016013781519233_" d="M-519,584.8c-5.1,0-8.9-2.5-11.5-7.5
							c-2.6-5-3.8-12.5-3.8-22.5c0-10,1.3-17.5,3.8-22.5c2.6-5,6.4-7.5,11.5-7.5c5.1,0,8.9,2.5,11.5,7.5c2.6,5,3.8,12.5,3.8,22.5
							c0,10-1.3,17.5-3.8,22.5C-510.1,582.3-513.9,584.8-519,584.8z M-519,592.6c8.2,0,14.4-3.2,18.7-9.7c4.3-6.5,6.5-15.8,6.5-28.1
							c0-12.3-2.2-21.6-6.5-28.1c-4.3-6.5-10.6-9.7-18.7-9.7c-8.2,0-14.4,3.2-18.7,9.7c-4.3,6.5-6.5,15.8-6.5,28.1
							c0,12.3,2.2,21.7,6.5,28.1C-533.4,589.4-527.2,592.6-519,592.6z"/>
					</g>
					<g>
						<path id="DejaVuSans-2e_00000088816810377156642790000005385712689848651424_" d="M-476.5,530.8h10.3v-12.4h-10.3V530.8z"/>
					</g>
					<g>
						<path id="DejaVuSans-30_00000132766437420706343800000003991401949754981798_" d="M-423.6,584.8c-5.1,0-8.9-2.5-11.5-7.5
							c-2.6-5-3.8-12.5-3.8-22.5c0-10,1.3-17.5,3.8-22.5c2.6-5,6.4-7.5,11.5-7.5c5.1,0,8.9,2.5,11.5,7.5c2.6,5,3.8,12.5,3.8,22.5
							c0,10-1.3,17.5-3.8,22.5C-414.7,582.3-418.5,584.8-423.6,584.8z M-423.6,592.6c8.2,0,14.4-3.2,18.7-9.7
							c4.3-6.5,6.5-15.8,6.5-28.1c0-12.3-2.2-21.6-6.5-28.1c-4.3-6.5-10.6-9.7-18.7-9.7c-8.2,0-14.4,3.2-18.7,9.7
							c-4.3,6.5-6.5,15.8-6.5,28.1c0,12.3,2.2,21.7,6.5,28.1C-438,589.4-431.8,592.6-423.6,592.6z"/>
					</g>
				</g>
			</g>
		</g>
		<g id="xtick_16">
			<g id="line2d_19">
				<path class="st5" d="M310.8,185.5l4.5,1.3"/>
			</g>
			<g id="text_18">
				<g transform="translate(377.852211 242.798056) scale(0.1 -0.1)">
					<g>
						<path id="DejaVuSans-30_00000023264356760671627430000008383662211311245987_" d="M-519,584.8c-5.1,0-8.9-2.5-11.5-7.5
							c-2.6-5-3.8-12.5-3.8-22.5c0-10,1.3-17.5,3.8-22.5c2.6-5,6.4-7.5,11.5-7.5c5.1,0,8.9,2.5,11.5,7.5c2.6,5,3.8,12.5,3.8,22.5
							c0,10-1.3,17.5-3.8,22.5C-510.1,582.3-513.9,584.8-519,584.8z M-519,592.6c8.2,0,14.4-3.2,18.7-9.7c4.3-6.5,6.5-15.8,6.5-28.1
							c0-12.3-2.2-21.6-6.5-28.1c-4.3-6.5-10.6-9.7-18.7-9.7c-8.2,0-14.4,3.2-18.7,9.7c-4.3,6.5-6.5,15.8-6.5,28.1
							c0,12.3,2.2,21.7,6.5,28.1C-533.4,589.4-527.2,592.6-519,592.6z"/>
					</g>
					<g>
						<path id="DejaVuSans-2e_00000076561990370899444210000010614027856375228557_" d="M-476.5,530.8h10.3v-12.4h-10.3V530.8z"/>
					</g>
					<g>
						<path id="DejaVuSans-35_00000025412784716101810810000000999752455712330131_" d="M-444.6,591.3h38.7V583h-29.7v-17.9
							c1.4,0.5,2.9,0.9,4.3,1.1c1.4,0.2,2.9,0.4,4.3,0.4c8.1,0,14.6-2.2,19.3-6.7c4.8-4.5,7.1-10.5,7.1-18.1
							c0-7.8-2.4-13.9-7.3-18.3c-4.9-4.3-11.8-6.5-20.7-6.5c-3.1,0-6.2,0.3-9.4,0.8c-3.2,0.5-6.4,1.3-9.8,2.3v9.9
							c2.9-1.6,6-2.8,9.1-3.6s6.4-1.2,9.9-1.2c5.6,0,10.1,1.5,13.4,4.4c3.3,3,4.9,7,4.9,12.1c0,5.1-1.6,9.1-4.9,12
							c-3.3,3-7.7,4.5-13.4,4.5c-2.6,0-5.3-0.3-7.9-0.9c-2.6-0.6-5.3-1.5-8-2.7V591.3z"/>
					</g>
				</g>
			</g>
		</g>
		<g id="xtick_17">
			<g id="line2d_20">
				<path class="st5" d="M311.8,164l4.5,1.3"/>
			</g>
			<g id="text_19">
				<g transform="translate(378.962747 221.319217) scale(0.1 -0.1)">
					<g>
						<path id="DejaVuSans-31_00000101086942063958224280000014934795855251984042_" d="M-538.4,526.7h16.1v55.6l-17.5-3.5v9
							l17.4,3.5h9.9v-64.6h16.1v-8.3h-42V526.7z"/>
					</g>
					<g>
						<path id="DejaVuSans-2e_00000048491054315749144160000002864632940011270311_" d="M-476.5,530.8h10.3v-12.4h-10.3V530.8z"/>
					</g>
					<g>
						<path id="DejaVuSans-30_00000139287483695672495940000009546312932732749492_" d="M-423.6,584.8c-5.1,0-8.9-2.5-11.5-7.5
							c-2.6-5-3.8-12.5-3.8-22.5c0-10,1.3-17.5,3.8-22.5c2.6-5,6.4-7.5,11.5-7.5c5.1,0,8.9,2.5,11.5,7.5c2.6,5,3.8,12.5,3.8,22.5
							c0,10-1.3,17.5-3.8,22.5C-414.7,582.3-418.5,584.8-423.6,584.8z M-423.6,592.6c8.2,0,14.4-3.2,18.7-9.7
							c4.3-6.5,6.5-15.8,6.5-28.1c0-12.3-2.2-21.6-6.5-28.1c-4.3-6.5-10.6-9.7-18.7-9.7c-8.2,0-14.4,3.2-18.7,9.7
							c-4.3,6.5-6.5,15.8-6.5,28.1c0,12.3,2.2,21.7,6.5,28.1C-438,589.4-431.8,592.6-423.6,592.6z"/>
					</g>
				</g>
			</g>
		</g>
		<g id="xtick_18">
			<g id="line2d_21">
				<path class="st5" d="M312.8,142.2l4.5,1.2"/>
			</g>
			<g id="text_20">
				<g transform="translate(380.088817 199.539959) scale(0.1 -0.1)">
					<g>
						<path id="DejaVuSans-31_00000145755833246640533900000006028315606718622599_" d="M-538.4,526.7h16.1v55.6l-17.5-3.5v9
							l17.4,3.5h9.9v-64.6h16.1v-8.3h-42V526.7z"/>
					</g>
					<g>
						<path id="DejaVuSans-2e_00000088820662804054353100000014436919842506997126_" d="M-476.5,530.8h10.3v-12.4h-10.3V530.8z"/>
					</g>
					<g>
						<path id="DejaVuSans-35_00000119816917223771239920000017390387188826810517_" d="M-444.6,591.3h38.7V583h-29.7v-17.9
							c1.4,0.5,2.9,0.9,4.3,1.1c1.4,0.2,2.9,0.4,4.3,0.4c8.1,0,14.6-2.2,19.3-6.7c4.8-4.5,7.1-10.5,7.1-18.1
							c0-7.8-2.4-13.9-7.3-18.3c-4.9-4.3-11.8-6.5-20.7-6.5c-3.1,0-6.2,0.3-9.4,0.8c-3.2,0.5-6.4,1.3-9.8,2.3v9.9
							c2.9-1.6,6-2.8,9.1-3.6s6.4-1.2,9.9-1.2c5.6,0,10.1,1.5,13.4,4.4c3.3,3,4.9,7,4.9,12.1c0,5.1-1.6,9.1-4.9,12
							c-3.3,3-7.7,4.5-13.4,4.5c-2.6,0-5.3-0.3-7.9-0.9c-2.6-0.6-5.3-1.5-8-2.7V591.3z"/>
					</g>
				</g>
			</g>
		</g>
		<g id="xtick_19">
			<g id="line2d_22">
				<path class="st5" d="M313.8,120.1l4.6,1.2"/>
			</g>
			<g id="text_21">
				<g transform="translate(381.230747 177.453933) scale(0.1 -0.1)">
					<g>
						<path id="DejaVuSans-32_00000075125250999862776870000011355675856211738281_" d="M-531.6,526.7h34.4v-8.3h-46.3v8.3
							c3.7,3.9,8.8,9.1,15.3,15.6c6.5,6.5,10.5,10.7,12.2,12.6c3.2,3.5,5.4,6.5,6.6,9c1.3,2.5,1.9,4.9,1.9,7.2c0,3.9-1.4,7-4.1,9.5
							c-2.7,2.4-6.3,3.7-10.6,3.7c-3.1,0-6.4-0.5-9.8-1.6c-3.4-1.1-7.1-2.7-11-4.9v10c4,1.6,7.7,2.8,11.1,3.6
							c3.5,0.8,6.6,1.2,9.5,1.2c7.6,0,13.6-1.9,18.1-5.7c4.5-3.8,6.7-8.8,6.7-15.1c0-3-0.6-5.8-1.7-8.5c-1.1-2.7-3.2-5.8-6.1-9.5
							c-0.8-0.9-3.4-3.7-7.8-8.2C-517.5,541.1-523.7,534.8-531.6,526.7z"/>
					</g>
					<g>
						<path id="DejaVuSans-2e_00000029019267585835449630000013019966767921302715_" d="M-476.5,530.8h10.3v-12.4h-10.3V530.8z"/>
					</g>
					<g>
						<path id="DejaVuSans-30_00000178206015486256714120000011952664724361568643_" d="M-423.6,584.8c-5.1,0-8.9-2.5-11.5-7.5
							c-2.6-5-3.8-12.5-3.8-22.5c0-10,1.3-17.5,3.8-22.5c2.6-5,6.4-7.5,11.5-7.5c5.1,0,8.9,2.5,11.5,7.5c2.6,5,3.8,12.5,3.8,22.5
							c0,10-1.3,17.5-3.8,22.5C-414.7,582.3-418.5,584.8-423.6,584.8z M-423.6,592.6c8.2,0,14.4-3.2,18.7-9.7
							c4.3-6.5,6.5-15.8,6.5-28.1c0-12.3-2.2-21.6-6.5-28.1c-4.3-6.5-10.6-9.7-18.7-9.7c-8.2,0-14.4,3.2-18.7,9.7
							c-4.3,6.5-6.5,15.8-6.5,28.1c0,12.3,2.2,21.7,6.5,28.1C-438,589.4-431.8,592.6-423.6,592.6z"/>
					</g>
				</g>
			</g>
		</g>
		<g id="xtick_20">
			<g id="line2d_23">
				<path class="st5" d="M314.8,97.6l4.6,1.2"/>
			</g>
			<g id="text_22">
				<g transform="translate(382.388876 155.054614) scale(0.1 -0.1)">
					<g>
						<path id="DejaVuSans-32_00000153682733493871769640000010126064736834957730_" d="M-531.6,526.7h34.4v-8.3h-46.3v8.3
							c3.7,3.9,8.8,9.1,15.3,15.6c6.5,6.5,10.5,10.7,12.2,12.6c3.2,3.5,5.4,6.5,6.6,9c1.3,2.5,1.9,4.9,1.9,7.2c0,3.9-1.4,7-4.1,9.5
							c-2.7,2.4-6.3,3.7-10.6,3.7c-3.1,0-6.4-0.5-9.8-1.6c-3.4-1.1-7.1-2.7-11-4.9v10c4,1.6,7.7,2.8,11.1,3.6
							c3.5,0.8,6.6,1.2,9.5,1.2c7.6,0,13.6-1.9,18.1-5.7c4.5-3.8,6.7-8.8,6.7-15.1c0-3-0.6-5.8-1.7-8.5c-1.1-2.7-3.2-5.8-6.1-9.5
							c-0.8-0.9-3.4-3.7-7.8-8.2C-517.5,541.1-523.7,534.8-531.6,526.7z"/>
					</g>
					<g>
						<path id="DejaVuSans-2e_00000044856699981946624670000016223854638608522430_" d="M-476.5,530.8h10.3v-12.4h-10.3V530.8z"/>
					</g>
					<g>
						<path id="DejaVuSans-35_00000012435176339286899400000000605782085322298300_" d="M-444.6,591.3h38.7V583h-29.7v-17.9
							c1.4,0.5,2.9,0.9,4.3,1.1c1.4,0.2,2.9,0.4,4.3,0.4c8.1,0,14.6-2.2,19.3-6.7c4.8-4.5,7.1-10.5,7.1-18.1
							c0-7.8-2.4-13.9-7.3-18.3c-4.9-4.3-11.8-6.5-20.7-6.5c-3.1,0-6.2,0.3-9.4,0.8c-3.2,0.5-6.4,1.3-9.8,2.3v9.9
							c2.9-1.6,6-2.8,9.1-3.6s6.4-1.2,9.9-1.2c5.6,0,10.1,1.5,13.4,4.4c3.3,3,4.9,7,4.9,12.1c0,5.1-1.6,9.1-4.9,12
							c-3.3,3-7.7,4.5-13.4,4.5c-2.6,0-5.3-0.3-7.9-0.9c-2.6-0.6-5.3-1.5-8-2.7V591.3z"/>
					</g>
				</g>
			</g>
		</g>
		<g id="xtick_21">
			<g id="line2d_24">
				<path class="st5" d="M315.8,74.9l4.6,1.2"/>
			</g>
			<g id="text_23">
				<g transform="translate(383.56355 132.335286) scale(0.1 -0.1)">
					<g>
						<path id="DejaVuSans-33_00000147198451822262566060000008079346141229296545_" d="M-510.2,557.7c4.7-1,8.4-3.1,11-6.3
							c2.7-3.2,4-7.1,4-11.8c0-7.2-2.5-12.8-7.4-16.7c-4.9-3.9-12-5.9-21.1-5.9c-3.1,0-6.2,0.3-9.4,0.9c-3.2,0.6-6.6,1.5-10,2.7v9.5
							c2.7-1.6,5.7-2.8,9-3.6c3.3-0.8,6.7-1.2,10.2-1.2c6.2,0,10.9,1.2,14.1,3.7s4.9,6,4.9,10.6c0,4.3-1.5,7.7-4.5,10.1
							c-3,2.4-7.2,3.6-12.6,3.6h-8.5v8.1h8.9c4.8,0,8.6,1,11.1,2.9s3.9,4.7,3.9,8.4c0,3.7-1.3,6.6-4,8.6c-2.6,2-6.4,3-11.4,3
							c-2.7,0-5.6-0.3-8.7-0.9c-3.1-0.6-6.5-1.5-10.2-2.7v8.8c3.8,1,7.3,1.8,10.5,2.3c3.3,0.5,6.4,0.8,9.2,0.8
							c7.5,0,13.4-1.7,17.8-5.1c4.4-3.4,6.5-8,6.5-13.8c0-4-1.2-7.5-3.5-10.2S-506,558.8-510.2,557.7z"/>
					</g>
					<g>
						<path id="DejaVuSans-2e_00000012467431247082320320000007753962487686985872_" d="M-476.5,530.8h10.3v-12.4h-10.3V530.8z"/>
					</g>
					<g>
						<path id="DejaVuSans-30_00000059991318948071070950000001265853917801638565_" d="M-423.6,584.8c-5.1,0-8.9-2.5-11.5-7.5
							c-2.6-5-3.8-12.5-3.8-22.5c0-10,1.3-17.5,3.8-22.5c2.6-5,6.4-7.5,11.5-7.5c5.1,0,8.9,2.5,11.5,7.5c2.6,5,3.8,12.5,3.8,22.5
							c0,10-1.3,17.5-3.8,22.5C-414.7,582.3-418.5,584.8-423.6,584.8z M-423.6,592.6c8.2,0,14.4-3.2,18.7-9.7
							c4.3-6.5,6.5-15.8,6.5-28.1c0-12.3-2.2-21.6-6.5-28.1c-4.3-6.5-10.6-9.7-18.7-9.7c-8.2,0-14.4,3.2-18.7,9.7
							c-4.3,6.5-6.5,15.8-6.5,28.1c0,12.3,2.2,21.7,6.5,28.1C-438,589.4-431.8,592.6-423.6,592.6z"/>
					</g>
				</g>
			</g>
		</g>
		<g id="text_24">
			<g transform="translate(406.393747 191.783148) scale(0.1 -0.1)">
				<g>
					<path id="DejaVuSans-5a" d="M-545.2,591.3h57.3v-7.5l-46.1-57.1h47.2v-8.3h-59.5v7.5l46.1,57.1h-45V591.3z"/>
				</g>
			</g>
		</g>
	</g>
	<g id="axes_1">
		<g id="Line3DCollection_4">
			<g>
				<defs>
					<rect id="SVGID_1_" x="0" width="332.6" height="332.6"/>
				</defs>
				<clipPath id="SVGID_00000062193349650788399540000013660126999271804064_">
					<use xlink:href="#SVGID_1_"  style="overflow:visible;"/>
				</clipPath>
				
					<path style="clip-path:url(#SVGID_00000062193349650788399540000013660126999271804064_);fill:none;stroke:#0000FF;stroke-width:1.5;stroke-linejoin:round;stroke-dasharray:5.55,2.4;" d="
					M158.3,71.8L30.9,247.1"/>
			</g>
			<g>
				<defs>
					<rect id="SVGID_00000102502449097905292510000014118497473906862725_" x="0" width="332.6" height="332.6"/>
				</defs>
				<clipPath id="SVGID_00000139280063307131884250000015671322566264130177_">
					<use xlink:href="#SVGID_00000102502449097905292510000014118497473906862725_"  style="overflow:visible;"/>
				</clipPath>
				
					<path style="clip-path:url(#SVGID_00000139280063307131884250000015671322566264130177_);fill:none;stroke:#0000FF;stroke-width:1.5;stroke-linejoin:round;stroke-dasharray:5.55,2.4;" d="
					M158.3,71.8L150.4,90"/>
			</g>
			<g>
				<defs>
					<rect id="SVGID_00000143595710656625025260000001573335795810139271_" x="0" width="332.6" height="332.6"/>
				</defs>
				<clipPath id="SVGID_00000080181393865914705320000016199935255160872369_">
					<use xlink:href="#SVGID_00000143595710656625025260000001573335795810139271_"  style="overflow:visible;"/>
				</clipPath>
				
					<path style="clip-path:url(#SVGID_00000080181393865914705320000016199935255160872369_);fill:none;stroke:#0000FF;stroke-width:1.5;stroke-linejoin:round;stroke-dasharray:5.55,2.4;" d="
					M158.3,71.8l-16.8,15.7"/>
			</g>
		</g>
		<g id="text_25">
			<g transform="translate(198.635597 123.636635) scale(0.12 -0.12)">
				<g>
					<path id="DejaVuSans-76" d="M-456,486.7h9.5l17.1-45.9l17.1,45.9h9.5l-20.5-54.7h-12.2L-456,486.7z"/>
				</g>
				<g>
					<path id="DejaVuSans-31_00000108994299922046926750000013264684346102847645_" d="M-387.4,440.3h16.1v55.6l-17.5-3.5v9
						l17.4,3.5h9.9v-64.6h16.1V432h-42V440.3z"/>
				</g>
			</g>
		</g>
		<g id="text_26">
			<g transform="translate(286.492273 232.820771) scale(0.12 -0.12)">
				<g>
					<path id="DejaVuSans-76_00000046339687661302002310000015208692764547147915_" d="M-456,486.7h9.5l17.1-45.9l17.1,45.9h9.5
						l-20.5-54.7h-12.2L-456,486.7z"/>
				</g>
				<g>
					<path id="DejaVuSans-32_00000024715027901712401670000017233764525462872488_" d="M-380.6,440.3h34.4V432h-46.3v8.3
						c3.7,3.9,8.8,9.1,15.3,15.6c6.5,6.5,10.5,10.7,12.2,12.6c3.2,3.5,5.4,6.5,6.6,9c1.3,2.5,1.9,4.9,1.9,7.2c0,3.9-1.4,7-4.1,9.5
						c-2.7,2.4-6.3,3.7-10.6,3.7c-3.1,0-6.4-0.5-9.8-1.6c-3.4-1.1-7.1-2.7-11-4.9v10c4,1.6,7.7,2.8,11.1,3.6
						c3.5,0.8,6.6,1.2,9.5,1.2c7.6,0,13.6-1.9,18.1-5.7c4.5-3.8,6.7-8.8,6.7-15.1c0-3-0.6-5.8-1.7-8.5c-1.1-2.7-3.2-5.8-6.1-9.5
						c-0.8-0.9-3.4-3.7-7.8-8.2C-366.5,454.7-372.7,448.4-380.6,440.3z"/>
				</g>
			</g>
		</g>
		<g id="text_27">
			<g transform="translate(152.005312 45.84) scale(0.12 -0.12)">
				<g>
					<path id="DejaVuSans-20" class="st9" d="M-1377.1-1244.1"/>
				</g>
				<g>
					<path id="DejaVuSans-20_00000142136662181385335790000008767010446175260823_" class="st9" d="M-477.4-1244.1"/>
				</g>
				<g>
					<path id="DejaVuSans-30_00000035528581227969126420000003830123896450603711_" class="st9" d="M-363.6-1125.2
						c-9.1,0-15.9-4.5-20.5-13.4c-4.6-8.9-6.9-22.4-6.9-40.3c0-17.9,2.3-31.3,6.9-40.2c4.6-8.9,11.4-13.4,20.5-13.4
						c9.2,0,16,4.5,20.6,13.4c4.6,8.9,6.9,22.4,6.9,40.2c0,18-2.3,31.4-6.9,40.3C-347.6-1129.7-354.4-1125.2-363.6-1125.2z
						 M-363.6-1111.2c14.6,0,25.8-5.8,33.5-17.4c7.7-11.6,11.6-28.3,11.6-50.4c0-22-3.9-38.7-11.6-50.3
						c-7.7-11.6-18.9-17.3-33.5-17.3c-14.6,0-25.8,5.8-33.5,17.3c-7.7,11.6-11.6,28.3-11.6,50.3c0,22,3.9,38.8,11.6,50.4
						C-389.4-1117-378.2-1111.2-363.6-1111.2z"/>
				</g>
				<g>
					<path id="DejaVuSans-2e_00000043427520734389673400000016149573133385771163_" class="st9" d="M-287.5-1221.9h18.5v-22.2h-18.5
						V-1221.9z"/>
				</g>
				<g>
					<path id="DejaVuSans-32_00000029733407233893131610000001880382424247322240_" class="st9" d="M-215.4-1229.2h61.6v-14.8h-82.8
						v14.8c6.7,6.9,15.8,16.2,27.4,27.9c11.6,11.7,18.8,19.2,21.8,22.6c5.6,6.3,9.6,11.7,11.8,16.1c2.3,4.4,3.4,8.7,3.4,13
						c0,6.9-2.4,12.6-7.3,16.9c-4.9,4.4-11.2,6.6-19,6.6c-5.5,0-11.4-1-17.5-2.9c-6.1-1.9-12.7-4.8-19.7-8.8v17.8
						c7.1,2.9,13.7,5,19.9,6.5c6.2,1.5,11.8,2.2,17,2.2c13.5,0,24.3-3.4,32.3-10.2c8-6.7,12.1-15.8,12.1-27.1c0-5.4-1-10.5-3-15.3
						c-2-4.8-5.6-10.4-11-17c-1.5-1.7-6.1-6.6-13.9-14.7C-190.1-1203.4-201.1-1214.7-215.4-1229.2z"/>
				</g>
				<g>
					<path id="DejaVuSans-31_00000011004042175569854300000013777942562578737567_" class="st9" d="M-113.6-1229.2h28.8v99.6
						l-31.4-6.3v16.1l31.2,6.3h17.6v-115.6h28.8v-14.8h-75.1V-1229.2z"/>
				</g>
				<g>
					<path id="DejaVuSans-34" class="st9" d="M45.7-1129l-44.6-69.7h44.6V-1129z M41-1113.6h22.2v-85h18.6v-14.7H63.2v-30.8H45.7
						v30.8h-58.9v17L41-1113.6z"/>
				</g>
			</g>
		</g>
		<g id="Line3DCollection_5">
			<g>
				<defs>
					<rect id="SVGID_00000075135932100135204840000014826199645579980190_" x="0" y="0" width="332.6" height="332.6"/>
				</defs>
				<clipPath id="SVGID_00000064333660517362431040000010425273564916964739_">
					<use xlink:href="#SVGID_00000075135932100135204840000014826199645579980190_"  style="overflow:visible;"/>
				</clipPath>
				
					<path style="clip-path:url(#SVGID_00000064333660517362431040000010425273564916964739_);fill:none;stroke:#FF0000;stroke-width:1.5;stroke-linejoin:round;stroke-dasharray:5.55,2.4;" d="
					M246.1,181L30.9,247.1"/>
			</g>
			<g>
				<defs>
					<rect id="SVGID_00000107570019268658989830000004090880594311647404_" x="0" y="0" width="332.6" height="332.6"/>
				</defs>
				<clipPath id="SVGID_00000092452397201445575450000009811264176248911518_">
					<use xlink:href="#SVGID_00000107570019268658989830000004090880594311647404_"  style="overflow:visible;"/>
				</clipPath>
				
					<path style="clip-path:url(#SVGID_00000092452397201445575450000009811264176248911518_);fill:none;stroke:#FF0000;stroke-width:1.5;stroke-linejoin:round;stroke-dasharray:5.55,2.4;" d="
					M246.1,181L228,191.8"/>
			</g>
			<g>
				<defs>
					<rect id="SVGID_00000032627225308326349010000002925469523994932133_" x="0" y="0" width="332.6" height="332.6"/>
				</defs>
				<clipPath id="SVGID_00000032637708201670205690000010243941289856799394_">
					<use xlink:href="#SVGID_00000032627225308326349010000002925469523994932133_"  style="overflow:visible;"/>
				</clipPath>
				
					<path style="clip-path:url(#SVGID_00000032637708201670205690000010243941289856799394_);fill:none;stroke:#FF0000;stroke-width:1.5;stroke-linejoin:round;stroke-dasharray:5.55,2.4;" d="
					M246.1,181l-25.3,2.5"/>
			</g>
		</g>
	</g>
</g>
<path class="st13" d="M74.4,186.7c22.5,7.5,30.3,20.9,23.7,40.1"/>
<text transform="matrix(1 0 0 1 75.5723 217.1336)" class="st14 st15">θ</text>
</svg>
