<?xml version="1.0" encoding="utf-8"?>
<!-- Generator: Adobe Illustrator 27.2.0, SVG Export Plug-In . SVG Version: 6.00 Build 0)  -->
<svg version="1.1" id="Layer_1" xmlns="http://www.w3.org/2000/svg" xmlns:xlink="http://www.w3.org/1999/xlink" x="0px" y="0px"
	 viewBox="0 0 343.7 334.8" style="enable-background:new 0 0 343.7 334.8;" xml:space="preserve">
<style type="text/css">
	.st0{opacity:0.5;fill:#F2F2F2;stroke:#F2F2F2;enable-background:new    ;}
	.st1{opacity:0.5;fill:#E6E6E6;stroke:#E6E6E6;enable-background:new    ;}
	.st2{opacity:0.5;fill:#ECECEC;stroke:#ECECEC;enable-background:new    ;}
	.st3{fill:none;stroke:#B0B0B0;stroke-width:0.8;stroke-linejoin:round;}
	.st4{fill:none;stroke:#000000;stroke-width:0.8;stroke-linecap:square;stroke-linejoin:round;}
	
		.st5{clip-path:url(#SVGID_00000026131210137457516880000014637859015830455980_);fill:none;stroke:#008000;stroke-width:3;stroke-linecap:square;stroke-linejoin:round;}
	
		.st6{clip-path:url(#SVGID_00000124157523543035252010000006448070572324235670_);fill:none;stroke:#008000;stroke-width:3;stroke-linecap:square;stroke-linejoin:round;}
	
		.st7{clip-path:url(#SVGID_00000095298038123954380970000015817780900857457834_);fill:none;stroke:#008000;stroke-width:3;stroke-linecap:square;stroke-linejoin:round;}
	
		.st8{clip-path:url(#SVGID_00000134237543098003885780000008654538209828568967_);fill:none;stroke:#0000FF;stroke-width:1.5;stroke-linejoin:round;stroke-dasharray:5.55,2.4;}
	
		.st9{clip-path:url(#SVGID_00000095307182464876410060000002327710336579105408_);fill:none;stroke:#0000FF;stroke-width:1.5;stroke-linejoin:round;stroke-dasharray:5.55,2.4;}
	
		.st10{clip-path:url(#SVGID_00000037680871035191342580000018012507618940278717_);fill:none;stroke:#0000FF;stroke-width:1.5;stroke-linejoin:round;stroke-dasharray:5.55,2.4;}
	.st11{fill:#008000;}
	
		.st12{clip-path:url(#SVGID_00000129201442776248063260000004530709871439436970_);fill:none;stroke:#FF0000;stroke-width:1.5;stroke-linejoin:round;stroke-dasharray:5.55,2.4;}
	
		.st13{clip-path:url(#SVGID_00000009577710516360081100000000837815411712623493_);fill:none;stroke:#FF0000;stroke-width:1.5;stroke-linejoin:round;stroke-dasharray:5.55,2.4;}
	
		.st14{clip-path:url(#SVGID_00000068644853405511214120000015051983642330256785_);fill:none;stroke:#FF0000;stroke-width:1.5;stroke-linejoin:round;stroke-dasharray:5.55,2.4;}
</style>
<g id="figure_1">
	<g id="pane3d_1">
		<g id="patch_3">
			<path class="st0" d="M25.1,250.6L135,158.5l-1.5-132.8l-115.1,84"/>
		</g>
	</g>
	<g id="pane3d_2">
		<g id="patch_4">
			<path class="st1" d="M135,158.5l176.3,51.2l6.3-137.4L133.4,25.8"/>
		</g>
	</g>
	<g id="pane3d_3">
		<g id="patch_5">
			<path class="st2" d="M25.1,250.6l186.9,61l99.3-101.9L135,158.5"/>
		</g>
	</g>
	<g id="grid3d_1">
		<g id="Line3DCollection_1">
			<path class="st3" d="M28.7,251.8l109.7-92.3l-1.4-132.9"/>
			<path class="st3" d="M57.3,261.1l108.1-93.7l-0.2-133.6"/>
			<path class="st3" d="M86.5,270.7L193,175.4l1-134.3"/>
			<path class="st3" d="M116.1,280.3L221,183.5l2.2-135"/>
			<path class="st3" d="M146.2,290.2l103.2-98.4L252.8,56"/>
			<path class="st3" d="M176.9,300.2l101.4-100L283,63.7"/>
			<path class="st3" d="M208,310.4l99.5-101.7l6.1-137.3"/>
		</g>
	</g>
	<g id="grid3d_2">
		<g id="Line3DCollection_2">
			<path class="st3" d="M20.8,107.9l6.7,140.7l186.6,60.8"/>
			<path class="st3" d="M40.6,93.5l5.7,139.4l184.9,59.1"/>
			<path class="st3" d="M59.8,79.5l4.8,138l183.1,57.4"/>
			<path class="st3" d="M78.4,65.9l3.9,136.7l181.4,55.8"/>
			<path class="st3" d="M96.6,52.7l3.1,135.5l179.8,54.3"/>
			<path class="st3" d="M114.2,39.8l2.3,134.2l178.1,52.8"/>
			<path class="st3" d="M131.3,27.3l1.6,132.9l176.5,51.4"/>
		</g>
	</g>
	<g id="grid3d_3">
		<g id="Line3DCollection_3">
			<path class="st3" d="M311.4,207.1L134.9,156L25,247.9"/>
			<path class="st3" d="M312.3,185.9l-177.6-50.5L23.9,226.2"/>
			<path class="st3" d="M313.3,164.4l-178.9-49.8L22.9,204.2"/>
			<path class="st3" d="M314.3,142.6L134.2,93.5L21.8,181.8"/>
			<path class="st3" d="M315.3,120.5L134,72.2L20.7,159.1"/>
			<path class="st3" d="M316.3,98L133.7,50.5L19.6,136.1"/>
			<path class="st3" d="M317.4,75.3L133.5,28.5l-115,84.2"/>
		</g>
	</g>
	<g id="axis3d_1">
		<g id="line2d_1">
			<path class="st4" d="M25.1,250.6l186.9,61"/>
		</g>
		<g id="xtick_1">
			<g id="line2d_2">
				<path class="st4" d="M29.6,251l-2.9,2.4"/>
			</g>
			<g id="text_1">
				<g transform="translate(68.264213 326.87527) scale(0.1 -0.1)">
					<g>
						<path id="DejaVuSans-30" d="M-519,584.8c-5.1,0-8.9-2.5-11.5-7.5c-2.6-5-3.8-12.5-3.8-22.5c0-10,1.3-17.5,3.8-22.5
							c2.6-5,6.4-7.5,11.5-7.5c5.1,0,8.9,2.5,11.5,7.5c2.6,5,3.8,12.5,3.8,22.5c0,10-1.3,17.5-3.8,22.5
							C-510.1,582.3-513.9,584.8-519,584.8z M-519,592.6c8.2,0,14.4-3.2,18.7-9.7c4.3-6.5,6.5-15.8,6.5-28.1
							c0-12.3-2.2-21.6-6.5-28.1c-4.3-6.5-10.6-9.7-18.7-9.7c-8.2,0-14.4,3.2-18.7,9.7c-4.3,6.5-6.5,15.8-6.5,28.1
							c0,12.3,2.2,21.7,6.5,28.1C-533.4,589.4-527.2,592.6-519,592.6z"/>
					</g>
					<g>
						<path id="DejaVuSans-2e" d="M-476.5,530.8h10.3v-12.4h-10.3V530.8z"/>
					</g>
					<g>
						<path id="DejaVuSans-30_00000060019001565393810220000015389659588265050261_" d="M-423.6,584.8c-5.1,0-8.9-2.5-11.5-7.5
							c-2.6-5-3.8-12.5-3.8-22.5c0-10,1.3-17.5,3.8-22.5c2.6-5,6.4-7.5,11.5-7.5c5.1,0,8.9,2.5,11.5,7.5c2.6,5,3.8,12.5,3.8,22.5
							c0,10-1.3,17.5-3.8,22.5C-414.7,582.3-418.5,584.8-423.6,584.8z M-423.6,592.6c8.2,0,14.4-3.2,18.7-9.7
							c4.3-6.5,6.5-15.8,6.5-28.1c0-12.3-2.2-21.6-6.5-28.1c-4.3-6.5-10.6-9.7-18.7-9.7c-8.2,0-14.4,3.2-18.7,9.7
							c-4.3,6.5-6.5,15.8-6.5,28.1c0,12.3,2.2,21.7,6.5,28.1C-438,589.4-431.8,592.6-423.6,592.6z"/>
					</g>
				</g>
			</g>
		</g>
		<g id="xtick_2">
			<g id="line2d_3">
				<path class="st4" d="M58.3,260.3l-2.8,2.5"/>
			</g>
			<g id="text_2">
				<g transform="translate(96.941927 336.392149) scale(0.1 -0.1)">
					<g>
						<path id="DejaVuSans-30_00000173148237913488468320000012811816949018953658_" d="M-519,584.8c-5.1,0-8.9-2.5-11.5-7.5
							c-2.6-5-3.8-12.5-3.8-22.5c0-10,1.3-17.5,3.8-22.5c2.6-5,6.4-7.5,11.5-7.5c5.1,0,8.9,2.5,11.5,7.5c2.6,5,3.8,12.5,3.8,22.5
							c0,10-1.3,17.5-3.8,22.5C-510.1,582.3-513.9,584.8-519,584.8z M-519,592.6c8.2,0,14.4-3.2,18.7-9.7c4.3-6.5,6.5-15.8,6.5-28.1
							c0-12.3-2.2-21.6-6.5-28.1c-4.3-6.5-10.6-9.7-18.7-9.7c-8.2,0-14.4,3.2-18.7,9.7c-4.3,6.5-6.5,15.8-6.5,28.1
							c0,12.3,2.2,21.7,6.5,28.1C-533.4,589.4-527.2,592.6-519,592.6z"/>
					</g>
					<g>
						<path id="DejaVuSans-2e_00000141415499615711248870000007414387991013601981_" d="M-476.5,530.8h10.3v-12.4h-10.3V530.8z"/>
					</g>
					<g>
						<path id="DejaVuSans-35" d="M-444.6,591.3h38.7V583h-29.7v-17.9c1.4,0.5,2.9,0.9,4.3,1.1c1.4,0.2,2.9,0.4,4.3,0.4
							c8.1,0,14.6-2.2,19.3-6.7c4.8-4.5,7.1-10.5,7.1-18.1c0-7.8-2.4-13.9-7.3-18.3c-4.9-4.3-11.8-6.5-20.7-6.5
							c-3.1,0-6.2,0.3-9.4,0.8c-3.2,0.5-6.4,1.3-9.8,2.3v9.9c2.9-1.6,6-2.8,9.1-3.6s6.4-1.2,9.9-1.2c5.6,0,10.1,1.5,13.4,4.4
							c3.3,3,4.9,7,4.9,12.1c0,5.1-1.6,9.1-4.9,12c-3.3,3-7.7,4.5-13.4,4.5c-2.6,0-5.3-0.3-7.9-0.9c-2.6-0.6-5.3-1.5-8-2.7V591.3z"
							/>
					</g>
				</g>
			</g>
		</g>
		<g id="xtick_3">
			<g id="line2d_4">
				<path class="st4" d="M87.4,269.8l-2.8,2.5"/>
			</g>
			<g id="text_3">
				<g transform="translate(126.1009 346.068737) scale(0.1 -0.1)">
					<g>
						<path id="DejaVuSans-31" d="M-538.4,526.7h16.1v55.6l-17.5-3.5v9l17.4,3.5h9.9v-64.6h16.1v-8.3h-42V526.7z"/>
					</g>
					<g>
						<path id="DejaVuSans-2e_00000077321809715967469520000005654944118140812699_" d="M-476.5,530.8h10.3v-12.4h-10.3V530.8z"/>
					</g>
					<g>
						<path id="DejaVuSans-30_00000047048229228463051320000001505093388691016863_" d="M-423.6,584.8c-5.1,0-8.9-2.5-11.5-7.5
							c-2.6-5-3.8-12.5-3.8-22.5c0-10,1.3-17.5,3.8-22.5c2.6-5,6.4-7.5,11.5-7.5c5.1,0,8.9,2.5,11.5,7.5c2.6,5,3.8,12.5,3.8,22.5
							c0,10-1.3,17.5-3.8,22.5C-414.7,582.3-418.5,584.8-423.6,584.8z M-423.6,592.6c8.2,0,14.4-3.2,18.7-9.7
							c4.3-6.5,6.5-15.8,6.5-28.1c0-12.3-2.2-21.6-6.5-28.1c-4.3-6.5-10.6-9.7-18.7-9.7c-8.2,0-14.4,3.2-18.7,9.7
							c-4.3,6.5-6.5,15.8-6.5,28.1c0,12.3,2.2,21.7,6.5,28.1C-438,589.4-431.8,592.6-423.6,592.6z"/>
					</g>
				</g>
			</g>
		</g>
		<g id="xtick_4">
			<g id="line2d_5">
				<path class="st4" d="M117,279.5l-2.7,2.5"/>
			</g>
			<g id="text_4">
				<g transform="translate(155.753349 355.909087) scale(0.1 -0.1)">
					<g>
						<path id="DejaVuSans-31_00000166670419331716732570000017442997581594344323_" d="M-538.4,526.7h16.1v55.6l-17.5-3.5v9
							l17.4,3.5h9.9v-64.6h16.1v-8.3h-42V526.7z"/>
					</g>
					<g>
						<path id="DejaVuSans-2e_00000086664143337852200400000006775118665377693882_" d="M-476.5,530.8h10.3v-12.4h-10.3V530.8z"/>
					</g>
					<g>
						<path id="DejaVuSans-35_00000095306291269392827160000008698849882774794377_" d="M-444.6,591.3h38.7V583h-29.7v-17.9
							c1.4,0.5,2.9,0.9,4.3,1.1c1.4,0.2,2.9,0.4,4.3,0.4c8.1,0,14.6-2.2,19.3-6.7c4.8-4.5,7.1-10.5,7.1-18.1
							c0-7.8-2.4-13.9-7.3-18.3c-4.9-4.3-11.8-6.5-20.7-6.5c-3.1,0-6.2,0.3-9.4,0.8c-3.2,0.5-6.4,1.3-9.8,2.3v9.9
							c2.9-1.6,6-2.8,9.1-3.6s6.4-1.2,9.9-1.2c5.6,0,10.1,1.5,13.4,4.4c3.3,3,4.9,7,4.9,12.1c0,5.1-1.6,9.1-4.9,12
							c-3.3,3-7.7,4.5-13.4,4.5c-2.6,0-5.3-0.3-7.9-0.9c-2.6-0.6-5.3-1.5-8-2.7V591.3z"/>
					</g>
				</g>
			</g>
		</g>
		<g id="xtick_5">
			<g id="line2d_6">
				<path class="st4" d="M147.1,289.3l-2.7,2.6"/>
			</g>
			<g id="text_5">
				<g transform="translate(185.911907 365.917394) scale(0.1 -0.1)">
					<g>
						<path id="DejaVuSans-32" d="M-531.6,526.7h34.4v-8.3h-46.3v8.3c3.7,3.9,8.8,9.1,15.3,15.6c6.5,6.5,10.5,10.7,12.2,12.6
							c3.2,3.5,5.4,6.5,6.6,9c1.3,2.5,1.9,4.9,1.9,7.2c0,3.9-1.4,7-4.1,9.5c-2.7,2.4-6.3,3.7-10.6,3.7c-3.1,0-6.4-0.5-9.8-1.6
							c-3.4-1.1-7.1-2.7-11-4.9v10c4,1.6,7.7,2.8,11.1,3.6c3.5,0.8,6.6,1.2,9.5,1.2c7.6,0,13.6-1.9,18.1-5.7
							c4.5-3.8,6.7-8.8,6.7-15.1c0-3-0.6-5.8-1.7-8.5c-1.1-2.7-3.2-5.8-6.1-9.5c-0.8-0.9-3.4-3.7-7.8-8.2
							C-517.5,541.1-523.7,534.8-531.6,526.7z"/>
					</g>
					<g>
						<path id="DejaVuSans-2e_00000086673501335440507190000010646362627367336321_" d="M-476.5,530.8h10.3v-12.4h-10.3V530.8z"/>
					</g>
					<g>
						<path id="DejaVuSans-30_00000164473321982415618470000011609559280439489462_" d="M-423.6,584.8c-5.1,0-8.9-2.5-11.5-7.5
							c-2.6-5-3.8-12.5-3.8-22.5c0-10,1.3-17.5,3.8-22.5c2.6-5,6.4-7.5,11.5-7.5c5.1,0,8.9,2.5,11.5,7.5c2.6,5,3.8,12.5,3.8,22.5
							c0,10-1.3,17.5-3.8,22.5C-414.7,582.3-418.5,584.8-423.6,584.8z M-423.6,592.6c8.2,0,14.4-3.2,18.7-9.7
							c4.3-6.5,6.5-15.8,6.5-28.1c0-12.3-2.2-21.6-6.5-28.1c-4.3-6.5-10.6-9.7-18.7-9.7c-8.2,0-14.4,3.2-18.7,9.7
							c-4.3,6.5-6.5,15.8-6.5,28.1c0,12.3,2.2,21.7,6.5,28.1C-438,589.4-431.8,592.6-423.6,592.6z"/>
					</g>
				</g>
			</g>
		</g>
		<g id="xtick_6">
			<g id="line2d_7">
				<path class="st4" d="M177.7,299.3l-2.7,2.6"/>
			</g>
			<g id="text_6">
				<g transform="translate(216.589644 376.097993) scale(0.1 -0.1)">
					<g>
						<path id="DejaVuSans-32_00000022551314366276665410000013948942264958044802_" d="M-531.6,526.7h34.4v-8.3h-46.3v8.3
							c3.7,3.9,8.8,9.1,15.3,15.6c6.5,6.5,10.5,10.7,12.2,12.6c3.2,3.5,5.4,6.5,6.6,9c1.3,2.5,1.9,4.9,1.9,7.2c0,3.9-1.4,7-4.1,9.5
							c-2.7,2.4-6.3,3.7-10.6,3.7c-3.1,0-6.4-0.5-9.8-1.6c-3.4-1.1-7.1-2.7-11-4.9v10c4,1.6,7.7,2.8,11.1,3.6
							c3.5,0.8,6.6,1.2,9.5,1.2c7.6,0,13.6-1.9,18.1-5.7c4.5-3.8,6.7-8.8,6.7-15.1c0-3-0.6-5.8-1.7-8.5c-1.1-2.7-3.2-5.8-6.1-9.5
							c-0.8-0.9-3.4-3.7-7.8-8.2C-517.5,541.1-523.7,534.8-531.6,526.7z"/>
					</g>
					<g>
						<path id="DejaVuSans-2e_00000146464514942540631630000008916945868706569658_" d="M-476.5,530.8h10.3v-12.4h-10.3V530.8z"/>
					</g>
					<g>
						<path id="DejaVuSans-35_00000152258741533331950140000013316237553123640203_" d="M-444.6,591.3h38.7V583h-29.7v-17.9
							c1.4,0.5,2.9,0.9,4.3,1.1c1.4,0.2,2.9,0.4,4.3,0.4c8.1,0,14.6-2.2,19.3-6.7c4.8-4.5,7.1-10.5,7.1-18.1
							c0-7.8-2.4-13.9-7.3-18.3c-4.9-4.3-11.8-6.5-20.7-6.5c-3.1,0-6.2,0.3-9.4,0.8c-3.2,0.5-6.4,1.3-9.8,2.3v9.9
							c2.9-1.6,6-2.8,9.1-3.6s6.4-1.2,9.9-1.2c5.6,0,10.1,1.5,13.4,4.4c3.3,3,4.9,7,4.9,12.1c0,5.1-1.6,9.1-4.9,12
							c-3.3,3-7.7,4.5-13.4,4.5c-2.6,0-5.3-0.3-7.9-0.9c-2.6-0.6-5.3-1.5-8-2.7V591.3z"/>
					</g>
				</g>
			</g>
		</g>
		<g id="xtick_7">
			<g id="line2d_8">
				<path class="st4" d="M208.9,309.5l-2.6,2.7"/>
			</g>
			<g id="text_7">
				<g transform="translate(247.800082 386.455372) scale(0.1 -0.1)">
					<g>
						<path id="DejaVuSans-33" d="M-510.2,557.7c4.7-1,8.4-3.1,11-6.3c2.7-3.2,4-7.1,4-11.8c0-7.2-2.5-12.8-7.4-16.7
							c-4.9-3.9-12-5.9-21.1-5.9c-3.1,0-6.2,0.3-9.4,0.9c-3.2,0.6-6.6,1.5-10,2.7v9.5c2.7-1.6,5.7-2.8,9-3.6
							c3.3-0.8,6.7-1.2,10.2-1.2c6.2,0,10.9,1.2,14.1,3.7s4.9,6,4.9,10.6c0,4.3-1.5,7.7-4.5,10.1c-3,2.4-7.2,3.6-12.6,3.6h-8.5v8.1
							h8.9c4.8,0,8.6,1,11.1,2.9c2.6,1.9,3.9,4.7,3.9,8.4c0,3.7-1.3,6.6-4,8.6c-2.6,2-6.4,3-11.4,3c-2.7,0-5.6-0.3-8.7-0.9
							c-3.1-0.6-6.5-1.5-10.2-2.7v8.8c3.8,1,7.3,1.8,10.5,2.3c3.3,0.5,6.4,0.8,9.2,0.8c7.5,0,13.4-1.7,17.8-5.1
							c4.4-3.4,6.5-8,6.5-13.8c0-4-1.2-7.5-3.5-10.2S-506,558.8-510.2,557.7z"/>
					</g>
					<g>
						<path id="DejaVuSans-2e_00000109015958786756363230000017247635215933520033_" d="M-476.5,530.8h10.3v-12.4h-10.3V530.8z"/>
					</g>
					<g>
						<path id="DejaVuSans-30_00000068653136380014707940000001402106259283560876_" d="M-423.6,584.8c-5.1,0-8.9-2.5-11.5-7.5
							c-2.6-5-3.8-12.5-3.8-22.5c0-10,1.3-17.5,3.8-22.5c2.6-5,6.4-7.5,11.5-7.5c5.1,0,8.9,2.5,11.5,7.5c2.6,5,3.8,12.5,3.8,22.5
							c0,10-1.3,17.5-3.8,22.5C-414.7,582.3-418.5,584.8-423.6,584.8z M-423.6,592.6c8.2,0,14.4-3.2,18.7-9.7
							c4.3-6.5,6.5-15.8,6.5-28.1c0-12.3-2.2-21.6-6.5-28.1c-4.3-6.5-10.6-9.7-18.7-9.7c-8.2,0-14.4,3.2-18.7,9.7
							c-4.3,6.5-6.5,15.8-6.5,28.1c0,12.3,2.2,21.7,6.5,28.1C-438,589.4-431.8,592.6-423.6,592.6z"/>
					</g>
				</g>
			</g>
		</g>
	</g>
	<g id="axis3d_2">
		<g id="line2d_9">
			<path class="st4" d="M311.2,209.8L212,311.6"/>
		</g>
		<g id="xtick_8">
			<g id="line2d_10">
				<path class="st4" d="M212.6,308.9l4.7,1.5"/>
			</g>
			<g id="text_8">
				<g transform="translate(274.19442 382.340642) scale(0.1 -0.1)">
					<g>
						<path id="DejaVuSans-30_00000031919251650843174240000008093559657677229228_" d="M-519,584.8c-5.1,0-8.9-2.5-11.5-7.5
							c-2.6-5-3.8-12.5-3.8-22.5c0-10,1.3-17.5,3.8-22.5c2.6-5,6.4-7.5,11.5-7.5c5.1,0,8.9,2.5,11.5,7.5c2.6,5,3.8,12.5,3.8,22.5
							c0,10-1.3,17.5-3.8,22.5C-510.1,582.3-513.9,584.8-519,584.8z M-519,592.6c8.2,0,14.4-3.2,18.7-9.7c4.3-6.5,6.5-15.8,6.5-28.1
							c0-12.3-2.2-21.6-6.5-28.1c-4.3-6.5-10.6-9.7-18.7-9.7c-8.2,0-14.4,3.2-18.7,9.7c-4.3,6.5-6.5,15.8-6.5,28.1
							c0,12.3,2.2,21.7,6.5,28.1C-533.4,589.4-527.2,592.6-519,592.6z"/>
					</g>
					<g>
						<path id="DejaVuSans-2e_00000093152488210795483480000012624066138849685678_" d="M-476.5,530.8h10.3v-12.4h-10.3V530.8z"/>
					</g>
					<g>
						<path id="DejaVuSans-30_00000101066226763020806990000016242589733470724263_" d="M-423.6,584.8c-5.1,0-8.9-2.5-11.5-7.5
							c-2.6-5-3.8-12.5-3.8-22.5c0-10,1.3-17.5,3.8-22.5c2.6-5,6.4-7.5,11.5-7.5c5.1,0,8.9,2.5,11.5,7.5c2.6,5,3.8,12.5,3.8,22.5
							c0,10-1.3,17.5-3.8,22.5C-414.7,582.3-418.5,584.8-423.6,584.8z M-423.6,592.6c8.2,0,14.4-3.2,18.7-9.7
							c4.3-6.5,6.5-15.8,6.5-28.1c0-12.3-2.2-21.6-6.5-28.1c-4.3-6.5-10.6-9.7-18.7-9.7c-8.2,0-14.4,3.2-18.7,9.7
							c-4.3,6.5-6.5,15.8-6.5,28.1c0,12.3,2.2,21.7,6.5,28.1C-438,589.4-431.8,592.6-423.6,592.6z"/>
					</g>
				</g>
			</g>
		</g>
		<g id="xtick_9">
			<g id="line2d_11">
				<path class="st4" d="M229.6,291.4l4.7,1.5"/>
			</g>
			<g id="text_9">
				<g transform="translate(291.063107 364.634282) scale(0.1 -0.1)">
					<g>
						<path id="DejaVuSans-30_00000029044584652547492870000009872159806067002525_" d="M-519,584.8c-5.1,0-8.9-2.5-11.5-7.5
							c-2.6-5-3.8-12.5-3.8-22.5c0-10,1.3-17.5,3.8-22.5c2.6-5,6.4-7.5,11.5-7.5c5.1,0,8.9,2.5,11.5,7.5c2.6,5,3.8,12.5,3.8,22.5
							c0,10-1.3,17.5-3.8,22.5C-510.1,582.3-513.9,584.8-519,584.8z M-519,592.6c8.2,0,14.4-3.2,18.7-9.7c4.3-6.5,6.5-15.8,6.5-28.1
							c0-12.3-2.2-21.6-6.5-28.1c-4.3-6.5-10.6-9.7-18.7-9.7c-8.2,0-14.4,3.2-18.7,9.7c-4.3,6.5-6.5,15.8-6.5,28.1
							c0,12.3,2.2,21.7,6.5,28.1C-533.4,589.4-527.2,592.6-519,592.6z"/>
					</g>
					<g>
						<path id="DejaVuSans-2e_00000132788413526861475240000009083439210269609357_" d="M-476.5,530.8h10.3v-12.4h-10.3V530.8z"/>
					</g>
					<g>
						<path id="DejaVuSans-35_00000176035002881996982000000010400572522650401688_" d="M-444.6,591.3h38.7V583h-29.7v-17.9
							c1.4,0.5,2.9,0.9,4.3,1.1c1.4,0.2,2.9,0.4,4.3,0.4c8.1,0,14.6-2.2,19.3-6.7c4.8-4.5,7.1-10.5,7.1-18.1
							c0-7.8-2.4-13.9-7.3-18.3c-4.9-4.3-11.8-6.5-20.7-6.5c-3.1,0-6.2,0.3-9.4,0.8c-3.2,0.5-6.4,1.3-9.8,2.3v9.9
							c2.9-1.6,6-2.8,9.1-3.6s6.4-1.2,9.9-1.2c5.6,0,10.1,1.5,13.4,4.4c3.3,3,4.9,7,4.9,12.1c0,5.1-1.6,9.1-4.9,12
							c-3.3,3-7.7,4.5-13.4,4.5c-2.6,0-5.3-0.3-7.9-0.9c-2.6-0.6-5.3-1.5-8-2.7V591.3z"/>
					</g>
				</g>
			</g>
		</g>
		<g id="xtick_10">
			<g id="line2d_12">
				<path class="st4" d="M246.2,274.5l4.6,1.5"/>
			</g>
			<g id="text_10">
				<g transform="translate(307.440897 347.443194) scale(0.1 -0.1)">
					<g>
						<path id="DejaVuSans-31_00000109017248778540769850000018390719043849499028_" d="M-538.4,526.7h16.1v55.6l-17.5-3.5v9
							l17.4,3.5h9.9v-64.6h16.1v-8.3h-42V526.7z"/>
					</g>
					<g>
						<path id="DejaVuSans-2e_00000139251741937865089440000012404675327078678207_" d="M-476.5,530.8h10.3v-12.4h-10.3V530.8z"/>
					</g>
					<g>
						<path id="DejaVuSans-30_00000099630854895872838570000003399665051853191564_" d="M-423.6,584.8c-5.1,0-8.9-2.5-11.5-7.5
							c-2.6-5-3.8-12.5-3.8-22.5c0-10,1.3-17.5,3.8-22.5c2.6-5,6.4-7.5,11.5-7.5c5.1,0,8.9,2.5,11.5,7.5c2.6,5,3.8,12.5,3.8,22.5
							c0,10-1.3,17.5-3.8,22.5C-414.7,582.3-418.5,584.8-423.6,584.8z M-423.6,592.6c8.2,0,14.4-3.2,18.7-9.7
							c4.3-6.5,6.5-15.8,6.5-28.1c0-12.3-2.2-21.6-6.5-28.1c-4.3-6.5-10.6-9.7-18.7-9.7c-8.2,0-14.4,3.2-18.7,9.7
							c-4.3,6.5-6.5,15.8-6.5,28.1c0,12.3,2.2,21.7,6.5,28.1C-438,589.4-431.8,592.6-423.6,592.6z"/>
					</g>
				</g>
			</g>
		</g>
		<g id="xtick_11">
			<g id="line2d_13">
				<path class="st4" d="M262.3,258l4.6,1.4"/>
			</g>
			<g id="text_11">
				<g transform="translate(323.348914 330.745209) scale(0.1 -0.1)">
					<g>
						<path id="DejaVuSans-31_00000042723847957245394380000001128866656918749882_" d="M-538.4,526.7h16.1v55.6l-17.5-3.5v9
							l17.4,3.5h9.9v-64.6h16.1v-8.3h-42V526.7z"/>
					</g>
					<g>
						<path id="DejaVuSans-2e_00000165953539916595321340000011572940966317743512_" d="M-476.5,530.8h10.3v-12.4h-10.3V530.8z"/>
					</g>
					<g>
						<path id="DejaVuSans-35_00000153676391930986761480000010895877565632781205_" d="M-444.6,591.3h38.7V583h-29.7v-17.9
							c1.4,0.5,2.9,0.9,4.3,1.1c1.4,0.2,2.9,0.4,4.3,0.4c8.1,0,14.6-2.2,19.3-6.7c4.8-4.5,7.1-10.5,7.1-18.1
							c0-7.8-2.4-13.9-7.3-18.3c-4.9-4.3-11.8-6.5-20.7-6.5c-3.1,0-6.2,0.3-9.4,0.8c-3.2,0.5-6.4,1.3-9.8,2.3v9.9
							c2.9-1.6,6-2.8,9.1-3.6s6.4-1.2,9.9-1.2c5.6,0,10.1,1.5,13.4,4.4c3.3,3,4.9,7,4.9,12.1c0,5.1-1.6,9.1-4.9,12
							c-3.3,3-7.7,4.5-13.4,4.5c-2.6,0-5.3-0.3-7.9-0.9c-2.6-0.6-5.3-1.5-8-2.7V591.3z"/>
					</g>
				</g>
			</g>
		</g>
		<g id="xtick_12">
			<g id="line2d_14">
				<path class="st4" d="M277.9,241.9l4.5,1.4"/>
			</g>
			<g id="text_12">
				<g transform="translate(338.807082 314.519411) scale(0.1 -0.1)">
					<g>
						<path id="DejaVuSans-32_00000093176322344004354570000011832421234407218083_" d="M-531.6,526.7h34.4v-8.3h-46.3v8.3
							c3.7,3.9,8.8,9.1,15.3,15.6c6.5,6.5,10.5,10.7,12.2,12.6c3.2,3.5,5.4,6.5,6.6,9c1.3,2.5,1.9,4.9,1.9,7.2c0,3.9-1.4,7-4.1,9.5
							c-2.7,2.4-6.3,3.7-10.6,3.7c-3.1,0-6.4-0.5-9.8-1.6c-3.4-1.1-7.1-2.7-11-4.9v10c4,1.6,7.7,2.8,11.1,3.6
							c3.5,0.8,6.6,1.2,9.5,1.2c7.6,0,13.6-1.9,18.1-5.7c4.5-3.8,6.7-8.8,6.7-15.1c0-3-0.6-5.8-1.7-8.5c-1.1-2.7-3.2-5.8-6.1-9.5
							c-0.8-0.9-3.4-3.7-7.8-8.2C-517.5,541.1-523.7,534.8-531.6,526.7z"/>
					</g>
					<g>
						<path id="DejaVuSans-2e_00000092457992714790371690000001722030797822176926_" d="M-476.5,530.8h10.3v-12.4h-10.3V530.8z"/>
					</g>
					<g>
						<path id="DejaVuSans-30_00000118387670131232321440000002122956227984664975_" d="M-423.6,584.8c-5.1,0-8.9-2.5-11.5-7.5
							c-2.6-5-3.8-12.5-3.8-22.5c0-10,1.3-17.5,3.8-22.5c2.6-5,6.4-7.5,11.5-7.5c5.1,0,8.9,2.5,11.5,7.5c2.6,5,3.8,12.5,3.8,22.5
							c0,10-1.3,17.5-3.8,22.5C-414.7,582.3-418.5,584.8-423.6,584.8z M-423.6,592.6c8.2,0,14.4-3.2,18.7-9.7
							c4.3-6.5,6.5-15.8,6.5-28.1c0-12.3-2.2-21.6-6.5-28.1c-4.3-6.5-10.6-9.7-18.7-9.7c-8.2,0-14.4,3.2-18.7,9.7
							c-4.3,6.5-6.5,15.8-6.5,28.1c0,12.3,2.2,21.7,6.5,28.1C-438,589.4-431.8,592.6-423.6,592.6z"/>
					</g>
				</g>
			</g>
		</g>
		<g id="xtick_13">
			<g id="line2d_15">
				<path class="st4" d="M293.1,226.4l4.5,1.3"/>
			</g>
			<g id="text_13">
				<g transform="translate(353.834218 298.74605) scale(0.1 -0.1)">
					<g>
						<path id="DejaVuSans-32_00000120546257404951215780000015426650383153462975_" d="M-531.6,526.7h34.4v-8.3h-46.3v8.3
							c3.7,3.9,8.8,9.1,15.3,15.6c6.5,6.5,10.5,10.7,12.2,12.6c3.2,3.5,5.4,6.5,6.6,9c1.3,2.5,1.9,4.9,1.9,7.2c0,3.9-1.4,7-4.1,9.5
							c-2.7,2.4-6.3,3.7-10.6,3.7c-3.1,0-6.4-0.5-9.8-1.6c-3.4-1.1-7.1-2.7-11-4.9v10c4,1.6,7.7,2.8,11.1,3.6
							c3.5,0.8,6.6,1.2,9.5,1.2c7.6,0,13.6-1.9,18.1-5.7c4.5-3.8,6.7-8.8,6.7-15.1c0-3-0.6-5.8-1.7-8.5c-1.1-2.7-3.2-5.8-6.1-9.5
							c-0.8-0.9-3.4-3.7-7.8-8.2C-517.5,541.1-523.7,534.8-531.6,526.7z"/>
					</g>
					<g>
						<path id="DejaVuSans-2e_00000067194871774308508030000011111313729503151032_" d="M-476.5,530.8h10.3v-12.4h-10.3V530.8z"/>
					</g>
					<g>
						<path id="DejaVuSans-35_00000109732251405419569550000018404592624602888325_" d="M-444.6,591.3h38.7V583h-29.7v-17.9
							c1.4,0.5,2.9,0.9,4.3,1.1c1.4,0.2,2.9,0.4,4.3,0.4c8.1,0,14.6-2.2,19.3-6.7c4.8-4.5,7.1-10.5,7.1-18.1
							c0-7.8-2.4-13.9-7.3-18.3c-4.9-4.3-11.8-6.5-20.7-6.5c-3.1,0-6.2,0.3-9.4,0.8c-3.2,0.5-6.4,1.3-9.8,2.3v9.9
							c2.9-1.6,6-2.8,9.1-3.6s6.4-1.2,9.9-1.2c5.6,0,10.1,1.5,13.4,4.4c3.3,3,4.9,7,4.9,12.1c0,5.1-1.6,9.1-4.9,12
							c-3.3,3-7.7,4.5-13.4,4.5c-2.6,0-5.3-0.3-7.9-0.9c-2.6-0.6-5.3-1.5-8-2.7V591.3z"/>
					</g>
				</g>
			</g>
		</g>
		<g id="xtick_14">
			<g id="line2d_16">
				<path class="st4" d="M307.9,211.2l4.4,1.3"/>
			</g>
			<g id="text_14">
				<g transform="translate(368.448101 283.406463) scale(0.1 -0.1)">
					<g>
						<path id="DejaVuSans-33_00000051372630618960873400000010860919375459196581_" d="M-510.2,557.7c4.7-1,8.4-3.1,11-6.3
							c2.7-3.2,4-7.1,4-11.8c0-7.2-2.5-12.8-7.4-16.7c-4.9-3.9-12-5.9-21.1-5.9c-3.1,0-6.2,0.3-9.4,0.9c-3.2,0.6-6.6,1.5-10,2.7v9.5
							c2.7-1.6,5.7-2.8,9-3.6c3.3-0.8,6.7-1.2,10.2-1.2c6.2,0,10.9,1.2,14.1,3.7s4.9,6,4.9,10.6c0,4.3-1.5,7.7-4.5,10.1
							c-3,2.4-7.2,3.6-12.6,3.6h-8.5v8.1h8.9c4.8,0,8.6,1,11.1,2.9s3.9,4.7,3.9,8.4c0,3.7-1.3,6.6-4,8.6c-2.6,2-6.4,3-11.4,3
							c-2.7,0-5.6-0.3-8.7-0.9c-3.1-0.6-6.5-1.5-10.2-2.7v8.8c3.8,1,7.3,1.8,10.5,2.3c3.3,0.5,6.4,0.8,9.2,0.8
							c7.5,0,13.4-1.7,17.8-5.1c4.4-3.4,6.5-8,6.5-13.8c0-4-1.2-7.5-3.5-10.2S-506,558.8-510.2,557.7z"/>
					</g>
					<g>
						<path id="DejaVuSans-2e_00000132767515417035068640000001027103067392786816_" d="M-476.5,530.8h10.3v-12.4h-10.3V530.8z"/>
					</g>
					<g>
						<path id="DejaVuSans-30_00000041294452166916304700000015734472341206465197_" d="M-423.6,584.8c-5.1,0-8.9-2.5-11.5-7.5
							c-2.6-5-3.8-12.5-3.8-22.5c0-10,1.3-17.5,3.8-22.5c2.6-5,6.4-7.5,11.5-7.5c5.1,0,8.9,2.5,11.5,7.5c2.6,5,3.8,12.5,3.8,22.5
							c0,10-1.3,17.5-3.8,22.5C-414.7,582.3-418.5,584.8-423.6,584.8z M-423.6,592.6c8.2,0,14.4-3.2,18.7-9.7
							c4.3-6.5,6.5-15.8,6.5-28.1c0-12.3-2.2-21.6-6.5-28.1c-4.3-6.5-10.6-9.7-18.7-9.7c-8.2,0-14.4,3.2-18.7,9.7
							c-4.3,6.5-6.5,15.8-6.5,28.1c0,12.3,2.2,21.7,6.5,28.1C-438,589.4-431.8,592.6-423.6,592.6z"/>
					</g>
				</g>
			</g>
		</g>
	</g>
	<g id="axis3d_3">
		<g id="line2d_17">
			<path class="st4" d="M311.2,209.8l6.3-137.4"/>
		</g>
		<g id="xtick_15">
			<g id="line2d_18">
				<path class="st4" d="M309.9,206.7l4.4,1.3"/>
			</g>
			<g id="text_15">
				<g transform="translate(376.756888 263.982649) scale(0.1 -0.1)">
					<g>
						<path id="DejaVuSans-30_00000062882556077160353260000002211082349762756534_" d="M-519,584.8c-5.1,0-8.9-2.5-11.5-7.5
							c-2.6-5-3.8-12.5-3.8-22.5c0-10,1.3-17.5,3.8-22.5c2.6-5,6.4-7.5,11.5-7.5c5.1,0,8.9,2.5,11.5,7.5c2.6,5,3.8,12.5,3.8,22.5
							c0,10-1.3,17.5-3.8,22.5C-510.1,582.3-513.9,584.8-519,584.8z M-519,592.6c8.2,0,14.4-3.2,18.7-9.7c4.3-6.5,6.5-15.8,6.5-28.1
							c0-12.3-2.2-21.6-6.5-28.1c-4.3-6.5-10.6-9.7-18.7-9.7c-8.2,0-14.4,3.2-18.7,9.7c-4.3,6.5-6.5,15.8-6.5,28.1
							c0,12.3,2.2,21.7,6.5,28.1C-533.4,589.4-527.2,592.6-519,592.6z"/>
					</g>
					<g>
						<path id="DejaVuSans-2e_00000180347534008062113710000006724036694014691006_" d="M-476.5,530.8h10.3v-12.4h-10.3V530.8z"/>
					</g>
					<g>
						<path id="DejaVuSans-30_00000142872974293532565660000003487131885402693525_" d="M-423.6,584.8c-5.1,0-8.9-2.5-11.5-7.5
							c-2.6-5-3.8-12.5-3.8-22.5c0-10,1.3-17.5,3.8-22.5c2.6-5,6.4-7.5,11.5-7.5c5.1,0,8.9,2.5,11.5,7.5c2.6,5,3.8,12.5,3.8,22.5
							c0,10-1.3,17.5-3.8,22.5C-414.7,582.3-418.5,584.8-423.6,584.8z M-423.6,592.6c8.2,0,14.4-3.2,18.7-9.7
							c4.3-6.5,6.5-15.8,6.5-28.1c0-12.3-2.2-21.6-6.5-28.1c-4.3-6.5-10.6-9.7-18.7-9.7c-8.2,0-14.4,3.2-18.7,9.7
							c-4.3,6.5-6.5,15.8-6.5,28.1c0,12.3,2.2,21.7,6.5,28.1C-438,589.4-431.8,592.6-423.6,592.6z"/>
					</g>
				</g>
			</g>
		</g>
		<g id="xtick_16">
			<g id="line2d_19">
				<path class="st4" d="M310.8,185.5l4.5,1.3"/>
			</g>
			<g id="text_16">
				<g transform="translate(377.852211 242.798056) scale(0.1 -0.1)">
					<g>
						<path id="DejaVuSans-30_00000016764903730215690840000000988605009380577449_" d="M-519,584.8c-5.1,0-8.9-2.5-11.5-7.5
							c-2.6-5-3.8-12.5-3.8-22.5c0-10,1.3-17.5,3.8-22.5c2.6-5,6.4-7.5,11.5-7.5c5.1,0,8.9,2.5,11.5,7.5c2.6,5,3.8,12.5,3.8,22.5
							c0,10-1.3,17.5-3.8,22.5C-510.1,582.3-513.9,584.8-519,584.8z M-519,592.6c8.2,0,14.4-3.2,18.7-9.7c4.3-6.5,6.5-15.8,6.5-28.1
							c0-12.3-2.2-21.6-6.5-28.1c-4.3-6.5-10.6-9.7-18.7-9.7c-8.2,0-14.4,3.2-18.7,9.7c-4.3,6.5-6.5,15.8-6.5,28.1
							c0,12.3,2.2,21.7,6.5,28.1C-533.4,589.4-527.2,592.6-519,592.6z"/>
					</g>
					<g>
						<path id="DejaVuSans-2e_00000039125354701062368060000001439184335995105185_" d="M-476.5,530.8h10.3v-12.4h-10.3V530.8z"/>
					</g>
					<g>
						<path id="DejaVuSans-35_00000094580946393058279550000006371399428408395440_" d="M-444.6,591.3h38.7V583h-29.7v-17.9
							c1.4,0.5,2.9,0.9,4.3,1.1c1.4,0.2,2.9,0.4,4.3,0.4c8.1,0,14.6-2.2,19.3-6.7c4.8-4.5,7.1-10.5,7.1-18.1
							c0-7.8-2.4-13.9-7.3-18.3c-4.9-4.3-11.8-6.5-20.7-6.5c-3.1,0-6.2,0.3-9.4,0.8c-3.2,0.5-6.4,1.3-9.8,2.3v9.9
							c2.9-1.6,6-2.8,9.1-3.6s6.4-1.2,9.9-1.2c5.6,0,10.1,1.5,13.4,4.4c3.3,3,4.9,7,4.9,12.1c0,5.1-1.6,9.1-4.9,12
							c-3.3,3-7.7,4.5-13.4,4.5c-2.6,0-5.3-0.3-7.9-0.9c-2.6-0.6-5.3-1.5-8-2.7V591.3z"/>
					</g>
				</g>
			</g>
		</g>
		<g id="xtick_17">
			<g id="line2d_20">
				<path class="st4" d="M311.8,164l4.5,1.3"/>
			</g>
			<g id="text_17">
				<g transform="translate(378.962747 221.319217) scale(0.1 -0.1)">
					<g>
						<path id="DejaVuSans-31_00000106141453070022718960000016424498927168816012_" d="M-538.4,526.7h16.1v55.6l-17.5-3.5v9
							l17.4,3.5h9.9v-64.6h16.1v-8.3h-42V526.7z"/>
					</g>
					<g>
						<path id="DejaVuSans-2e_00000127749937672701632130000002436867136147854209_" d="M-476.5,530.8h10.3v-12.4h-10.3V530.8z"/>
					</g>
					<g>
						<path id="DejaVuSans-30_00000178927990341855029660000006465547151587177660_" d="M-423.6,584.8c-5.1,0-8.9-2.5-11.5-7.5
							c-2.6-5-3.8-12.5-3.8-22.5c0-10,1.3-17.5,3.8-22.5c2.6-5,6.4-7.5,11.5-7.5c5.1,0,8.9,2.5,11.5,7.5c2.6,5,3.8,12.5,3.8,22.5
							c0,10-1.3,17.5-3.8,22.5C-414.7,582.3-418.5,584.8-423.6,584.8z M-423.6,592.6c8.2,0,14.4-3.2,18.7-9.7
							c4.3-6.5,6.5-15.8,6.5-28.1c0-12.3-2.2-21.6-6.5-28.1c-4.3-6.5-10.6-9.7-18.7-9.7c-8.2,0-14.4,3.2-18.7,9.7
							c-4.3,6.5-6.5,15.8-6.5,28.1c0,12.3,2.2,21.7,6.5,28.1C-438,589.4-431.8,592.6-423.6,592.6z"/>
					</g>
				</g>
			</g>
		</g>
		<g id="xtick_18">
			<g id="line2d_21">
				<path class="st4" d="M312.8,142.2l4.5,1.2"/>
			</g>
			<g id="text_18">
				<g transform="translate(380.088817 199.539959) scale(0.1 -0.1)">
					<g>
						<path id="DejaVuSans-31_00000029726066536282402770000017094594000247783820_" d="M-538.4,526.7h16.1v55.6l-17.5-3.5v9
							l17.4,3.5h9.9v-64.6h16.1v-8.3h-42V526.7z"/>
					</g>
					<g>
						<path id="DejaVuSans-2e_00000181778046145401642870000011348324633023397787_" d="M-476.5,530.8h10.3v-12.4h-10.3V530.8z"/>
					</g>
					<g>
						<path id="DejaVuSans-35_00000040539722152094865780000005272375532174456733_" d="M-444.6,591.3h38.7V583h-29.7v-17.9
							c1.4,0.5,2.9,0.9,4.3,1.1c1.4,0.2,2.9,0.4,4.3,0.4c8.1,0,14.6-2.2,19.3-6.7c4.8-4.5,7.1-10.5,7.1-18.1
							c0-7.8-2.4-13.9-7.3-18.3c-4.9-4.3-11.8-6.5-20.7-6.5c-3.1,0-6.2,0.3-9.4,0.8c-3.2,0.5-6.4,1.3-9.8,2.3v9.9
							c2.9-1.6,6-2.8,9.1-3.6s6.4-1.2,9.9-1.2c5.6,0,10.1,1.5,13.4,4.4c3.3,3,4.9,7,4.9,12.1c0,5.1-1.6,9.1-4.9,12
							c-3.3,3-7.7,4.5-13.4,4.5c-2.6,0-5.3-0.3-7.9-0.9c-2.6-0.6-5.3-1.5-8-2.7V591.3z"/>
					</g>
				</g>
			</g>
		</g>
		<g id="xtick_19">
			<g id="line2d_22">
				<path class="st4" d="M313.8,120.1l4.6,1.2"/>
			</g>
			<g id="text_19">
				<g transform="translate(381.230747 177.453933) scale(0.1 -0.1)">
					<g>
						<path id="DejaVuSans-32_00000124143861710316361600000005083433497451777665_" d="M-531.6,526.7h34.4v-8.3h-46.3v8.3
							c3.7,3.9,8.8,9.1,15.3,15.6c6.5,6.5,10.5,10.7,12.2,12.6c3.2,3.5,5.4,6.5,6.6,9c1.3,2.5,1.9,4.9,1.9,7.2c0,3.9-1.4,7-4.1,9.5
							c-2.7,2.4-6.3,3.7-10.6,3.7c-3.1,0-6.4-0.5-9.8-1.6c-3.4-1.1-7.1-2.7-11-4.9v10c4,1.6,7.7,2.8,11.1,3.6
							c3.5,0.8,6.6,1.2,9.5,1.2c7.6,0,13.6-1.9,18.1-5.7c4.5-3.8,6.7-8.8,6.7-15.1c0-3-0.6-5.8-1.7-8.5c-1.1-2.7-3.2-5.8-6.1-9.5
							c-0.8-0.9-3.4-3.7-7.8-8.2C-517.5,541.1-523.7,534.8-531.6,526.7z"/>
					</g>
					<g>
						<path id="DejaVuSans-2e_00000049912042728890249940000002667221500761272975_" d="M-476.5,530.8h10.3v-12.4h-10.3V530.8z"/>
					</g>
					<g>
						<path id="DejaVuSans-30_00000047773946872234602680000017838416092489690544_" d="M-423.6,584.8c-5.1,0-8.9-2.5-11.5-7.5
							c-2.6-5-3.8-12.5-3.8-22.5c0-10,1.3-17.5,3.8-22.5c2.6-5,6.4-7.5,11.5-7.5c5.1,0,8.9,2.5,11.5,7.5c2.6,5,3.8,12.5,3.8,22.5
							c0,10-1.3,17.5-3.8,22.5C-414.7,582.3-418.5,584.8-423.6,584.8z M-423.6,592.6c8.2,0,14.4-3.2,18.7-9.7
							c4.3-6.5,6.5-15.8,6.5-28.1c0-12.3-2.2-21.6-6.5-28.1c-4.3-6.5-10.6-9.7-18.7-9.7c-8.2,0-14.4,3.2-18.7,9.7
							c-4.3,6.5-6.5,15.8-6.5,28.1c0,12.3,2.2,21.7,6.5,28.1C-438,589.4-431.8,592.6-423.6,592.6z"/>
					</g>
				</g>
			</g>
		</g>
		<g id="xtick_20">
			<g id="line2d_23">
				<path class="st4" d="M314.8,97.6l4.6,1.2"/>
			</g>
			<g id="text_20">
				<g transform="translate(382.388876 155.054614) scale(0.1 -0.1)">
					<g>
						<path id="DejaVuSans-32_00000005967506431786656280000009382280547082731435_" d="M-531.6,526.7h34.4v-8.3h-46.3v8.3
							c3.7,3.9,8.8,9.1,15.3,15.6c6.5,6.5,10.5,10.7,12.2,12.6c3.2,3.5,5.4,6.5,6.6,9c1.3,2.5,1.9,4.9,1.9,7.2c0,3.9-1.4,7-4.1,9.5
							c-2.7,2.4-6.3,3.7-10.6,3.7c-3.1,0-6.4-0.5-9.8-1.6c-3.4-1.1-7.1-2.7-11-4.9v10c4,1.6,7.7,2.8,11.1,3.6
							c3.5,0.8,6.6,1.2,9.5,1.2c7.6,0,13.6-1.9,18.1-5.7c4.5-3.8,6.7-8.8,6.7-15.1c0-3-0.6-5.8-1.7-8.5c-1.1-2.7-3.2-5.8-6.1-9.5
							c-0.8-0.9-3.4-3.7-7.8-8.2C-517.5,541.1-523.7,534.8-531.6,526.7z"/>
					</g>
					<g>
						<path id="DejaVuSans-2e_00000044862028665042681760000010282133778928413108_" d="M-476.5,530.8h10.3v-12.4h-10.3V530.8z"/>
					</g>
					<g>
						<path id="DejaVuSans-35_00000123401154432821337240000003416934794250632069_" d="M-444.6,591.3h38.7V583h-29.7v-17.9
							c1.4,0.5,2.9,0.9,4.3,1.1c1.4,0.2,2.9,0.4,4.3,0.4c8.1,0,14.6-2.2,19.3-6.7c4.8-4.5,7.1-10.5,7.1-18.1
							c0-7.8-2.4-13.9-7.3-18.3c-4.9-4.3-11.8-6.5-20.7-6.5c-3.1,0-6.2,0.3-9.4,0.8c-3.2,0.5-6.4,1.3-9.8,2.3v9.9
							c2.9-1.6,6-2.8,9.1-3.6s6.4-1.2,9.9-1.2c5.6,0,10.1,1.5,13.4,4.4c3.3,3,4.9,7,4.9,12.1c0,5.1-1.6,9.1-4.9,12
							c-3.3,3-7.7,4.5-13.4,4.5c-2.6,0-5.3-0.3-7.9-0.9c-2.6-0.6-5.3-1.5-8-2.7V591.3z"/>
					</g>
				</g>
			</g>
		</g>
		<g id="xtick_21">
			<g id="line2d_24">
				<path class="st4" d="M315.8,74.9l4.6,1.2"/>
			</g>
			<g id="text_21">
				<g transform="translate(383.56355 132.335286) scale(0.1 -0.1)">
					<g>
						<path id="DejaVuSans-33_00000139996240731686649630000010486107293840248760_" d="M-510.2,557.7c4.7-1,8.4-3.1,11-6.3
							c2.7-3.2,4-7.1,4-11.8c0-7.2-2.5-12.8-7.4-16.7c-4.9-3.9-12-5.9-21.1-5.9c-3.1,0-6.2,0.3-9.4,0.9c-3.2,0.6-6.6,1.5-10,2.7v9.5
							c2.7-1.6,5.7-2.8,9-3.6c3.3-0.8,6.7-1.2,10.2-1.2c6.2,0,10.9,1.2,14.1,3.7s4.9,6,4.9,10.6c0,4.3-1.5,7.7-4.5,10.1
							c-3,2.4-7.2,3.6-12.6,3.6h-8.5v8.1h8.9c4.8,0,8.6,1,11.1,2.9s3.9,4.7,3.9,8.4c0,3.7-1.3,6.6-4,8.6c-2.6,2-6.4,3-11.4,3
							c-2.7,0-5.6-0.3-8.7-0.9c-3.1-0.6-6.5-1.5-10.2-2.7v8.8c3.8,1,7.3,1.8,10.5,2.3c3.3,0.5,6.4,0.8,9.2,0.8
							c7.5,0,13.4-1.7,17.8-5.1c4.4-3.4,6.5-8,6.5-13.8c0-4-1.2-7.5-3.5-10.2S-506,558.8-510.2,557.7z"/>
					</g>
					<g>
						<path id="DejaVuSans-2e_00000160882334865957651590000005396862117100703166_" d="M-476.5,530.8h10.3v-12.4h-10.3V530.8z"/>
					</g>
					<g>
						<path id="DejaVuSans-30_00000070091861695587302240000014803737956448129182_" d="M-423.6,584.8c-5.1,0-8.9-2.5-11.5-7.5
							c-2.6-5-3.8-12.5-3.8-22.5c0-10,1.3-17.5,3.8-22.5c2.6-5,6.4-7.5,11.5-7.5c5.1,0,8.9,2.5,11.5,7.5c2.6,5,3.8,12.5,3.8,22.5
							c0,10-1.3,17.5-3.8,22.5C-414.7,582.3-418.5,584.8-423.6,584.8z M-423.6,592.6c8.2,0,14.4-3.2,18.7-9.7
							c4.3-6.5,6.5-15.8,6.5-28.1c0-12.3-2.2-21.6-6.5-28.1c-4.3-6.5-10.6-9.7-18.7-9.7c-8.2,0-14.4,3.2-18.7,9.7
							c-4.3,6.5-6.5,15.8-6.5,28.1c0,12.3,2.2,21.7,6.5,28.1C-438,589.4-431.8,592.6-423.6,592.6z"/>
					</g>
				</g>
			</g>
		</g>
	</g>
	<g id="axes_1">
		<g id="line2d_25">
			<g>
				<defs>
					<rect id="SVGID_1_" x="0" width="332.6" height="332.6"/>
				</defs>
				<clipPath id="SVGID_00000022546489254770582610000014321020563395109267_">
					<use xlink:href="#SVGID_1_"  style="overflow:visible;"/>
				</clipPath>
				
					<path style="clip-path:url(#SVGID_00000022546489254770582610000014321020563395109267_);fill:none;stroke:#008000;stroke-width:3;stroke-linecap:square;stroke-linejoin:round;" d="
					M158.3,71.8l122.1,32.3"/>
			</g>
		</g>
		<g id="line2d_26">
			<g>
				<defs>
					<rect id="SVGID_00000166653962694942609720000012880471590389402541_" x="0" width="332.6" height="332.6"/>
				</defs>
				<clipPath id="SVGID_00000093893081286852640450000014388533171377743770_">
					<use xlink:href="#SVGID_00000166653962694942609720000012880471590389402541_"  style="overflow:visible;"/>
				</clipPath>
				
					<path style="clip-path:url(#SVGID_00000093893081286852640450000014388533171377743770_);fill:none;stroke:#008000;stroke-width:3;stroke-linecap:square;stroke-linejoin:round;" d="
					M280.4,104.1l-33.1,29.8"/>
			</g>
		</g>
		<g id="line2d_27">
			<g>
				<defs>
					<rect id="SVGID_00000090277679043445249970000013776390783385908877_" x="0" width="332.6" height="332.6"/>
				</defs>
				<clipPath id="SVGID_00000036242523694114578450000017859813397103182755_">
					<use xlink:href="#SVGID_00000090277679043445249970000013776390783385908877_"  style="overflow:visible;"/>
				</clipPath>
				
					<path style="clip-path:url(#SVGID_00000036242523694114578450000017859813397103182755_);fill:none;stroke:#008000;stroke-width:3;stroke-linecap:square;stroke-linejoin:round;" d="
					M247.3,133.9l-1.1,47.1"/>
			</g>
		</g>
		<g id="Line3DCollection_4">
			<g>
				<defs>
					<rect id="SVGID_00000007408796373901281910000009239098235004843926_" x="0" width="332.6" height="332.6"/>
				</defs>
				<clipPath id="SVGID_00000044144207130421430940000003538432050583632056_">
					<use xlink:href="#SVGID_00000007408796373901281910000009239098235004843926_"  style="overflow:visible;"/>
				</clipPath>
				
					<path style="clip-path:url(#SVGID_00000044144207130421430940000003538432050583632056_);fill:none;stroke:#0000FF;stroke-width:1.5;stroke-linejoin:round;stroke-dasharray:5.55,2.4;" d="
					M158.3,71.8L30.9,247.1"/>
			</g>
			<g>
				<defs>
					<rect id="SVGID_00000158017918933636750820000008408938338419910532_" x="0" width="332.6" height="332.6"/>
				</defs>
				<clipPath id="SVGID_00000155136560242950018670000001131697198440878243_">
					<use xlink:href="#SVGID_00000158017918933636750820000008408938338419910532_"  style="overflow:visible;"/>
				</clipPath>
				
					<path style="clip-path:url(#SVGID_00000155136560242950018670000001131697198440878243_);fill:none;stroke:#0000FF;stroke-width:1.5;stroke-linejoin:round;stroke-dasharray:5.55,2.4;" d="
					M158.3,71.8L150.4,90"/>
			</g>
			<g>
				<defs>
					<rect id="SVGID_00000029045243524940260060000004912200102861077140_" x="0" width="332.6" height="332.6"/>
				</defs>
				<clipPath id="SVGID_00000136386771900893993410000015014754056506989976_">
					<use xlink:href="#SVGID_00000029045243524940260060000004912200102861077140_"  style="overflow:visible;"/>
				</clipPath>
				
					<path style="clip-path:url(#SVGID_00000136386771900893993410000015014754056506989976_);fill:none;stroke:#0000FF;stroke-width:1.5;stroke-linejoin:round;stroke-dasharray:5.55,2.4;" d="
					M158.3,71.8l-16.8,15.7"/>
			</g>
		</g>
		<g id="text_22">
			<g transform="translate(198.635597 123.636635) scale(0.12 -0.12)">
				<g>
					<path id="DejaVuSans-76" d="M-456,486.7h9.5l17.1-45.9l17.1,45.9h9.5l-20.5-54.7h-12.2L-456,486.7z"/>
				</g>
				<g>
					<path id="DejaVuSans-31_00000031929469569829804950000004807989569495715261_" d="M-387.4,440.3h16.1v55.6l-17.5-3.5v9
						l17.4,3.5h9.9v-64.6h16.1V432h-42V440.3z"/>
				</g>
			</g>
		</g>
		<g id="text_23">
			<g transform="translate(286.492273 232.820771) scale(0.12 -0.12)">
				<g>
					<path id="DejaVuSans-76_00000072272170491127889290000006681912545791067532_" d="M-456,486.7h9.5l17.1-45.9l17.1,45.9h9.5
						l-20.5-54.7h-12.2L-456,486.7z"/>
				</g>
				<g>
					<path id="DejaVuSans-32_00000093165627084719358370000016336477495267032720_" d="M-380.6,440.3h34.4V432h-46.3v8.3
						c3.7,3.9,8.8,9.1,15.3,15.6c6.5,6.5,10.5,10.7,12.2,12.6c3.2,3.5,5.4,6.5,6.6,9c1.3,2.5,1.9,4.9,1.9,7.2c0,3.9-1.4,7-4.1,9.5
						c-2.7,2.4-6.3,3.7-10.6,3.7c-3.1,0-6.4-0.5-9.8-1.6c-3.4-1.1-7.1-2.7-11-4.9v10c4,1.6,7.7,2.8,11.1,3.6
						c3.5,0.8,6.6,1.2,9.5,1.2c7.6,0,13.6-1.9,18.1-5.7c4.5-3.8,6.7-8.8,6.7-15.1c0-3-0.6-5.8-1.7-8.5c-1.1-2.7-3.2-5.8-6.1-9.5
						c-0.8-0.9-3.4-3.7-7.8-8.2C-366.5,454.7-372.7,448.4-380.6,440.3z"/>
				</g>
			</g>
		</g>
		<g id="text_24">
			<g transform="translate(143.65125 45.84) scale(0.12 -0.12)">
				<g>
					<path id="DejaVuSans-34" class="st11" d="M857.5-206.2l-40.8-63.7h40.8V-206.2z M853.2-192.1h20.3v-77.8h17v-13.4h-17v-28.1
						h-16.1v28.1h-53.9v15.6L853.2-192.1z"/>
				</g>
				<g>
					<path id="DejaVuSans-2e_00000157308547350381808850000002897787166344357294_" class="st11" d="M917.3-291.2h16.9v-20.3h-16.9
						V-291.2z"/>
				</g>
				<g>
					<path id="DejaVuSans-30_00000174581897845909067700000004763640867158103719_" class="st11" d="M1003.8-202.8
						c-8.3,0-14.6-4.1-18.8-12.3c-4.2-8.2-6.3-20.5-6.3-36.9c0-16.4,2.1-28.6,6.3-36.8c4.2-8.2,10.4-12.3,18.8-12.3
						c8.4,0,14.7,4.1,18.8,12.3c4.2,8.2,6.3,20.5,6.3,36.8c0,16.4-2.1,28.7-6.3,36.9C1018.5-206.9,1012.2-202.8,1003.8-202.8z
						 M1003.8-190c13.4,0,23.6-5.3,30.7-15.9c7.1-10.6,10.6-25.9,10.6-46.1c0-20.1-3.5-35.4-10.6-46c-7.1-10.6-17.3-15.9-30.7-15.9
						c-13.4,0-23.6,5.3-30.6,15.9c-7.1,10.6-10.6,25.9-10.6,46c0,20.1,3.5,35.5,10.6,46.1C980.2-195.3,990.5-190,1003.8-190z"/>
				</g>
				<g>
					<path id="DejaVuSans-30_00000028292289267729629740000015679643338167382461_" class="st11" d="M1108-202.8
						c-8.3,0-14.6-4.1-18.8-12.3c-4.2-8.2-6.3-20.5-6.3-36.9c0-16.4,2.1-28.6,6.3-36.8c4.2-8.2,10.4-12.3,18.8-12.3
						c8.4,0,14.7,4.1,18.8,12.3c4.2,8.2,6.3,20.5,6.3,36.8c0,16.4-2.1,28.7-6.3,36.9C1122.7-206.9,1116.4-202.8,1108-202.8z
						 M1108-190c13.4,0,23.6-5.3,30.7-15.9c7.1-10.6,10.6-25.9,10.6-46.1c0-20.1-3.5-35.4-10.6-46c-7.1-10.6-17.3-15.9-30.7-15.9
						c-13.4,0-23.6,5.3-30.6,15.9c-7.1,10.6-10.6,25.9-10.6,46c0,20.1,3.5,35.5,10.6,46.1C1084.4-195.3,1094.6-190,1108-190z"/>
				</g>
			</g>
		</g>
		<g id="Line3DCollection_5">
			<g>
				<defs>
					<rect id="SVGID_00000026147552196040838590000014188161839413002139_" x="0" y="0" width="332.6" height="332.6"/>
				</defs>
				<clipPath id="SVGID_00000070802146048891172100000003972818911455147706_">
					<use xlink:href="#SVGID_00000026147552196040838590000014188161839413002139_"  style="overflow:visible;"/>
				</clipPath>
				
					<path style="clip-path:url(#SVGID_00000070802146048891172100000003972818911455147706_);fill:none;stroke:#FF0000;stroke-width:1.5;stroke-linejoin:round;stroke-dasharray:5.55,2.4;" d="
					M246.1,181L30.9,247.1"/>
			</g>
			<g>
				<defs>
					<rect id="SVGID_00000183930923300451693420000003763577402298301851_" x="0" y="0" width="332.6" height="332.6"/>
				</defs>
				<clipPath id="SVGID_00000114053737179976320080000009280552154731253947_">
					<use xlink:href="#SVGID_00000183930923300451693420000003763577402298301851_"  style="overflow:visible;"/>
				</clipPath>
				
					<path style="clip-path:url(#SVGID_00000114053737179976320080000009280552154731253947_);fill:none;stroke:#FF0000;stroke-width:1.5;stroke-linejoin:round;stroke-dasharray:5.55,2.4;" d="
					M246.1,181L228,191.8"/>
			</g>
			<g>
				<defs>
					<rect id="SVGID_00000096048632367741059300000009150400991748143806_" x="0" y="0" width="332.6" height="332.6"/>
				</defs>
				<clipPath id="SVGID_00000131328761941958462290000002798842409423420088_">
					<use xlink:href="#SVGID_00000096048632367741059300000009150400991748143806_"  style="overflow:visible;"/>
				</clipPath>
				
					<path style="clip-path:url(#SVGID_00000131328761941958462290000002798842409423420088_);fill:none;stroke:#FF0000;stroke-width:1.5;stroke-linejoin:round;stroke-dasharray:5.55,2.4;" d="
					M246.1,181l-25.3,2.5"/>
			</g>
		</g>
	</g>
</g>
</svg>
